<svg width="600" height="600" viewBox="0 0 600 600" fill="none" xmlns="http://www.w3.org/2000/svg">
<rect x="119.138" y="119.135" width="361.729" height="361.729" stroke="#646464" stroke-width="2.43243"/>
<rect x="300" y="44.218" width="361.729" height="361.729" transform="rotate(45 300 44.218)" stroke="#646464" stroke-width="2.43243"/>
<path d="M300.001 482.081L481.215 300" stroke="#646464" stroke-width="1.62162" stroke-dasharray="4.86 4.86"/>
<path d="M300 1.73389V598.266" stroke="#646464" stroke-width="2.43243"/>
<path d="M598.266 300L1.73388 300" stroke="#646464" stroke-width="2.43243"/>
<path d="M428.324 171.677L171.677 428.324" stroke="#646464" stroke-width="2.43243"/>
<path d="M428.324 428.323L171.677 171.675" stroke="#646464" stroke-width="2.43243"/>
<path d="M88.7988 88.7988L300 1.31642L511.201 88.7988L598.684 300L511.201 511.201L300 598.684L88.7988 511.201L1.31642 300L88.7988 88.7988Z" stroke="#646464" stroke-width="2.43243"/>
<circle cx="299.999" cy="300" r="29.4798" transform="rotate(-90 299.999 300)" fill="#FFB74A"/>
<circle cx="352.024" cy="300" r="19.593" transform="rotate(-90 352.024 300)" fill="#161616" stroke="#646464" stroke-width="2.43243"/>
<circle cx="390.173" cy="300" r="14.3907" transform="rotate(-90 390.173 300)" fill="#161616" stroke="#646464" stroke-width="2.43243"/>
<circle cx="29.4798" cy="299.204" r="29.4798" transform="rotate(-90 29.4798 299.204)" fill="#753AFF"/>
<circle cx="81.5007" cy="299.204" r="20.8092" transform="rotate(-90 81.5007 299.204)" fill="#4863FB"/>
<circle cx="119.654" cy="299.204" r="15.6069" transform="rotate(-90 119.654 299.204)" fill="#2CA6B5"/>
<circle cx="29.4798" cy="29.4798" r="29.4798" transform="matrix(4.37114e-08 -1 -1 -4.37114e-08 600 328.684)" fill="#EF2757"/>
<circle cx="20.8092" cy="20.8092" r="19.593" transform="matrix(4.37114e-08 -1 -1 -4.37114e-08 539.309 320.014)" fill="#161616" stroke="#646464" stroke-width="2.43243"/>
<circle cx="15.6069" cy="15.6069" r="15.6069" transform="matrix(4.37114e-08 -1 -1 -4.37114e-08 495.953 314.811)" fill="#FF7223"/>
<circle cx="299.202" cy="29.4798" r="29.4798" fill="#753AFF"/>
<circle cx="299.708" cy="81.36" r="20.8092" fill="#4863FB"/>
<circle cx="299.201" cy="119.653" r="15.6069" fill="#2CA6B5"/>
<circle cx="29.4798" cy="29.4798" r="29.4798" transform="matrix(1 0 0 -1 269.723 600)" fill="#EF2757"/>
<circle cx="20.8092" cy="20.8092" r="19.593" transform="matrix(1 0 0 -1 278.391 539.307)" fill="#161616" stroke="#646464" stroke-width="2.43243"/>
<circle cx="15.6069" cy="15.6069" r="15.6069" transform="matrix(1 0 0 -1 283.594 495.953)" fill="#FF7223"/>
<circle cx="107.593" cy="107.586" r="28.2635" transform="rotate(-45 107.593 107.586)" fill="#161616" stroke="#646464" stroke-width="2.43243"/>
<circle cx="144.378" cy="144.371" r="19.593" transform="rotate(-45 144.378 144.371)" fill="#161616" stroke="#646464" stroke-width="2.43243"/>
<circle cx="171.357" cy="171.349" r="14.3907" transform="rotate(-45 171.357 171.349)" fill="#161616" stroke="#646464" stroke-width="2.43243"/>
<circle cx="492.759" cy="491.019" r="28.2635" transform="rotate(135 492.759 491.019)" fill="#161616" stroke="#646464" stroke-width="2.43243"/>
<circle cx="455.974" cy="454.233" r="19.593" transform="rotate(135 455.974 454.233)" fill="#161616" stroke="#646464" stroke-width="2.43243"/>
<circle cx="428.995" cy="427.256" r="14.3907" transform="rotate(135 428.995 427.256)" fill="#161616" stroke="#646464" stroke-width="2.43243"/>
<circle cx="29.4798" cy="29.4798" r="28.2635" transform="matrix(0.707107 0.707107 0.707107 -0.707107 66.0508 491.178)" fill="#161616" stroke="#646464" stroke-width="2.43243"/>
<circle cx="20.8092" cy="20.8092" r="19.593" transform="matrix(0.707107 0.707107 0.707107 -0.707107 115.098 454.392)" fill="#161616" stroke="#646464" stroke-width="2.43243"/>
<circle cx="15.6069" cy="15.6069" r="14.3907" transform="matrix(0.707107 0.707107 0.707107 -0.707107 149.434 427.415)" fill="#161616" stroke="#646464" stroke-width="2.43243"/>
<circle cx="29.4798" cy="29.4798" r="28.2635" transform="matrix(-0.707107 -0.707107 -0.707107 0.707107 534.602 107.746)" fill="#161616" stroke="#646464" stroke-width="2.43243"/>
<circle cx="20.8092" cy="20.8092" r="19.593" transform="matrix(-0.707107 -0.707107 -0.707107 0.707107 485.555 144.532)" fill="#161616" stroke="#646464" stroke-width="2.43243"/>
<circle cx="15.6069" cy="15.6069" r="14.3907" transform="matrix(-0.707107 -0.707107 -0.707107 0.707107 451.219 171.508)" fill="#161616" stroke="#646464" stroke-width="2.43243"/>
<circle cx="391.908" cy="390.173" r="14.3907" transform="rotate(-90 391.908 390.173)" fill="#161616" stroke="#646464" stroke-width="2.43243"/>
<circle cx="436.994" cy="345.086" r="14.3907" transform="rotate(-90 436.994 345.086)" fill="#161616" stroke="#646464" stroke-width="2.43243"/>
<circle cx="345.087" cy="438.729" r="14.3907" transform="rotate(-90 345.087 438.729)" fill="#161616" stroke="#646464" stroke-width="2.43243"/>
<circle cx="202.892" cy="300" r="15.6069" transform="rotate(-90 202.892 300)" fill="#7BAD1F"/>
<circle cx="299.998" cy="202.891" r="15.6069" transform="rotate(-90 299.998 202.891)" fill="#7BAD1F"/>
<path d="M409.053 350.518C408.924 350.093 408.768 349.722 408.585 349.408C408.401 349.093 408.139 348.786 407.797 348.486C407.455 348.186 407.148 347.944 406.875 347.761C406.602 347.577 406.228 347.371 405.752 347.143C405.277 346.916 404.9 346.747 404.623 346.635C404.345 346.524 403.944 346.372 403.418 346.178C402.952 346.004 402.605 345.871 402.377 345.779C402.149 345.687 401.85 345.557 401.478 345.387C401.106 345.218 400.829 345.068 400.645 344.937C400.462 344.807 400.266 344.647 400.058 344.458C399.85 344.27 399.704 344.069 399.619 343.856C399.535 343.643 399.493 343.411 399.493 343.159C399.493 342.501 399.79 341.964 400.385 341.548C400.98 341.132 401.748 340.924 402.69 340.924C403.106 340.924 403.53 340.98 403.961 341.091C404.392 341.202 404.761 341.328 405.068 341.468C405.376 341.609 405.666 341.763 405.938 341.933C406.211 342.102 406.404 342.23 406.518 342.317C406.632 342.404 406.705 342.463 406.734 342.492C406.863 342.588 406.997 342.622 407.135 342.593C407.284 342.584 407.398 342.506 407.478 342.361L408.682 340.242C408.801 340.048 408.776 339.864 408.608 339.69C408.548 339.632 408.474 339.564 408.384 339.487C408.295 339.409 408.102 339.269 407.804 339.066C407.507 338.863 407.192 338.681 406.861 338.522C406.528 338.362 406.097 338.2 405.567 338.035C405.037 337.871 404.489 337.759 403.924 337.701V335.147C403.924 335.011 403.879 334.9 403.79 334.813C403.701 334.726 403.587 334.682 403.448 334.682H401.441C401.312 334.682 401.2 334.728 401.106 334.82C401.012 334.912 400.965 335.021 400.965 335.147V337.759C399.409 338.05 398.145 338.698 397.174 339.704C396.202 340.711 395.716 341.882 395.716 343.217C395.716 343.614 395.759 343.991 395.843 344.349C395.927 344.707 396.031 345.029 396.155 345.315C396.279 345.6 396.455 345.881 396.683 346.157C396.911 346.432 397.127 346.67 397.33 346.868C397.533 347.066 397.798 347.272 398.125 347.485C398.452 347.698 398.732 347.869 398.965 348C399.198 348.13 399.508 348.281 399.895 348.45C400.281 348.619 400.586 348.747 400.809 348.834C401.032 348.921 401.337 349.043 401.724 349.197C402.259 349.4 402.655 349.558 402.913 349.669C403.171 349.78 403.498 349.935 403.895 350.133C404.291 350.332 404.581 350.513 404.764 350.678C404.948 350.842 405.114 351.046 405.262 351.287C405.411 351.529 405.486 351.786 405.486 352.057C405.486 352.821 405.181 353.411 404.571 353.827C403.962 354.243 403.255 354.452 402.452 354.452C402.086 354.452 401.719 354.413 401.352 354.336C400.064 354.084 398.86 353.479 397.739 352.521L397.71 352.492C397.62 352.386 397.502 352.342 397.353 352.362C397.194 352.381 397.08 352.439 397.011 352.536L395.48 354.495C395.331 354.689 395.341 354.887 395.509 355.091C395.559 355.149 395.646 355.236 395.769 355.352C395.894 355.468 396.124 355.649 396.461 355.897C396.798 356.143 397.165 356.375 397.561 356.593C397.958 356.811 398.461 357.026 399.07 357.239C399.68 357.452 400.312 357.602 400.966 357.689V360.229C400.966 360.355 401.013 360.464 401.107 360.556C401.202 360.648 401.313 360.694 401.442 360.694H403.449C403.588 360.694 403.702 360.65 403.791 360.563C403.88 360.476 403.925 360.365 403.925 360.229V357.689C405.501 357.437 406.782 356.777 407.768 355.708C408.755 354.638 409.248 353.363 409.248 351.883C409.247 351.399 409.183 350.944 409.053 350.518Z" fill="#7BAD1F"/>
<path d="M348.553 407.514C348.318 407.514 348.119 407.433 347.957 407.27L339.503 399.115C339.413 399.042 339.288 398.925 339.13 398.762C338.972 398.6 338.722 398.304 338.378 397.875C338.035 397.446 337.728 397.006 337.457 396.554C337.186 396.102 336.945 395.556 336.732 394.915C336.52 394.274 336.414 393.65 336.414 393.045C336.414 391.058 336.988 389.505 338.135 388.385C339.282 387.265 340.867 386.705 342.89 386.705C343.45 386.705 344.021 386.802 344.604 386.996C345.186 387.19 345.728 387.452 346.229 387.782C346.731 388.112 347.162 388.421 347.523 388.71C347.884 388.999 348.228 389.306 348.553 389.631C348.878 389.306 349.221 388.999 349.582 388.71C349.944 388.421 350.375 388.112 350.876 387.782C351.377 387.452 351.919 387.19 352.502 386.996C353.084 386.802 353.656 386.705 354.216 386.705C356.239 386.705 357.824 387.265 358.971 388.385C360.118 389.505 360.692 391.058 360.692 393.045C360.692 395.041 359.657 397.073 357.589 399.142L349.149 407.27C348.986 407.433 348.788 407.514 348.553 407.514Z" fill="#FF2171"/>
<path d="M299.196 302.88V305.734H285.808V303.477L293.021 296.627C293.834 295.848 294.379 295.174 294.656 294.603C294.95 294.015 295.097 293.436 295.097 292.865C295.097 292.017 294.812 291.368 294.241 290.919C293.67 290.469 292.831 290.244 291.724 290.244C289.873 290.244 288.455 290.876 287.469 292.138L285.108 290.322C285.817 289.371 286.768 288.636 287.962 288.117C289.173 287.58 290.522 287.312 292.009 287.312C293.981 287.312 295.555 287.779 296.732 288.713C297.908 289.647 298.496 290.919 298.496 292.527C298.496 293.513 298.288 294.439 297.873 295.304C297.458 296.168 296.662 297.154 295.486 298.261L290.634 302.88H299.196ZM314.298 302.88V305.734H300.91V303.477L308.123 296.627C308.936 295.848 309.48 295.174 309.757 294.603C310.051 294.015 310.198 293.436 310.198 292.865C310.198 292.017 309.913 291.368 309.342 290.919C308.771 290.469 307.932 290.244 306.825 290.244C304.974 290.244 303.556 290.876 302.57 292.138L300.209 290.322C300.918 289.371 301.87 288.636 303.063 288.117C304.274 287.58 305.623 287.312 307.111 287.312C309.083 287.312 310.657 287.779 311.833 288.713C313.009 289.647 313.597 290.919 313.597 292.527C313.597 293.513 313.39 294.439 312.974 295.304C312.559 296.168 311.764 297.154 310.587 298.261L305.736 302.88H314.298Z" fill="white"/>
<path d="M298.328 566.163C300.888 566.163 302.782 566.664 304.01 567.668C305.239 568.653 305.853 570.003 305.853 571.715C305.853 572.805 305.585 573.791 305.048 574.673C304.512 575.555 303.708 576.256 302.635 576.775C301.563 577.293 300.24 577.553 298.666 577.553C297.368 577.553 296.114 577.371 294.903 577.008C293.693 576.628 292.672 576.109 291.842 575.451L293.269 572.831C293.943 573.384 294.748 573.825 295.682 574.154C296.633 574.465 297.61 574.621 298.614 574.621C299.807 574.621 300.741 574.379 301.416 573.895C302.108 573.393 302.454 572.71 302.454 571.845C302.454 570.911 302.082 570.21 301.338 569.743C300.612 569.259 299.358 569.017 297.576 569.017H293.191L294.125 559.131H304.789V561.959H296.979L296.59 566.163H298.328Z" fill="white"/>
<path d="M305.826 33.1552V36.0093H292.438V33.752L299.651 26.9022C300.464 26.1239 301.009 25.4493 301.286 24.8785C301.58 24.2904 301.727 23.7109 301.727 23.1401C301.727 22.2925 301.441 21.6439 300.87 21.1941C300.3 20.7444 299.461 20.5195 298.354 20.5195C296.503 20.5195 295.084 21.1509 294.099 22.4136L291.737 20.5974C292.447 19.646 293.398 18.9109 294.592 18.392C295.802 17.8558 297.152 17.5877 298.639 17.5877C300.611 17.5877 302.185 18.0547 303.361 18.9887C304.537 19.9228 305.126 21.1941 305.126 22.8028C305.126 23.7887 304.918 24.7141 304.503 25.579C304.088 26.4439 303.292 27.4298 302.116 28.5368L297.264 33.1552H305.826Z" fill="white"/>
<path d="M22.4516 287.572V305.734H19.0787V290.4H15.2387V287.572H22.4516ZM39.2091 302.88V305.734H25.821V303.477L33.0339 296.627C33.8469 295.848 34.3918 295.174 34.6685 294.603C34.9626 294.015 35.1096 293.436 35.1096 292.865C35.1096 292.017 34.8242 291.368 34.2534 290.919C33.6826 290.469 32.8437 290.244 31.7366 290.244C29.8858 290.244 28.4674 290.876 27.4815 292.138L25.1204 290.322C25.8296 289.371 26.781 288.636 27.9745 288.117C29.1853 287.58 30.5345 287.312 32.022 287.312C33.9939 287.312 35.568 287.779 36.7442 288.713C37.9204 289.647 38.5085 290.919 38.5085 292.527C38.5085 293.513 38.301 294.439 37.8858 295.304C37.4707 296.168 36.675 297.154 35.4988 298.261L30.6469 302.88H39.2091Z" fill="white"/>
<path d="M102.845 96.7465V114.909H99.4723V99.5746H95.6323V96.7465H102.845ZM122.638 110.783H119.421V114.909H116.152V110.783H106.189V108.448L115.14 96.7465H118.747L110.314 107.929H116.256V104.271H119.421V107.929H122.638V110.783Z" fill="white"/>
<path d="M102.84 480.232V498.394H99.4671V483.06H95.6271V480.232H102.84ZM120.142 480.232V482.489L113.085 498.394H109.479L116.302 483.086H109.167V486.174H106.028V480.232H120.142Z" fill="white"/>
<path d="M490.719 112.054V114.908H477.331V112.65L484.544 105.801C485.357 105.022 485.902 104.348 486.179 103.777C486.473 103.189 486.62 102.609 486.62 102.039C486.62 101.191 486.334 100.542 485.763 100.093C485.193 99.6428 484.354 99.418 483.247 99.418C481.396 99.418 479.978 100.049 478.992 101.312L476.631 99.4958C477.34 98.5445 478.291 97.8093 479.485 97.2904C480.695 96.7542 482.045 96.4861 483.532 96.4861C485.504 96.4861 487.078 96.9531 488.254 97.8872C489.431 98.8212 490.019 100.093 490.019 101.701C490.019 102.687 489.811 103.613 489.396 104.477C488.981 105.342 488.185 106.328 487.009 107.435L482.157 112.054H490.719ZM500.166 115.167C498.713 115.167 497.416 114.804 496.274 114.077C495.133 113.334 494.233 112.261 493.576 110.86C492.919 109.442 492.59 107.764 492.59 105.827C492.59 103.889 492.919 102.22 493.576 100.819C494.233 99.4007 495.133 98.3283 496.274 97.6018C497.416 96.858 498.713 96.4861 500.166 96.4861C501.619 96.4861 502.916 96.858 504.058 97.6018C505.217 98.3283 506.125 99.4007 506.782 100.819C507.44 102.22 507.768 103.889 507.768 105.827C507.768 107.764 507.44 109.442 506.782 110.86C506.125 112.261 505.217 113.334 504.058 114.077C502.916 114.804 501.619 115.167 500.166 115.167ZM500.166 112.235C501.463 112.235 502.484 111.699 503.228 110.627C503.989 109.554 504.369 107.954 504.369 105.827C504.369 103.699 503.989 102.099 503.228 101.027C502.484 99.9542 501.463 99.418 500.166 99.418C498.886 99.418 497.866 99.9542 497.104 101.027C496.361 102.099 495.989 103.699 495.989 105.827C495.989 107.954 496.361 109.554 497.104 110.627C497.866 111.699 498.886 112.235 500.166 112.235Z" fill="white"/>
<path d="M492.828 487.262C495.388 487.262 497.282 487.764 498.51 488.767C499.739 489.753 500.353 491.102 500.353 492.815C500.353 493.904 500.085 494.89 499.548 495.773C499.012 496.655 498.208 497.355 497.135 497.874C496.063 498.393 494.74 498.653 493.166 498.653C491.868 498.653 490.614 498.471 489.403 498.108C488.193 497.727 487.172 497.208 486.342 496.551L487.769 493.93C488.443 494.484 489.248 494.925 490.182 495.254C491.133 495.565 492.11 495.721 493.114 495.721C494.307 495.721 495.241 495.478 495.916 494.994C496.608 494.493 496.954 493.809 496.954 492.944C496.954 492.01 496.582 491.31 495.838 490.843C495.112 490.358 493.858 490.116 492.076 490.116H487.691L488.625 480.231H499.289V483.059H491.479L491.09 487.262H492.828Z" fill="white"/>
<path d="M565.582 287.571V305.733H562.209V290.399H558.369V287.571H565.582ZM580.964 296.185C581.916 296.617 582.642 297.205 583.144 297.949C583.663 298.676 583.922 299.532 583.922 300.518C583.922 301.625 583.611 302.593 582.988 303.424C582.383 304.254 581.518 304.894 580.393 305.344C579.269 305.776 577.963 305.992 576.476 305.992C574.988 305.992 573.682 305.776 572.558 305.344C571.451 304.894 570.594 304.254 569.989 303.424C569.384 302.593 569.081 301.625 569.081 300.518C569.081 299.532 569.332 298.676 569.833 297.949C570.335 297.205 571.053 296.617 571.987 296.185C571.26 295.787 570.698 295.268 570.3 294.628C569.92 293.971 569.73 293.218 569.73 292.371C569.73 291.35 570.006 290.459 570.56 289.698C571.131 288.937 571.926 288.349 572.947 287.934C573.967 287.519 575.144 287.311 576.476 287.311C577.825 287.311 579.01 287.519 580.03 287.934C581.051 288.349 581.846 288.937 582.417 289.698C582.988 290.459 583.273 291.35 583.273 292.371C583.273 293.218 583.074 293.962 582.677 294.602C582.279 295.242 581.708 295.77 580.964 296.185ZM576.476 289.958C575.42 289.958 574.582 290.183 573.959 290.632C573.353 291.082 573.051 291.713 573.051 292.526C573.051 293.305 573.353 293.928 573.959 294.395C574.582 294.844 575.42 295.069 576.476 295.069C577.548 295.069 578.396 294.844 579.018 294.395C579.641 293.928 579.952 293.305 579.952 292.526C579.952 291.713 579.632 291.082 578.992 290.632C578.37 290.183 577.531 289.958 576.476 289.958ZM576.476 303.346C577.721 303.346 578.707 303.086 579.433 302.568C580.16 302.049 580.523 301.331 580.523 300.414C580.523 299.515 580.16 298.805 579.433 298.286C578.707 297.768 577.721 297.508 576.476 297.508C575.23 297.508 574.253 297.768 573.544 298.286C572.834 298.805 572.48 299.515 572.48 300.414C572.48 301.331 572.834 302.049 573.544 302.568C574.253 303.086 575.23 303.346 576.476 303.346Z" fill="white"/>
<path d="M350.453 291.617V305.239H347.924V293.738H345.044V291.617H350.453ZM357.865 291.617V305.239H355.335V293.738H352.455V291.617H357.865Z" fill="white"/>
<path d="M295.257 73.268V86.8896H292.727V75.3891H289.847V73.268H295.257ZM310.102 83.7956H307.689V86.8896H305.237V83.7956H297.764V82.0442L304.478 73.268H307.183L300.858 81.6551H305.315V78.9113H307.689V81.6551H310.102V83.7956Z" fill="white"/>
<path d="M297.626 521.446V523.587H287.585V521.894L292.995 516.757C293.605 516.173 294.013 515.667 294.221 515.239C294.441 514.798 294.552 514.363 294.552 513.935C294.552 513.299 294.337 512.813 293.909 512.476C293.481 512.138 292.852 511.97 292.022 511.97C290.634 511.97 289.57 512.443 288.83 513.39L287.06 512.028C287.592 511.314 288.305 510.763 289.2 510.374C290.108 509.972 291.12 509.771 292.236 509.771C293.715 509.771 294.895 510.121 295.777 510.822C296.66 511.522 297.101 512.476 297.101 513.682C297.101 514.422 296.945 515.116 296.634 515.764C296.322 516.413 295.726 517.152 294.843 517.983L291.205 521.446H297.626ZM304.711 523.782C303.622 523.782 302.649 523.509 301.792 522.964C300.936 522.406 300.262 521.602 299.769 520.551C299.276 519.487 299.029 518.229 299.029 516.776C299.029 515.323 299.276 514.071 299.769 513.02C300.262 511.957 300.936 511.152 301.792 510.607C302.649 510.05 303.622 509.771 304.711 509.771C305.801 509.771 306.774 510.05 307.63 510.607C308.499 511.152 309.181 511.957 309.674 513.02C310.166 514.071 310.413 515.323 310.413 516.776C310.413 518.229 310.166 519.487 309.674 520.551C309.181 521.602 308.499 522.406 307.63 522.964C306.774 523.509 305.801 523.782 304.711 523.782ZM304.711 521.583C305.684 521.583 306.45 521.18 307.008 520.376C307.578 519.572 307.864 518.372 307.864 516.776C307.864 515.18 307.578 513.98 307.008 513.176C306.45 512.372 305.684 511.97 304.711 511.97C303.751 511.97 302.986 512.372 302.415 513.176C301.857 513.98 301.578 515.18 301.578 516.776C301.578 518.372 301.857 519.572 302.415 520.376C302.986 521.18 303.751 521.583 304.711 521.583Z" fill="white"/>
<path d="M144.309 445.551C146.177 445.551 147.624 446.135 148.649 447.302C149.686 448.47 150.205 450.143 150.205 452.323C150.205 453.854 149.926 455.164 149.369 456.254C148.811 457.33 148.026 458.154 147.014 458.725C146.015 459.283 144.854 459.562 143.531 459.562C142.83 459.562 142.169 459.49 141.546 459.348C140.936 459.192 140.404 458.972 139.95 458.686L140.884 456.779C141.559 457.22 142.422 457.441 143.472 457.441C144.783 457.441 145.807 457.039 146.547 456.234C147.286 455.43 147.656 454.269 147.656 452.751V452.732C147.254 453.199 146.742 453.555 146.119 453.802C145.496 454.035 144.796 454.152 144.017 454.152C143.122 454.152 142.318 453.983 141.604 453.646C140.891 453.296 140.333 452.803 139.931 452.167C139.529 451.532 139.327 450.799 139.327 449.968C139.327 449.086 139.548 448.314 139.989 447.653C140.43 446.978 141.027 446.459 141.779 446.096C142.532 445.733 143.375 445.551 144.309 445.551ZM144.504 452.167C145.321 452.167 145.983 451.947 146.489 451.506C147.007 451.064 147.267 450.507 147.267 449.832C147.267 449.17 147.014 448.626 146.508 448.197C146.015 447.756 145.327 447.536 144.445 447.536C143.654 447.536 143.012 447.75 142.519 448.178C142.026 448.593 141.779 449.151 141.779 449.852C141.779 450.565 142.026 451.129 142.519 451.544C143.012 451.96 143.673 452.167 144.504 452.167Z" fill="white"/>
<path d="M146.312 147.135V149.275H136.271V147.582L141.681 142.445C142.29 141.861 142.699 141.355 142.906 140.927C143.127 140.486 143.237 140.052 143.237 139.623C143.237 138.988 143.023 138.501 142.595 138.164C142.167 137.827 141.538 137.658 140.708 137.658C139.319 137.658 138.256 138.132 137.516 139.079L135.745 137.716C136.277 137.003 136.991 136.452 137.886 136.062C138.794 135.66 139.806 135.459 140.922 135.459C142.401 135.459 143.581 135.809 144.463 136.51C145.345 137.211 145.786 138.164 145.786 139.371C145.786 140.11 145.631 140.804 145.319 141.453C145.008 142.101 144.411 142.841 143.529 143.671L139.89 147.135H146.312ZM152.481 135.654V149.275H149.951V137.775H147.071V135.654H152.481Z" fill="white"/>
<path d="M458.238 457.227V459.367H448.197V457.674L453.606 452.537C454.216 451.953 454.625 451.447 454.832 451.019C455.053 450.578 455.163 450.143 455.163 449.715C455.163 449.08 454.949 448.593 454.521 448.256C454.093 447.919 453.464 447.75 452.633 447.75C451.245 447.75 450.181 448.223 449.442 449.17L447.671 447.808C448.203 447.095 448.917 446.543 449.812 446.154C450.72 445.752 451.732 445.551 452.847 445.551C454.326 445.551 455.507 445.901 456.389 446.602C457.271 447.302 457.712 448.256 457.712 449.462C457.712 450.202 457.557 450.896 457.245 451.544C456.934 452.193 456.337 452.933 455.455 453.763L451.816 457.227H458.238ZM464.407 445.746V459.367H461.877V447.867H458.997V445.746H464.407Z" fill="white"/>
<path d="M457.827 140.869C458.722 140.869 459.526 141.044 460.24 141.394C460.953 141.732 461.511 142.218 461.913 142.854C462.315 143.489 462.516 144.222 462.516 145.053C462.516 145.935 462.296 146.713 461.855 147.388C461.414 148.049 460.817 148.562 460.064 148.925C459.312 149.288 458.469 149.47 457.535 149.47C455.667 149.47 454.214 148.886 453.176 147.719C452.151 146.551 451.639 144.878 451.639 142.698C451.639 141.167 451.917 139.863 452.475 138.787C453.033 137.697 453.812 136.873 454.81 136.315C455.822 135.745 456.99 135.459 458.313 135.459C459.014 135.459 459.669 135.537 460.279 135.693C460.901 135.835 461.44 136.049 461.894 136.335L460.96 138.242C460.285 137.801 459.422 137.58 458.372 137.58C457.061 137.58 456.036 137.982 455.297 138.787C454.557 139.591 454.188 140.752 454.188 142.27V142.289C454.59 141.822 455.102 141.472 455.725 141.239C456.348 140.992 457.048 140.869 457.827 140.869ZM457.399 147.485C458.19 147.485 458.832 147.278 459.325 146.862C459.818 146.434 460.064 145.87 460.064 145.169C460.064 144.456 459.818 143.892 459.325 143.476C458.832 143.061 458.17 142.854 457.34 142.854C456.523 142.854 455.855 143.074 455.336 143.515C454.83 143.956 454.577 144.514 454.577 145.189C454.577 145.851 454.823 146.402 455.316 146.843C455.822 147.271 456.516 147.485 457.399 147.485Z" fill="white"/>
<path d="M513.665 291.617V305.239H511.136V293.738H508.256V291.617H513.665ZM522.05 305.433C520.96 305.433 519.987 305.161 519.131 304.616C518.275 304.058 517.6 303.254 517.107 302.203C516.614 301.139 516.368 299.881 516.368 298.428C516.368 296.975 516.614 295.723 517.107 294.672C517.6 293.608 518.275 292.804 519.131 292.259C519.987 291.701 520.96 291.423 522.05 291.423C523.139 291.423 524.112 291.701 524.969 292.259C525.838 292.804 526.519 293.608 527.012 294.672C527.505 295.723 527.751 296.975 527.751 298.428C527.751 299.881 527.505 301.139 527.012 302.203C526.519 303.254 525.838 304.058 524.969 304.616C524.112 305.161 523.139 305.433 522.05 305.433ZM522.05 303.234C523.023 303.234 523.788 302.832 524.346 302.028C524.917 301.224 525.202 300.024 525.202 298.428C525.202 296.832 524.917 295.632 524.346 294.828C523.788 294.024 523.023 293.621 522.05 293.621C521.09 293.621 520.324 294.024 519.754 294.828C519.196 295.632 518.917 296.832 518.917 298.428C518.917 300.024 519.196 301.224 519.754 302.028C520.324 302.832 521.09 303.234 522.05 303.234Z" fill="white"/>
<path d="M85.9491 291.617V293.31L80.6562 305.239H77.9513L83.0691 293.758H77.7178V296.073H75.3632V291.617H85.9491Z" fill="white"/>
<path d="M119.733 302.302V303.908H112.202V302.638L116.259 298.785C116.716 298.347 117.023 297.968 117.179 297.647C117.344 297.316 117.427 296.99 117.427 296.669C117.427 296.192 117.266 295.827 116.945 295.574C116.624 295.321 116.152 295.195 115.529 295.195C114.488 295.195 113.69 295.55 113.136 296.26L111.808 295.239C112.207 294.703 112.742 294.29 113.413 293.998C114.094 293.696 114.853 293.546 115.69 293.546C116.799 293.546 117.684 293.808 118.346 294.334C119.008 294.859 119.339 295.574 119.339 296.479C119.339 297.034 119.222 297.554 118.988 298.041C118.755 298.527 118.307 299.082 117.646 299.704L114.916 302.302H119.733ZM128.227 302.302V303.908H120.696V302.638L124.754 298.785C125.211 298.347 125.517 297.968 125.673 297.647C125.838 297.316 125.921 296.99 125.921 296.669C125.921 296.192 125.761 295.827 125.44 295.574C125.118 295.321 124.647 295.195 124.024 295.195C122.983 295.195 122.185 295.55 121.63 296.26L120.302 295.239C120.701 294.703 121.236 294.29 121.908 293.998C122.589 293.696 123.348 293.546 124.184 293.546C125.294 293.546 126.179 293.808 126.841 294.334C127.502 294.859 127.833 295.574 127.833 296.479C127.833 297.034 127.716 297.554 127.483 298.041C127.249 298.527 126.802 299.082 126.14 299.704L123.411 302.302H128.227Z" fill="white"/>
<path d="M203.249 297.647C204.689 297.647 205.755 297.929 206.446 298.493C207.136 299.048 207.482 299.807 207.482 300.77C207.482 301.383 207.331 301.937 207.029 302.434C206.728 302.93 206.275 303.324 205.672 303.616C205.069 303.908 204.325 304.054 203.439 304.054C202.709 304.054 202.004 303.951 201.323 303.747C200.642 303.533 200.068 303.241 199.601 302.871L200.403 301.397C200.783 301.709 201.235 301.957 201.761 302.142C202.296 302.317 202.846 302.404 203.41 302.404C204.081 302.404 204.607 302.268 204.986 301.996C205.375 301.714 205.57 301.329 205.57 300.843C205.57 300.317 205.361 299.923 204.942 299.661C204.534 299.388 203.828 299.252 202.826 299.252H200.36L200.885 293.691H206.883V295.282H202.491L202.272 297.647H203.249Z" fill="white"/>
<path d="M176.386 165.252V166.522L172.416 175.468H170.387L174.226 166.857H170.212V168.594H168.446V165.252H176.386Z" fill="white"/>
<path d="M168.964 420.297V430.514H167.067V421.888H164.907V420.297H168.964ZM175.252 430.66C174.435 430.66 173.705 430.455 173.063 430.047C172.421 429.628 171.915 429.025 171.545 428.237C171.175 427.439 170.99 426.495 170.99 425.406C170.99 424.316 171.175 423.377 171.545 422.589C171.915 421.791 172.421 421.188 173.063 420.779C173.705 420.361 174.435 420.152 175.252 420.152C176.069 420.152 176.799 420.361 177.441 420.779C178.093 421.188 178.604 421.791 178.974 422.589C179.343 423.377 179.528 424.316 179.528 425.406C179.528 426.495 179.343 427.439 178.974 428.237C178.604 429.025 178.093 429.628 177.441 430.047C176.799 430.455 176.069 430.66 175.252 430.66ZM175.252 429.01C175.982 429.01 176.556 428.709 176.974 428.106C177.402 427.502 177.616 426.602 177.616 425.406C177.616 424.209 177.402 423.309 176.974 422.706C176.556 422.102 175.982 421.801 175.252 421.801C174.532 421.801 173.958 422.102 173.53 422.706C173.111 423.309 172.902 424.209 172.902 425.406C172.902 426.602 173.111 427.502 173.53 428.106C173.958 428.709 174.532 429.01 175.252 429.01Z" fill="white"/>
<path d="M433.238 173.148H431.428V175.468H429.589V173.148H423.985V171.834L429.02 165.252H431.049L426.306 171.542H429.648V169.484H431.428V171.542H433.238V173.148Z" fill="white"/>
<path d="M426.178 420.297V430.514H424.28V421.888H422.12V420.297H426.178ZM432.845 424.209C433.517 424.209 434.12 424.34 434.655 424.603C435.19 424.856 435.609 425.221 435.91 425.697C436.212 426.174 436.363 426.724 436.363 427.347C436.363 428.008 436.197 428.592 435.866 429.098C435.536 429.594 435.088 429.979 434.524 430.251C433.959 430.523 433.327 430.66 432.626 430.66C431.225 430.66 430.136 430.222 429.357 429.346C428.589 428.47 428.204 427.215 428.204 425.581C428.204 424.433 428.413 423.455 428.832 422.647C429.25 421.83 429.834 421.212 430.583 420.794C431.342 420.366 432.218 420.152 433.21 420.152C433.736 420.152 434.227 420.21 434.684 420.327C435.151 420.434 435.555 420.594 435.896 420.808L435.195 422.239C434.689 421.908 434.042 421.742 433.254 421.742C432.271 421.742 431.503 422.044 430.948 422.647C430.393 423.25 430.116 424.121 430.116 425.26V425.274C430.418 424.924 430.802 424.661 431.269 424.486C431.736 424.301 432.262 424.209 432.845 424.209ZM432.524 429.171C433.118 429.171 433.599 429.015 433.969 428.704C434.339 428.383 434.524 427.96 434.524 427.434C434.524 426.899 434.339 426.476 433.969 426.164C433.599 425.853 433.103 425.697 432.48 425.697C431.867 425.697 431.366 425.863 430.977 426.194C430.598 426.524 430.408 426.943 430.408 427.449C430.408 427.945 430.593 428.359 430.963 428.689C431.342 429.01 431.863 429.171 432.524 429.171Z" fill="white"/>
<path d="M390.924 302.302V303.908H383.394V302.638L387.451 298.785C387.908 298.347 388.215 297.968 388.37 297.647C388.536 297.316 388.618 296.99 388.618 296.669C388.618 296.192 388.458 295.827 388.137 295.574C387.816 295.321 387.344 295.195 386.721 295.195C385.68 295.195 384.882 295.55 384.328 296.26L382.999 295.239C383.398 294.703 383.934 294.29 384.605 293.998C385.286 293.696 386.045 293.546 386.882 293.546C387.991 293.546 388.876 293.808 389.538 294.334C390.199 294.859 390.53 295.574 390.53 296.479C390.53 297.034 390.414 297.554 390.18 298.041C389.947 298.527 389.499 299.082 388.837 299.704L386.108 302.302H390.924ZM395.551 293.691V303.908H393.654V295.282H391.494V293.691H395.551Z" fill="white"/>
<path d="M299.549 205.055V206.66H292.018V205.39L296.075 201.537C296.533 201.1 296.839 200.72 296.995 200.399C297.16 200.068 297.243 199.742 297.243 199.421C297.243 198.944 297.083 198.58 296.761 198.327C296.44 198.074 295.968 197.947 295.346 197.947C294.305 197.947 293.507 198.302 292.952 199.013L291.624 197.991C292.023 197.456 292.558 197.042 293.23 196.75C293.911 196.449 294.67 196.298 295.506 196.298C296.615 196.298 297.501 196.561 298.163 197.086C298.824 197.612 299.155 198.327 299.155 199.232C299.155 199.786 299.038 200.307 298.805 200.793C298.571 201.28 298.124 201.834 297.462 202.457L294.733 205.055H299.549ZM308.044 205.055V206.66H300.513V205.39L304.57 201.537C305.027 201.1 305.334 200.72 305.489 200.399C305.655 200.068 305.738 199.742 305.738 199.421C305.738 198.944 305.577 198.58 305.256 198.327C304.935 198.074 304.463 197.947 303.84 197.947C302.799 197.947 302.001 198.302 301.447 199.013L300.119 197.991C300.518 197.456 301.053 197.042 301.724 196.75C302.405 196.449 303.164 196.298 304.001 196.298C305.11 196.298 305.995 196.561 306.657 197.086C307.319 197.612 307.649 198.327 307.649 199.232C307.649 199.786 307.533 200.307 307.299 200.793C307.066 201.28 306.618 201.834 305.956 202.457L303.227 205.055H308.044Z" fill="white"/>
<path d="M297.136 473.509V483.725H295.239V475.1H293.079V473.509H297.136ZM302.359 477.464C303.799 477.464 304.864 477.746 305.555 478.311C306.246 478.865 306.592 479.624 306.592 480.587C306.592 481.2 306.441 481.755 306.139 482.251C305.837 482.747 305.385 483.141 304.782 483.433C304.179 483.725 303.434 483.871 302.549 483.871C301.819 483.871 301.114 483.769 300.433 483.565C299.752 483.351 299.177 483.059 298.71 482.689L299.513 481.215C299.893 481.526 300.345 481.774 300.87 481.959C301.406 482.134 301.955 482.222 302.52 482.222C303.191 482.222 303.716 482.086 304.096 481.813C304.485 481.531 304.68 481.147 304.68 480.66C304.68 480.135 304.47 479.741 304.052 479.478C303.643 479.206 302.938 479.069 301.936 479.069H299.469L299.995 473.509H305.993V475.1H301.6L301.381 477.464H302.359Z" fill="white"/>
<path d="M345.42 439.918V441.523H337.889V440.254L341.947 436.401C342.404 435.963 342.71 435.583 342.866 435.262C343.031 434.932 343.114 434.606 343.114 434.285C343.114 433.808 342.954 433.443 342.633 433.19C342.311 432.937 341.84 432.81 341.217 432.81C340.176 432.81 339.378 433.166 338.823 433.876L337.495 432.854C337.894 432.319 338.429 431.906 339.101 431.614C339.782 431.312 340.541 431.161 341.377 431.161C342.487 431.161 343.372 431.424 344.034 431.949C344.695 432.475 345.026 433.19 345.026 434.095C345.026 434.649 344.909 435.17 344.676 435.656C344.442 436.143 343.995 436.697 343.333 437.32L340.604 439.918H345.42ZM353.915 439.918V441.523H346.384V440.254L350.441 436.401C350.898 435.963 351.205 435.583 351.361 435.262C351.526 434.932 351.609 434.606 351.609 434.285C351.609 433.808 351.448 433.443 351.127 433.19C350.806 432.937 350.334 432.81 349.711 432.81C348.67 432.81 347.872 433.166 347.318 433.876L345.99 432.854C346.389 432.319 346.924 431.906 347.595 431.614C348.276 431.312 349.035 431.161 349.872 431.161C350.981 431.161 351.867 431.424 352.528 431.949C353.19 432.475 353.521 433.19 353.521 434.095C353.521 434.649 353.404 435.17 353.17 435.656C352.937 436.143 352.489 436.697 351.828 437.32L349.098 439.918H353.915Z" fill="white"/>
<path d="M396.573 383.6V384.87L392.603 393.816H390.575L394.413 385.206H390.4V386.942H388.634V383.6H396.573Z" fill="white"/>
<path d="M434.571 339.564V349.78H432.674V341.155H430.514V339.564H434.571ZM444.304 339.564V340.834L440.334 349.78H438.306L442.144 341.169H438.13V342.906H436.364V339.564H444.304Z" fill="white"/>
<path d="M301.018 120.651V122.257H293.487V120.987L297.545 117.134C298.002 116.696 298.308 116.317 298.464 115.996C298.629 115.665 298.712 115.339 298.712 115.018C298.712 114.541 298.552 114.176 298.231 113.923C297.909 113.67 297.438 113.544 296.815 113.544C295.774 113.544 294.976 113.899 294.421 114.609L293.093 113.588C293.492 113.053 294.027 112.639 294.699 112.347C295.38 112.045 296.139 111.895 296.975 111.895C298.085 111.895 298.97 112.157 299.632 112.683C300.293 113.208 300.624 113.923 300.624 114.828C300.624 115.383 300.507 115.903 300.274 116.39C300.04 116.876 299.593 117.431 298.931 118.054L296.202 120.651H301.018ZM305.645 112.041V122.257H303.748V113.631H301.588V112.041H305.645Z" fill="white"/>
<path d="M477.218 293.691V303.908H475.32V295.282H473.16V293.691H477.218ZM483.506 304.054C482.689 304.054 481.959 303.849 481.317 303.441C480.675 303.022 480.169 302.419 479.799 301.631C479.429 300.833 479.244 299.889 479.244 298.8C479.244 297.71 479.429 296.771 479.799 295.983C480.169 295.185 480.675 294.582 481.317 294.173C481.959 293.755 482.689 293.546 483.506 293.546C484.323 293.546 485.053 293.755 485.695 294.173C486.347 294.582 486.858 295.185 487.228 295.983C487.597 296.771 487.782 297.71 487.782 298.8C487.782 299.889 487.597 300.833 487.228 301.631C486.858 302.419 486.347 303.022 485.695 303.441C485.053 303.849 484.323 304.054 483.506 304.054ZM483.506 302.404C484.236 302.404 484.81 302.103 485.228 301.5C485.656 300.896 485.87 299.996 485.87 298.8C485.87 297.603 485.656 296.703 485.228 296.1C484.81 295.496 484.236 295.195 483.506 295.195C482.786 295.195 482.212 295.496 481.784 296.1C481.365 296.703 481.156 297.603 481.156 298.8C481.156 299.996 481.365 300.896 481.784 301.5C482.212 302.103 482.786 302.404 483.506 302.404Z" fill="white"/>
</svg>
