<svg width="344" height="538" viewBox="0 0 344 538" fill="none" xmlns="http://www.w3.org/2000/svg">
<path d="M87.72 25H95.112V24.856L92.448 24.376V17.536L94.584 17.512C95.496 17.44 100.92 17.008 100.896 12.136C100.896 9.4 98.688 8.104 95.28 8.176L87.96 8.2V8.344L90.048 8.824V24.376L87.72 24.856V25ZM92.448 16.6V8.92C92.664 8.728 94.272 8.632 94.68 8.608C97.464 8.632 98.712 10.456 98.712 12.64C98.712 15.496 97.488 16.984 95.112 16.984C94.392 16.984 93.408 16.864 92.448 16.6ZM109.681 22.24C109.081 22.912 107.953 23.776 106.585 23.776C103.753 23.776 102.217 21.544 102.169 18.736L109.825 18.688C109.777 15.04 108.769 13.336 105.385 13.432C102.265 14.104 100.225 16.432 100.225 19.552C100.225 22.84 102.025 25.216 105.001 25.216C105.433 25.216 105.793 25.192 106.225 25.072C107.665 24.352 108.913 23.512 109.945 22.48L109.681 22.24ZM104.833 14.104C106.369 14.056 107.617 15.4 107.617 17.92C107.617 18.016 107.569 18.16 107.521 18.28L102.169 18.52C102.169 15.832 102.625 14.176 104.833 14.104ZM110.489 25H115.913V24.88L114.233 24.616V16.312C115.169 15.16 116.033 15.28 116.633 15.496C116.993 15.64 117.353 15.832 117.737 16.264L119.177 14.488C118.745 14.056 118.025 13.6 116.969 13.552C116.513 13.696 115.073 14.848 114.041 16.144H113.945L114.161 13.768L113.873 13.72H110.945V13.864L112.097 14.152V24.616L110.489 24.88V25ZM119.43 23.872C119.838 24.28 121.734 25.336 123.006 25.336C125.55 24.904 127.302 23.8 127.302 21.544C127.35 18.544 120.942 17.824 120.942 15.64C120.942 14.68 121.446 14.008 122.622 13.936C123.774 13.96 124.566 14.392 125.238 15.064L126.702 16.768H126.87L126.366 14.296C125.238 13.864 123.942 13.456 123.294 13.432C120.942 13.864 119.43 15.304 119.43 16.96C119.43 20.008 125.526 20.32 125.526 22.576C125.526 24.28 124.638 24.88 123.606 24.88C122.694 24.856 121.494 24.184 120.774 23.536L119.646 21.064L119.478 21.088L119.43 23.872ZM139.56 19.144C139.56 15.616 137.736 13.504 134.208 13.432C132.768 13.552 128.256 16.048 128.256 19.528C128.256 23.056 130.008 25.312 133.536 25.312C134.64 25.192 139.56 23.344 139.56 19.144ZM134.352 24.52C132.744 24.52 130.464 22.408 130.464 18.856C130.464 16.552 131.088 14.368 133.392 14.368C135.168 14.368 137.352 16.744 137.352 20.056C137.352 21.64 136.656 24.52 134.352 24.52ZM140.02 13.864L141.652 14.272V24.616L140.044 24.88V25H145.42V24.88L143.788 24.616V16.312C144.988 15.16 146.38 15.088 146.98 15.088C148.036 15.088 148.924 15.76 148.924 18.232V24.616L147.292 24.88V25H152.668V24.88L151.06 24.616V17.848C151.06 15.112 150.052 13.576 147.316 13.432C146.86 13.456 144.892 14.848 143.596 16.144H143.5L143.716 13.768L143.428 13.72H140.02V13.864ZM153.146 19.672C153.146 23.464 154.946 25.312 157.442 25.312C158.45 24.904 159.962 23.32 161.042 22H161.162L161.114 25H164.69V24.88L163.082 24.616L163.106 14.536C162.506 14.008 161.21 13.432 158.906 13.432C157.298 13.936 153.146 15.928 153.146 19.672ZM155.186 18.808C155.186 15.808 156.098 14.44 158.354 14.44C159.386 14.44 160.226 14.992 160.946 15.88L160.898 21.856C160.034 22.84 159.026 23.584 158.162 23.584C156.77 23.584 155.186 21.76 155.186 18.808ZM165.075 25H170.403V24.88L168.819 24.616V7.024L168.531 7L165.075 7.24V7.384L166.683 7.552V24.616L165.075 24.88V25ZM177.04 25H184.432V24.856L181.768 24.376V17.536L183.904 17.512C184.816 17.44 190.24 17.008 190.216 12.136C190.216 9.4 188.008 8.104 184.6 8.176L177.28 8.2V8.344L179.368 8.824V24.376L177.04 24.856V25ZM181.768 16.6V8.92C181.984 8.728 183.592 8.632 184 8.608C186.784 8.632 188.032 10.456 188.032 12.64C188.032 15.496 186.808 16.984 184.432 16.984C183.712 16.984 182.728 16.864 181.768 16.6ZM190.669 14.248L192.373 14.392V20.944C192.373 23.68 193.381 25.144 196.117 25.288C196.573 25.264 198.781 23.728 199.837 22.408H199.933L199.717 24.952L200.005 25H203.413V24.856L201.781 24.448V13.72H197.989V13.84L199.645 14.104V22.24C198.685 23.392 197.053 23.632 196.453 23.632C195.397 23.632 194.509 22.984 194.509 20.512V13.72L190.669 14.128V14.248ZM212.242 31H218.266L218.242 30.832L216.37 30.4V25.072C216.97 25.24 217.69 25.336 218.578 25.336C220.186 24.832 224.41 22.696 224.41 18.952C224.41 15.16 222.538 13.432 220.042 13.432C218.938 13.864 217.258 15.952 216.154 17.368H216.082L216.37 13.72H212.65V13.84L214.258 14.128L214.234 21.04V30.376L212.242 30.832V31ZM203.794 25H209.218V24.88L207.538 24.616V16.312C208.474 15.16 209.338 15.28 209.938 15.496C210.298 15.64 210.658 15.832 211.042 16.264L212.482 14.488C212.05 14.056 211.33 13.6 210.274 13.552C209.818 13.696 208.378 14.848 207.346 16.144H207.25L207.466 13.768L207.178 13.72H204.25V13.864L205.402 14.152V24.616L203.794 24.88V25ZM216.37 22.384V17.416C217.282 16.264 218.338 15.088 219.274 15.088C220.666 15.088 222.37 16.984 222.37 19.936C222.37 22.936 221.386 24.28 219.13 24.28C218.074 24.28 216.37 23.224 216.37 22.384ZM236.498 19.144C236.498 15.616 234.674 13.504 231.146 13.432C229.706 13.552 225.194 16.048 225.194 19.528C225.194 23.056 226.946 25.312 230.474 25.312C231.578 25.192 236.498 23.344 236.498 19.144ZM231.29 24.52C229.682 24.52 227.402 22.408 227.402 18.856C227.402 16.552 228.026 14.368 230.33 14.368C232.106 14.368 234.29 16.744 234.29 20.056C234.29 21.64 233.594 24.52 231.29 24.52ZM237.462 23.872C237.87 24.28 239.766 25.336 241.038 25.336C243.582 24.904 245.334 23.8 245.334 21.544C245.382 18.544 238.974 17.824 238.974 15.64C238.974 14.68 239.478 14.008 240.654 13.936C241.806 13.96 242.598 14.392 243.27 15.064L244.734 16.768H244.902L244.398 14.296C243.27 13.864 241.974 13.456 241.326 13.432C238.974 13.864 237.462 15.304 237.462 16.96C237.462 20.008 243.558 20.32 243.558 22.576C243.558 24.28 242.67 24.88 241.638 24.88C240.726 24.856 239.526 24.184 238.806 23.536L237.678 21.064L237.51 21.088L237.462 23.872ZM255.743 22.24C255.143 22.912 254.015 23.776 252.647 23.776C249.815 23.776 248.279 21.544 248.231 18.736L255.887 18.688C255.839 15.04 254.831 13.336 251.447 13.432C248.327 14.104 246.287 16.432 246.287 19.552C246.287 22.84 248.087 25.216 251.063 25.216C251.495 25.216 251.855 25.192 252.287 25.072C253.727 24.352 254.975 23.512 256.007 22.48L255.743 22.24ZM250.895 14.104C252.431 14.056 253.679 15.4 253.679 17.92C253.679 18.016 253.631 18.16 253.583 18.28L248.231 18.52C248.231 15.832 248.687 14.176 250.895 14.104Z" fill="white"/>
<path d="M312 58.75C299.159 58.75 288.75 69.1594 288.75 82C288.75 94.8406 299.159 105.25 312 105.25C324.841 105.25 335.25 94.8406 335.25 82C335.25 69.1594 324.841 58.75 312 58.75Z" fill="#161616" stroke="#646464" stroke-width="1.5"/>
<path d="M311.964 76.64C313.5 76.64 314.69 77.12 315.532 78.08C316.386 79.04 316.812 80.416 316.812 82.208C316.812 83.4667 316.583 84.544 316.124 85.44C315.666 86.3253 315.02 87.0027 314.188 87.472C313.367 87.9307 312.412 88.16 311.324 88.16C310.748 88.16 310.204 88.1013 309.692 87.984C309.191 87.856 308.754 87.6747 308.38 87.44L309.148 85.872C309.703 86.2347 310.412 86.416 311.276 86.416C312.354 86.416 313.196 86.0853 313.804 85.424C314.412 84.7627 314.716 83.808 314.716 82.56V82.544C314.386 82.928 313.964 83.2213 313.452 83.424C312.94 83.616 312.364 83.712 311.724 83.712C310.988 83.712 310.327 83.5733 309.74 83.296C309.154 83.008 308.695 82.6027 308.364 82.08C308.034 81.5573 307.868 80.9547 307.868 80.272C307.868 79.5467 308.05 78.912 308.412 78.368C308.775 77.8133 309.266 77.3867 309.884 77.088C310.503 76.7893 311.196 76.64 311.964 76.64ZM312.124 82.08C312.796 82.08 313.34 81.8987 313.756 81.536C314.183 81.1733 314.396 80.7147 314.396 80.16C314.396 79.616 314.188 79.168 313.772 78.816C313.367 78.4533 312.802 78.272 312.076 78.272C311.426 78.272 310.898 78.448 310.492 78.8C310.087 79.1413 309.884 79.6 309.884 80.176C309.884 80.7627 310.087 81.2267 310.492 81.568C310.898 81.9093 311.442 82.08 312.124 82.08Z" fill="white"/>
<path d="M22.526 88.108C21.59 88.108 20.69 87.958 19.826 87.658C18.974 87.358 18.314 86.962 17.846 86.47L18.368 85.444C18.824 85.9 19.43 86.272 20.186 86.56C20.942 86.836 21.722 86.974 22.526 86.974C23.654 86.974 24.5 86.77 25.064 86.362C25.628 85.942 25.91 85.402 25.91 84.742C25.91 84.238 25.754 83.836 25.442 83.536C25.142 83.236 24.77 83.008 24.326 82.852C23.882 82.684 23.264 82.504 22.472 82.312C21.524 82.072 20.768 81.844 20.204 81.628C19.64 81.4 19.154 81.058 18.746 80.602C18.35 80.146 18.152 79.528 18.152 78.748C18.152 78.112 18.32 77.536 18.656 77.02C18.992 76.492 19.508 76.072 20.204 75.76C20.9 75.448 21.764 75.292 22.796 75.292C23.516 75.292 24.218 75.394 24.902 75.598C25.598 75.79 26.198 76.06 26.702 76.408L26.252 77.47C25.724 77.122 25.16 76.864 24.56 76.696C23.96 76.516 23.372 76.426 22.796 76.426C21.692 76.426 20.858 76.642 20.294 77.074C19.742 77.494 19.466 78.04 19.466 78.712C19.466 79.216 19.616 79.624 19.916 79.936C20.228 80.236 20.612 80.47 21.068 80.638C21.536 80.794 22.16 80.968 22.94 81.16C23.864 81.388 24.608 81.616 25.172 81.844C25.748 82.06 26.234 82.396 26.63 82.852C27.026 83.296 27.224 83.902 27.224 84.67C27.224 85.306 27.05 85.888 26.702 86.416C26.366 86.932 25.844 87.346 25.136 87.658C24.428 87.958 23.558 88.108 22.526 88.108ZM33.3662 83.248L31.1342 85.3V88H29.8562V74.644H31.1342V83.698L36.7862 78.532H38.3702L34.3202 82.402L38.7482 88H37.1822L33.3662 83.248ZM48.1306 78.532L43.3966 89.134C43.0126 90.022 42.5686 90.652 42.0646 91.024C41.5606 91.396 40.9546 91.582 40.2466 91.582C39.7906 91.582 39.3646 91.51 38.9686 91.366C38.5726 91.222 38.2306 91.006 37.9426 90.718L38.5366 89.764C39.0166 90.244 39.5926 90.484 40.2646 90.484C40.6966 90.484 41.0626 90.364 41.3626 90.124C41.6746 89.884 41.9626 89.476 42.2266 88.9L42.6406 87.982L38.4106 78.532H39.7426L43.3066 86.578L46.8706 78.532H48.1306Z" fill="white"/>
<path d="M81 58.75C68.1594 58.75 57.75 69.1594 57.75 82C57.75 94.8406 68.1594 105.25 81 105.25C93.8406 105.25 104.25 94.8406 104.25 82C104.25 69.1594 93.8406 58.75 81 58.75Z" fill="#161616" stroke="#646464" stroke-width="1.5"/>
<path d="M82.1129 86.24V88H73.8569V86.608L78.3049 82.384C78.8062 81.904 79.1422 81.488 79.3129 81.136C79.4942 80.7733 79.5849 80.416 79.5849 80.064C79.5849 79.5413 79.4089 79.1413 79.0569 78.864C78.7049 78.5867 78.1875 78.448 77.5049 78.448C76.3635 78.448 75.4889 78.8373 74.8809 79.616L73.4249 78.496C73.8622 77.9093 74.4489 77.456 75.1849 77.136C75.9315 76.8053 76.7635 76.64 77.6809 76.64C78.8969 76.64 79.8675 76.928 80.5929 77.504C81.3182 78.08 81.6809 78.864 81.6809 79.856C81.6809 80.464 81.5529 81.0347 81.2969 81.568C81.0409 82.1013 80.5502 82.7093 79.8249 83.392L76.8329 86.24H82.1129ZM87.1854 76.8V88H85.1054V78.544H82.7374V76.8H87.1854Z" fill="white"/>
<path d="M158.962 86.848V88H150.052V75.4H158.692V76.552H151.384V81.034H157.9V82.168H151.384V86.848H158.962ZM164.994 78.46C166.23 78.46 167.178 78.772 167.838 79.396C168.498 80.008 168.828 80.92 168.828 82.132V88H167.604V86.524C167.316 87.016 166.89 87.4 166.326 87.676C165.774 87.952 165.114 88.09 164.346 88.09C163.29 88.09 162.45 87.838 161.826 87.334C161.202 86.83 160.89 86.164 160.89 85.336C160.89 84.532 161.178 83.884 161.754 83.392C162.342 82.9 163.272 82.654 164.544 82.654H167.55V82.078C167.55 81.262 167.322 80.644 166.866 80.224C166.41 79.792 165.744 79.576 164.868 79.576C164.268 79.576 163.692 79.678 163.14 79.882C162.588 80.074 162.114 80.344 161.718 80.692L161.142 79.738C161.622 79.33 162.198 79.018 162.87 78.802C163.542 78.574 164.25 78.46 164.994 78.46ZM164.544 87.082C165.264 87.082 165.882 86.92 166.398 86.596C166.914 86.26 167.298 85.78 167.55 85.156V83.608H164.58C162.96 83.608 162.15 84.172 162.15 85.3C162.15 85.852 162.36 86.29 162.78 86.614C163.2 86.926 163.788 87.082 164.544 87.082ZM173.524 80.386C173.824 79.75 174.268 79.27 174.856 78.946C175.456 78.622 176.194 78.46 177.07 78.46V79.702L176.764 79.684C175.768 79.684 174.988 79.99 174.424 80.602C173.86 81.214 173.578 82.072 173.578 83.176V88H172.3V78.532H173.524V80.386ZM184.774 87.424C184.534 87.64 184.234 87.808 183.874 87.928C183.526 88.036 183.16 88.09 182.776 88.09C181.888 88.09 181.204 87.85 180.724 87.37C180.244 86.89 180.004 86.212 180.004 85.336V79.612H178.312V78.532H180.004V76.462H181.282V78.532H184.162V79.612H181.282V85.264C181.282 85.828 181.42 86.26 181.696 86.56C181.984 86.848 182.392 86.992 182.92 86.992C183.184 86.992 183.436 86.95 183.676 86.866C183.928 86.782 184.144 86.662 184.324 86.506L184.774 87.424ZM191.924 78.46C193.112 78.46 194.054 78.808 194.75 79.504C195.458 80.188 195.812 81.19 195.812 82.51V88H194.534V82.636C194.534 81.652 194.288 80.902 193.796 80.386C193.304 79.87 192.602 79.612 191.69 79.612C190.67 79.612 189.86 79.918 189.26 80.53C188.672 81.13 188.378 81.964 188.378 83.032V88H187.1V74.644H188.378V80.188C188.726 79.636 189.206 79.21 189.818 78.91C190.43 78.61 191.132 78.46 191.924 78.46Z" fill="white"/>
<path d="M230 58.75C217.159 58.75 206.75 69.1594 206.75 82C206.75 94.8406 217.159 105.25 230 105.25C242.841 105.25 253.25 94.8406 253.25 82C253.25 69.1594 242.841 58.75 230 58.75Z" fill="#161616" stroke="#646464" stroke-width="1.5"/>
<path d="M226.857 76.8V88H224.777V78.544H222.409V76.8H226.857ZM232.583 81.136C234.162 81.136 235.33 81.4453 236.087 82.064C236.844 82.672 237.223 83.504 237.223 84.56C237.223 85.232 237.058 85.84 236.727 86.384C236.396 86.928 235.9 87.36 235.239 87.68C234.578 88 233.762 88.16 232.791 88.16C231.991 88.16 231.218 88.048 230.471 87.824C229.724 87.5893 229.095 87.2693 228.583 86.864L229.463 85.248C229.879 85.5893 230.375 85.8613 230.951 86.064C231.538 86.256 232.14 86.352 232.759 86.352C233.495 86.352 234.071 86.2027 234.487 85.904C234.914 85.5947 235.127 85.1733 235.127 84.64C235.127 84.064 234.898 83.632 234.439 83.344C233.991 83.0453 233.218 82.896 232.119 82.896H229.415L229.991 76.8H236.567V78.544H231.751L231.511 81.136H232.583Z" fill="white"/>
<path d="M197 162L63 162C61.8954 162 61 161.105 61 160L61 122" stroke="#646464" stroke-width="1.5"/>
<path d="M121 106L121 120C121 121.105 120.105 122 119 122L3 122C1.89543 122 0.999999 121.105 0.999999 120L1 106" stroke="#646464" stroke-width="1.5"/>
<path d="M261 106L261 120C261 121.105 260.105 122 259 122L143 122C141.895 122 141 121.105 141 120L141 106" stroke="#646464" stroke-width="1.5"/>
<path d="M343 106L343 120C343 121.105 342.105 122 341 122L283 122C281.895 122 281 121.105 281 120L281 106" stroke="#646464" stroke-width="1.5"/>
<path d="M312 122L312 160C312 161.105 311.105 162 310 162L193 162" stroke="#646464" stroke-width="1.5"/>
<path d="M201 122V162" stroke="#646464" stroke-width="1.5"/>
<path d="M100.604 233.176C101.204 233.776 104.228 235.336 106.076 235.336C109.82 234.712 112.076 233.08 112.076 229.768C112.076 226.096 102.716 224.776 102.716 220.84C102.716 219.424 104.276 218.512 105.284 218.512C106.964 218.536 108.908 219.52 109.364 220.264L111.212 222.736H111.476L110.78 219.04C109.796 218.536 107.012 217.888 106.268 217.888C102.812 218.512 100.724 220.12 100.724 222.568C100.724 226.552 109.628 227.968 109.628 231.28C109.628 233.776 108.236 234.736 106.724 234.736C104.972 234.712 103.46 233.92 102.74 233.008L100.844 229.096H100.58L100.604 233.176ZM124.709 229.144C124.709 225.616 122.885 223.504 119.357 223.432C117.917 223.552 113.405 226.048 113.405 229.528C113.405 233.056 115.157 235.312 118.685 235.312C119.789 235.192 124.709 233.344 124.709 229.144ZM119.501 234.52C117.893 234.52 115.613 232.408 115.613 228.856C115.613 226.552 116.237 224.368 118.541 224.368C120.317 224.368 122.501 226.744 122.501 230.056C122.501 231.64 121.805 234.52 119.501 234.52ZM125.616 229.768C125.616 233.248 127.872 235.288 131.304 235.312C132.552 234.712 134.544 232.6 134.928 232.024L134.592 231.832C134.208 232.408 133.104 233.824 131.976 233.824C129.312 233.824 127.872 231.52 127.872 228.592C127.872 226.288 128.88 223.816 130.848 223.816C131.784 223.816 132.48 225.856 133.032 226.648C133.848 226.72 134.328 226.672 134.952 226.408C134.904 224.632 133.2 223.432 131.304 223.432C128.184 223.912 125.616 226.648 125.616 229.768ZM138.123 219.952C138.819 219.952 139.371 219.4 139.371 218.68C139.371 217.984 138.819 217.432 138.123 217.432C137.427 217.432 136.875 217.984 136.875 218.68C136.875 219.4 137.427 219.952 138.123 219.952ZM135.387 235H140.715V234.88L139.131 234.616V223.768L138.843 223.72H135.627V223.864L136.995 224.128V234.616L135.387 234.88V235ZM141.154 229.672C141.154 233.464 142.954 235.312 145.45 235.312C146.458 234.904 147.97 233.32 149.05 232H149.17L149.122 235H152.698V234.88L151.09 234.616L151.114 224.536C150.514 224.008 149.218 223.432 146.914 223.432C145.306 223.936 141.154 225.928 141.154 229.672ZM143.194 228.808C143.194 225.808 144.106 224.44 146.362 224.44C147.394 224.44 148.234 224.992 148.954 225.88L148.906 231.856C148.042 232.84 147.034 233.584 146.17 233.584C144.778 233.584 143.194 231.76 143.194 228.808ZM153.083 235H158.411V234.88L156.827 234.616V217.024L156.539 217L153.083 217.24V217.384L154.691 217.552V234.616L153.083 234.88V235ZM165.048 235H172.44V234.856L169.776 234.376V227.536L171.912 227.512C172.824 227.44 178.248 227.008 178.224 222.136C178.224 219.4 176.016 218.104 172.608 218.176L165.288 218.2V218.344L167.376 218.824V234.376L165.048 234.856V235ZM169.776 226.6V218.92C169.992 218.728 171.6 218.632 172.008 218.608C174.792 218.632 176.04 220.456 176.04 222.64C176.04 225.496 174.816 226.984 172.44 226.984C171.72 226.984 170.736 226.864 169.776 226.6ZM178.676 224.248L180.38 224.392V230.944C180.38 233.68 181.388 235.144 184.124 235.288C184.58 235.264 186.788 233.728 187.844 232.408H187.94L187.724 234.952L188.012 235H191.42V234.856L189.788 234.448V223.72H185.996V223.84L187.652 224.104V232.24C186.692 233.392 185.06 233.632 184.46 233.632C183.404 233.632 182.516 232.984 182.516 230.512V223.72L178.676 224.128V224.248ZM200.249 241H206.273L206.249 240.832L204.377 240.4V235.072C204.977 235.24 205.697 235.336 206.585 235.336C208.193 234.832 212.417 232.696 212.417 228.952C212.417 225.16 210.545 223.432 208.049 223.432C206.945 223.864 205.265 225.952 204.161 227.368H204.089L204.377 223.72H200.657V223.84L202.265 224.128L202.241 231.04V240.376L200.249 240.832V241ZM191.801 235H197.225V234.88L195.545 234.616V226.312C196.481 225.16 197.345 225.28 197.945 225.496C198.305 225.64 198.665 225.832 199.049 226.264L200.489 224.488C200.057 224.056 199.337 223.6 198.281 223.552C197.825 223.696 196.385 224.848 195.353 226.144H195.257L195.473 223.768L195.185 223.72H192.257V223.864L193.409 224.152V234.616L191.801 234.88V235ZM204.377 232.384V227.416C205.289 226.264 206.345 225.088 207.281 225.088C208.673 225.088 210.377 226.984 210.377 229.936C210.377 232.936 209.393 234.28 207.137 234.28C206.081 234.28 204.377 233.224 204.377 232.384ZM224.506 229.144C224.506 225.616 222.682 223.504 219.154 223.432C217.714 223.552 213.202 226.048 213.202 229.528C213.202 233.056 214.954 235.312 218.482 235.312C219.586 235.192 224.506 233.344 224.506 229.144ZM219.298 234.52C217.69 234.52 215.41 232.408 215.41 228.856C215.41 226.552 216.034 224.368 218.338 224.368C220.114 224.368 222.298 226.744 222.298 230.056C222.298 231.64 221.602 234.52 219.298 234.52ZM225.469 233.872C225.877 234.28 227.773 235.336 229.045 235.336C231.589 234.904 233.341 233.8 233.341 231.544C233.389 228.544 226.981 227.824 226.981 225.64C226.981 224.68 227.485 224.008 228.661 223.936C229.813 223.96 230.605 224.392 231.277 225.064L232.741 226.768H232.909L232.405 224.296C231.277 223.864 229.981 223.456 229.333 223.432C226.981 223.864 225.469 225.304 225.469 226.96C225.469 230.008 231.565 230.32 231.565 232.576C231.565 234.28 230.677 234.88 229.645 234.88C228.733 234.856 227.533 234.184 226.813 233.536L225.685 231.064L225.517 231.088L225.469 233.872ZM243.751 232.24C243.151 232.912 242.023 233.776 240.655 233.776C237.823 233.776 236.287 231.544 236.239 228.736L243.895 228.688C243.847 225.04 242.839 223.336 239.455 223.432C236.335 224.104 234.295 226.432 234.295 229.552C234.295 232.84 236.095 235.216 239.071 235.216C239.503 235.216 239.863 235.192 240.295 235.072C241.735 234.352 242.983 233.512 244.015 232.48L243.751 232.24ZM238.903 224.104C240.439 224.056 241.687 225.4 241.687 227.92C241.687 228.016 241.639 228.16 241.591 228.28L236.239 228.52C236.239 225.832 236.695 224.176 238.903 224.104Z" fill="white"/>
<path d="M312 268.75C299.159 268.75 288.75 279.159 288.75 292C288.75 304.841 299.159 315.25 312 315.25C324.841 315.25 335.25 304.841 335.25 292C335.25 279.159 324.841 268.75 312 268.75Z" fill="#161616" stroke="#646464" stroke-width="1.5"/>
<path d="M308.81 286.8V298H306.73V288.544H304.362V286.8H308.81ZM318.296 292.112C318.883 292.379 319.331 292.741 319.64 293.2C319.96 293.648 320.12 294.176 320.12 294.784C320.12 295.467 319.928 296.064 319.544 296.576C319.171 297.088 318.637 297.483 317.944 297.76C317.251 298.027 316.445 298.16 315.528 298.16C314.611 298.16 313.805 298.027 313.112 297.76C312.429 297.483 311.901 297.088 311.528 296.576C311.155 296.064 310.968 295.467 310.968 294.784C310.968 294.176 311.123 293.648 311.432 293.2C311.741 292.741 312.184 292.379 312.76 292.112C312.312 291.867 311.965 291.547 311.72 291.152C311.485 290.747 311.368 290.283 311.368 289.76C311.368 289.131 311.539 288.581 311.88 288.112C312.232 287.643 312.723 287.28 313.352 287.024C313.981 286.768 314.707 286.64 315.528 286.64C316.36 286.64 317.091 286.768 317.72 287.024C318.349 287.28 318.84 287.643 319.192 288.112C319.544 288.581 319.72 289.131 319.72 289.76C319.72 290.283 319.597 290.741 319.352 291.136C319.107 291.531 318.755 291.856 318.296 292.112ZM315.528 288.272C314.877 288.272 314.36 288.411 313.976 288.688C313.603 288.965 313.416 289.355 313.416 289.856C313.416 290.336 313.603 290.72 313.976 291.008C314.36 291.285 314.877 291.424 315.528 291.424C316.189 291.424 316.712 291.285 317.096 291.008C317.48 290.72 317.672 290.336 317.672 289.856C317.672 289.355 317.475 288.965 317.08 288.688C316.696 288.411 316.179 288.272 315.528 288.272ZM315.528 296.528C316.296 296.528 316.904 296.368 317.352 296.048C317.8 295.728 318.024 295.285 318.024 294.72C318.024 294.165 317.8 293.728 317.352 293.408C316.904 293.088 316.296 292.928 315.528 292.928C314.76 292.928 314.157 293.088 313.72 293.408C313.283 293.728 313.064 294.165 313.064 294.72C313.064 295.285 313.283 295.728 313.72 296.048C314.157 296.368 314.76 296.528 315.528 296.528Z" fill="white"/>
<path d="M39.138 285.4V298H37.86V287.92L32.91 296.398H32.28L27.33 287.974V298H26.052V285.4H27.15L32.622 294.742L38.04 285.4H39.138Z" fill="white"/>
<path d="M74 268.75C61.1594 268.75 50.75 279.159 50.75 292C50.75 304.841 61.1594 315.25 74 315.25C86.8406 315.25 97.25 304.841 97.25 292C97.25 279.159 86.8406 268.75 74 268.75Z" fill="#161616" stroke="#646464" stroke-width="1.5"/>
<path d="M75.1129 296.24V298H66.8569V296.608L71.3049 292.384C71.8062 291.904 72.1422 291.488 72.3129 291.136C72.4942 290.773 72.5849 290.416 72.5849 290.064C72.5849 289.541 72.4089 289.141 72.0569 288.864C71.7049 288.587 71.1875 288.448 70.5049 288.448C69.3635 288.448 68.4889 288.837 67.8809 289.616L66.4249 288.496C66.8622 287.909 67.4489 287.456 68.1849 287.136C68.9315 286.805 69.7635 286.64 70.6809 286.64C71.8969 286.64 72.8675 286.928 73.5929 287.504C74.3182 288.08 74.6809 288.864 74.6809 289.856C74.6809 290.464 74.5529 291.035 74.2969 291.568C74.0409 292.101 73.5502 292.709 72.8249 293.392L69.8329 296.24H75.1129ZM80.1854 286.8V298H78.1054V288.544H75.7374V286.8H80.1854Z" fill="white"/>
<path d="M170.384 286.552V291.502H176.9V292.654H170.384V298H169.052V285.4H177.692V286.552H170.384Z" fill="white"/>
<path d="M211 268.75C198.159 268.75 187.75 279.159 187.75 292C187.75 304.841 198.159 315.25 211 315.25C223.841 315.25 234.25 304.841 234.25 292C234.25 279.159 223.841 268.75 211 268.75Z" fill="#161616" stroke="#646464" stroke-width="1.5"/>
<path d="M207.857 286.8V298H205.777V288.544H203.409V286.8H207.857ZM213.583 291.136C215.162 291.136 216.33 291.445 217.087 292.064C217.844 292.672 218.223 293.504 218.223 294.56C218.223 295.232 218.058 295.84 217.727 296.384C217.396 296.928 216.9 297.36 216.239 297.68C215.578 298 214.762 298.16 213.791 298.16C212.991 298.16 212.218 298.048 211.471 297.824C210.724 297.589 210.095 297.269 209.583 296.864L210.463 295.248C210.879 295.589 211.375 295.861 211.951 296.064C212.538 296.256 213.14 296.352 213.759 296.352C214.495 296.352 215.071 296.203 215.487 295.904C215.914 295.595 216.127 295.173 216.127 294.64C216.127 294.064 215.898 293.632 215.439 293.344C214.991 293.045 214.218 292.896 213.119 292.896H210.415L210.991 286.8H217.567V288.544H212.751L212.511 291.136H213.583Z" fill="white"/>
<path d="M197 372L63 372C61.8954 372 61 371.105 61 370L61 332" stroke="#646464" stroke-width="1.5"/>
<path d="M121 316L121 330C121 331.105 120.105 332 119 332L3 332C1.89543 332 0.999999 331.105 0.999999 330L1 316" stroke="#646464" stroke-width="1.5"/>
<path d="M261 316L261 330C261 331.105 260.105 332 259 332L143 332C141.895 332 141 331.105 141 330L141 316" stroke="#646464" stroke-width="1.5"/>
<path d="M343 316L343 330C343 331.105 342.105 332 341 332L283 332C281.895 332 281 331.105 281 330L281 316" stroke="#646464" stroke-width="1.5"/>
<path d="M312 332L312 370C312 371.105 311.105 372 310 372L193 372" stroke="#646464" stroke-width="1.5"/>
<path d="M201 332V372" stroke="#646464" stroke-width="1.5"/>
<path d="M45.6587 441.176C46.2587 441.776 49.2827 443.336 51.1307 443.336C54.8747 442.712 57.1307 441.08 57.1307 437.768C57.1307 434.096 47.7707 432.776 47.7707 428.84C47.7707 427.424 49.3307 426.512 50.3387 426.512C52.0187 426.536 53.9627 427.52 54.4187 428.264L56.2667 430.736H56.5307L55.8347 427.04C54.8507 426.536 52.0667 425.888 51.3227 425.888C47.8667 426.512 45.7787 428.12 45.7787 430.568C45.7787 434.552 54.6827 435.968 54.6827 439.28C54.6827 441.776 53.2907 442.736 51.7787 442.736C50.0267 442.712 48.5147 441.92 47.7947 441.008L45.8987 437.096H45.6347L45.6587 441.176ZM58.3873 449H64.4113L64.3873 448.832L62.5153 448.4V443.072C63.1153 443.24 63.8353 443.336 64.7233 443.336C66.3313 442.832 70.5553 440.696 70.5553 436.952C70.5553 433.16 68.6833 431.432 66.1873 431.432C65.0833 431.864 63.4033 433.952 62.2993 435.368H62.2273L62.5153 431.72H58.7953V431.84L60.4033 432.128L60.3793 439.04V448.376L58.3873 448.832V449ZM62.5153 440.384V435.416C63.4273 434.264 64.4833 433.088 65.4193 433.088C66.8113 433.088 68.5153 434.984 68.5153 437.936C68.5153 440.936 67.5313 442.28 65.2753 442.28C64.2193 442.28 62.5153 441.224 62.5153 440.384ZM74.0139 427.952C74.7099 427.952 75.2619 427.4 75.2619 426.68C75.2619 425.984 74.7099 425.432 74.0139 425.432C73.3179 425.432 72.7659 425.984 72.7659 426.68C72.7659 427.4 73.3179 427.952 74.0139 427.952ZM71.2779 443H76.6059V442.88L75.0219 442.616V431.768L74.7339 431.72H71.5179V431.864L72.8859 432.128V442.616L71.2779 442.88V443ZM88.1807 427.952C88.8767 427.952 89.4287 427.4 89.4287 426.68C89.4287 425.984 88.8767 425.432 88.1807 425.432C87.4847 425.432 86.9327 425.984 86.9327 426.68C86.9327 427.4 87.4847 427.952 88.1807 427.952ZM76.9967 443H82.4207V442.88L80.7407 442.616V434.312C81.6767 433.16 82.5407 433.28 83.1407 433.496C83.5007 433.64 83.8607 433.832 84.2447 434.264L85.6847 432.488C85.2527 432.056 84.5327 431.6 83.4767 431.552C83.0207 431.696 81.5807 432.848 80.5487 434.144H80.4527L80.6687 431.768L80.3807 431.72H77.4527V431.864L78.6047 432.152V442.616L76.9967 442.88V443ZM85.4447 443H90.7727V442.88L89.1887 442.616V431.768L88.9007 431.72H85.6847V431.864L87.0527 432.128V442.616L85.4447 442.88V443ZM91.0809 432.416L92.6889 432.464H92.7609L92.8569 440.456C93.0249 442.208 93.8649 443.168 95.7129 443.312C96.9129 442.568 97.5369 442.088 98.7849 441.08L98.6409 440.936C97.4889 441.728 97.0089 441.92 96.2409 441.92C95.5449 441.896 94.9209 441.224 94.9449 439.976L94.8969 432.512L97.7289 432.584L98.6409 432.464V431.768H94.7769L94.8729 428.744L94.5849 428.72L92.9769 431.384L91.0809 432.176V432.416ZM98.8639 432.248L100.568 432.392V438.944C100.568 441.68 101.576 443.144 104.312 443.288C104.768 443.264 106.976 441.728 108.032 440.408H108.128L107.912 442.952L108.2 443H111.608V442.856L109.976 442.448V431.72H106.184V431.84L107.84 432.104V440.24C106.88 441.392 105.248 441.632 104.648 441.632C103.592 441.632 102.704 440.984 102.704 438.512V431.72L98.8639 432.128V432.248ZM112.037 437.672C112.037 441.464 113.837 443.312 116.333 443.312C117.341 442.904 118.853 441.32 119.933 440H120.053L120.005 443H123.581V442.88L121.973 442.616L121.997 432.536C121.397 432.008 120.101 431.432 117.797 431.432C116.189 431.936 112.037 433.928 112.037 437.672ZM114.077 436.808C114.077 433.808 114.989 432.44 117.245 432.44C118.277 432.44 119.117 432.992 119.837 433.88L119.789 439.856C118.925 440.84 117.917 441.584 117.053 441.584C115.661 441.584 114.077 439.76 114.077 436.808ZM123.965 443H129.293V442.88L127.709 442.616V425.024L127.421 425L123.965 425.24V425.384L125.573 425.552V442.616L123.965 442.88V443ZM47.7005 472H55.0925V471.856L52.4285 471.376V464.536L54.5645 464.512C55.4765 464.44 60.9005 464.008 60.8765 459.136C60.8765 456.4 58.6685 455.104 55.2605 455.176L47.9405 455.2V455.344L50.0285 455.824V471.376L47.7005 471.856V472ZM52.4285 463.6V455.92C52.6445 455.728 54.2525 455.632 54.6605 455.608C57.4445 455.632 58.6925 457.456 58.6925 459.64C58.6925 462.496 57.4685 463.984 55.0925 463.984C54.3725 463.984 53.3885 463.864 52.4285 463.6ZM61.3287 461.248L63.0327 461.392V467.944C63.0327 470.68 64.0407 472.144 66.7767 472.288C67.2327 472.264 69.4407 470.728 70.4967 469.408H70.5927L70.3767 471.952L70.6647 472H74.0727V471.856L72.4407 471.448V460.72H68.6487V460.84L70.3047 461.104V469.24C69.3447 470.392 67.7127 470.632 67.1127 470.632C66.0567 470.632 65.1687 469.984 65.1687 467.512V460.72L61.3287 461.128V461.248ZM82.9017 478H88.9257L88.9017 477.832L87.0297 477.4V472.072C87.6297 472.24 88.3497 472.336 89.2377 472.336C90.8457 471.832 95.0697 469.696 95.0697 465.952C95.0697 462.16 93.1977 460.432 90.7017 460.432C89.5977 460.864 87.9177 462.952 86.8137 464.368H86.7417L87.0297 460.72H83.3097V460.84L84.9177 461.128L84.8937 468.04V477.376L82.9017 477.832V478ZM74.4537 472H79.8777V471.88L78.1977 471.616V463.312C79.1337 462.16 79.9977 462.28 80.5977 462.496C80.9577 462.64 81.3177 462.832 81.7017 463.264L83.1417 461.488C82.7097 461.056 81.9897 460.6 80.9337 460.552C80.4777 460.696 79.0377 461.848 78.0057 463.144H77.9097L78.1257 460.768L77.8377 460.72H74.9097V460.864L76.0617 461.152V471.616L74.4537 471.88V472ZM87.0297 469.384V464.416C87.9417 463.264 88.9977 462.088 89.9337 462.088C91.3257 462.088 93.0297 463.984 93.0297 466.936C93.0297 469.936 92.0457 471.28 89.7897 471.28C88.7337 471.28 87.0297 470.224 87.0297 469.384ZM107.158 466.144C107.158 462.616 105.334 460.504 101.806 460.432C100.366 460.552 95.8538 463.048 95.8538 466.528C95.8538 470.056 97.6058 472.312 101.134 472.312C102.238 472.192 107.158 470.344 107.158 466.144ZM101.95 471.52C100.342 471.52 98.0618 469.408 98.0618 465.856C98.0618 463.552 98.6858 461.368 100.99 461.368C102.766 461.368 104.95 463.744 104.95 467.056C104.95 468.64 104.254 471.52 101.95 471.52ZM108.122 470.872C108.53 471.28 110.426 472.336 111.698 472.336C114.242 471.904 115.994 470.8 115.994 468.544C116.042 465.544 109.634 464.824 109.634 462.64C109.634 461.68 110.138 461.008 111.314 460.936C112.466 460.96 113.258 461.392 113.93 462.064L115.394 463.768H115.562L115.058 461.296C113.93 460.864 112.634 460.456 111.986 460.432C109.634 460.864 108.122 462.304 108.122 463.96C108.122 467.008 114.218 467.32 114.218 469.576C114.218 471.28 113.33 471.88 112.298 471.88C111.386 471.856 110.186 471.184 109.466 470.536L108.338 468.064L108.17 468.088L108.122 470.872ZM126.404 469.24C125.804 469.912 124.676 470.776 123.308 470.776C120.476 470.776 118.94 468.544 118.892 465.736L126.548 465.688C126.5 462.04 125.492 460.336 122.108 460.432C118.988 461.104 116.948 463.432 116.948 466.552C116.948 469.84 118.748 472.216 121.724 472.216C122.156 472.216 122.516 472.192 122.948 472.072C124.388 471.352 125.636 470.512 126.668 469.48L126.404 469.24ZM121.556 461.104C123.092 461.056 124.34 462.4 124.34 464.92C124.34 465.016 124.292 465.16 124.244 465.28L118.892 465.52C118.892 462.832 119.348 461.176 121.556 461.104Z" fill="white"/>
<path d="M87 490.75C74.1594 490.75 63.75 501.159 63.75 514C63.75 526.841 74.1594 537.25 87 537.25C99.8406 537.25 110.25 526.841 110.25 514C110.25 501.159 99.8406 490.75 87 490.75Z" fill="#161616" stroke="#646464" stroke-width="1.5"/>
<path d="M86.9644 508.64C88.5004 508.64 89.6897 509.12 90.5324 510.08C91.3857 511.04 91.8124 512.416 91.8124 514.208C91.8124 515.467 91.583 516.544 91.1244 517.44C90.6657 518.325 90.0204 519.003 89.1884 519.472C88.367 519.931 87.4124 520.16 86.3244 520.16C85.7484 520.16 85.2044 520.101 84.6924 519.984C84.191 519.856 83.7537 519.675 83.3804 519.44L84.1484 517.872C84.703 518.235 85.4124 518.416 86.2764 518.416C87.3537 518.416 88.1964 518.085 88.8044 517.424C89.4124 516.763 89.7164 515.808 89.7164 514.56V514.544C89.3857 514.928 88.9644 515.221 88.4524 515.424C87.9404 515.616 87.3644 515.712 86.7244 515.712C85.9884 515.712 85.327 515.573 84.7404 515.296C84.1537 515.008 83.695 514.603 83.3644 514.08C83.0337 513.557 82.8684 512.955 82.8684 512.272C82.8684 511.547 83.0497 510.912 83.4124 510.368C83.775 509.813 84.2657 509.387 84.8844 509.088C85.503 508.789 86.1964 508.64 86.9644 508.64ZM87.1244 514.08C87.7964 514.08 88.3404 513.899 88.7564 513.536C89.183 513.173 89.3964 512.715 89.3964 512.16C89.3964 511.616 89.1884 511.168 88.7724 510.816C88.367 510.453 87.8017 510.272 87.0764 510.272C86.4257 510.272 85.8977 510.448 85.4924 510.8C85.087 511.141 84.8844 511.6 84.8844 512.176C84.8844 512.763 85.087 513.227 85.4924 513.568C85.8977 513.909 86.4417 514.08 87.1244 514.08Z" fill="white"/>
<path d="M209.884 443H217.276V442.856L214.612 442.376V435.536L216.748 435.512C217.66 435.44 223.084 435.008 223.06 430.136C223.06 427.4 220.852 426.104 217.444 426.176L210.124 426.2V426.344L212.212 426.824V442.376L209.884 442.856V443ZM214.612 434.6V426.92C214.828 426.728 216.436 426.632 216.844 426.608C219.628 426.632 220.876 428.456 220.876 430.64C220.876 433.496 219.652 434.984 217.276 434.984C216.556 434.984 215.572 434.864 214.612 434.6ZM223.512 443H228.84V442.88L227.256 442.616V425.024L226.968 425L223.512 425.24V425.384L225.12 425.552V442.616L223.512 442.88V443ZM229.232 437.672C229.232 441.464 231.032 443.312 233.528 443.312C234.536 442.904 236.048 441.32 237.128 440H237.248L237.2 443H240.776V442.88L239.168 442.616L239.192 432.536C238.592 432.008 237.296 431.432 234.992 431.432C233.384 431.936 229.232 433.928 229.232 437.672ZM231.272 436.808C231.272 433.808 232.184 432.44 234.44 432.44C235.472 432.44 236.312 432.992 237.032 433.88L236.984 439.856C236.12 440.84 235.112 441.584 234.248 441.584C232.856 441.584 231.272 439.76 231.272 436.808ZM241.161 431.864L242.793 432.272V442.616L241.185 442.88V443H246.561V442.88L244.929 442.616V434.312C246.129 433.16 247.521 433.088 248.121 433.088C249.177 433.088 250.065 433.76 250.065 436.232V442.616L248.433 442.88V443H253.809V442.88L252.201 442.616V435.848C252.201 433.112 251.193 431.576 248.457 431.432C248.001 431.456 246.033 432.848 244.737 434.144H244.641L244.857 431.768L244.569 431.72H241.161V431.864ZM263.767 440.24C263.167 440.912 262.039 441.776 260.671 441.776C257.839 441.776 256.303 439.544 256.255 436.736L263.911 436.688C263.863 433.04 262.855 431.336 259.471 431.432C256.351 432.104 254.311 434.432 254.311 437.552C254.311 440.84 256.111 443.216 259.087 443.216C259.519 443.216 259.879 443.192 260.311 443.072C261.751 442.352 262.999 441.512 264.031 440.48L263.767 440.24ZM258.919 432.104C260.455 432.056 261.703 433.4 261.703 435.92C261.703 436.016 261.655 436.16 261.607 436.28L256.255 436.52C256.255 433.832 256.711 432.176 258.919 432.104ZM264.503 432.416L266.111 432.464H266.183L266.279 440.456C266.447 442.208 267.287 443.168 269.135 443.312C270.335 442.568 270.959 442.088 272.207 441.08L272.063 440.936C270.911 441.728 270.431 441.92 269.663 441.92C268.967 441.896 268.343 441.224 268.367 439.976L268.319 432.512L271.151 432.584L272.063 432.464V431.768H268.199L268.295 428.744L268.007 428.72L266.399 431.384L264.503 432.176V432.416ZM272.334 437.672C272.334 441.464 274.134 443.312 276.63 443.312C277.638 442.904 279.15 441.32 280.23 440H280.35L280.302 443H283.878V442.88L282.27 442.616L282.294 432.536C281.694 432.008 280.398 431.432 278.094 431.432C276.486 431.936 272.334 433.928 272.334 437.672ZM274.374 436.808C274.374 433.808 275.286 432.44 277.542 432.44C278.574 432.44 279.414 432.992 280.134 433.88L280.086 439.856C279.222 440.84 278.214 441.584 277.35 441.584C275.958 441.584 274.374 439.76 274.374 436.808ZM284.262 443H289.686V442.88L288.006 442.616V434.312C288.942 433.16 289.806 433.28 290.406 433.496C290.766 433.64 291.126 433.832 291.51 434.264L292.95 432.488C292.518 432.056 291.798 431.6 290.742 431.552C290.286 431.696 288.846 432.848 287.814 434.144H287.718L287.934 431.768L287.646 431.72H284.718V431.864L285.87 432.152V442.616L284.262 442.88V443ZM292.998 431.84L294.102 432.008L298.35 442.568L300.006 442.304L298.326 446.648C297.942 447.608 297.414 447.704 296.934 447.704C296.574 447.704 295.782 447.32 295.014 446.768L293.91 448.544C294.51 448.856 295.326 449.288 295.71 449.288C296.43 449.096 298.398 448.16 298.782 446.672L303.75 432.272L305.79 431.864V431.72H301.518V431.864L303.174 432.248L300.222 441.56L300.198 441.608L300.222 441.224L296.454 432.032L297.606 431.816V431.72H292.998V431.84ZM217.7 472H225.092V471.856L222.428 471.376V464.536L224.564 464.512C225.476 464.44 230.9 464.008 230.876 459.136C230.876 456.4 228.668 455.104 225.26 455.176L217.94 455.2V455.344L220.028 455.824V471.376L217.7 471.856V472ZM222.428 463.6V455.92C222.644 455.728 224.252 455.632 224.66 455.608C227.444 455.632 228.692 457.456 228.692 459.64C228.692 462.496 227.468 463.984 225.092 463.984C224.372 463.984 223.388 463.864 222.428 463.6ZM231.329 461.248L233.033 461.392V467.944C233.033 470.68 234.041 472.144 236.777 472.288C237.233 472.264 239.441 470.728 240.497 469.408H240.593L240.377 471.952L240.665 472H244.073V471.856L242.441 471.448V460.72H238.649V460.84L240.305 461.104V469.24C239.345 470.392 237.713 470.632 237.113 470.632C236.057 470.632 235.169 469.984 235.169 467.512V460.72L231.329 461.128V461.248ZM252.902 478H258.926L258.902 477.832L257.03 477.4V472.072C257.63 472.24 258.35 472.336 259.238 472.336C260.846 471.832 265.07 469.696 265.07 465.952C265.07 462.16 263.198 460.432 260.702 460.432C259.598 460.864 257.918 462.952 256.814 464.368H256.742L257.03 460.72H253.31V460.84L254.918 461.128L254.894 468.04V477.376L252.902 477.832V478ZM244.454 472H249.878V471.88L248.198 471.616V463.312C249.134 462.16 249.998 462.28 250.598 462.496C250.958 462.64 251.318 462.832 251.702 463.264L253.142 461.488C252.71 461.056 251.99 460.6 250.934 460.552C250.478 460.696 249.038 461.848 248.006 463.144H247.91L248.126 460.768L247.838 460.72H244.91V460.864L246.062 461.152V471.616L244.454 471.88V472ZM257.03 469.384V464.416C257.942 463.264 258.998 462.088 259.934 462.088C261.326 462.088 263.03 463.984 263.03 466.936C263.03 469.936 262.046 471.28 259.79 471.28C258.734 471.28 257.03 470.224 257.03 469.384ZM277.158 466.144C277.158 462.616 275.334 460.504 271.806 460.432C270.366 460.552 265.854 463.048 265.854 466.528C265.854 470.056 267.606 472.312 271.134 472.312C272.238 472.192 277.158 470.344 277.158 466.144ZM271.95 471.52C270.342 471.52 268.062 469.408 268.062 465.856C268.062 463.552 268.686 461.368 270.99 461.368C272.766 461.368 274.95 463.744 274.95 467.056C274.95 468.64 274.254 471.52 271.95 471.52ZM278.122 470.872C278.53 471.28 280.426 472.336 281.698 472.336C284.242 471.904 285.994 470.8 285.994 468.544C286.042 465.544 279.634 464.824 279.634 462.64C279.634 461.68 280.138 461.008 281.314 460.936C282.466 460.96 283.258 461.392 283.93 462.064L285.394 463.768H285.562L285.058 461.296C283.93 460.864 282.634 460.456 281.986 460.432C279.634 460.864 278.122 462.304 278.122 463.96C278.122 467.008 284.218 467.32 284.218 469.576C284.218 471.28 283.33 471.88 282.298 471.88C281.386 471.856 280.186 471.184 279.466 470.536L278.338 468.064L278.17 468.088L278.122 470.872ZM296.404 469.24C295.804 469.912 294.676 470.776 293.308 470.776C290.476 470.776 288.94 468.544 288.892 465.736L296.548 465.688C296.5 462.04 295.492 460.336 292.108 460.432C288.988 461.104 286.948 463.432 286.948 466.552C286.948 469.84 288.748 472.216 291.724 472.216C292.156 472.216 292.516 472.192 292.948 472.072C294.388 471.352 295.636 470.512 296.668 469.48L296.404 469.24ZM291.556 461.104C293.092 461.056 294.34 462.4 294.34 464.92C294.34 465.016 294.292 465.16 294.244 465.28L288.892 465.52C288.892 462.832 289.348 461.176 291.556 461.104Z" fill="white"/>
<path d="M257 490.75C244.159 490.75 233.75 501.159 233.75 514C233.75 526.841 244.159 537.25 257 537.25C269.841 537.25 280.25 526.841 280.25 514C280.25 501.159 269.841 490.75 257 490.75Z" fill="#161616" stroke="#646464" stroke-width="1.5"/>
<path d="M256.964 508.64C258.5 508.64 259.69 509.12 260.532 510.08C261.386 511.04 261.812 512.416 261.812 514.208C261.812 515.467 261.583 516.544 261.124 517.44C260.666 518.325 260.02 519.003 259.188 519.472C258.367 519.931 257.412 520.16 256.324 520.16C255.748 520.16 255.204 520.101 254.692 519.984C254.191 519.856 253.754 519.675 253.38 519.44L254.148 517.872C254.703 518.235 255.412 518.416 256.276 518.416C257.354 518.416 258.196 518.085 258.804 517.424C259.412 516.763 259.716 515.808 259.716 514.56V514.544C259.386 514.928 258.964 515.221 258.452 515.424C257.94 515.616 257.364 515.712 256.724 515.712C255.988 515.712 255.327 515.573 254.74 515.296C254.154 515.008 253.695 514.603 253.364 514.08C253.034 513.557 252.868 512.955 252.868 512.272C252.868 511.547 253.05 510.912 253.412 510.368C253.775 509.813 254.266 509.387 254.884 509.088C255.503 508.789 256.196 508.64 256.964 508.64ZM257.124 514.08C257.796 514.08 258.34 513.899 258.756 513.536C259.183 513.173 259.396 512.715 259.396 512.16C259.396 511.616 259.188 511.168 258.772 510.816C258.367 510.453 257.802 510.272 257.076 510.272C256.426 510.272 255.898 510.448 255.492 510.8C255.087 511.141 254.884 511.6 254.884 512.176C254.884 512.763 255.087 513.227 255.492 513.568C255.898 513.909 256.442 514.08 257.124 514.08Z" fill="white"/>
</svg>
