<svg width="380" height="69" viewBox="0 0 380 69" fill="none" xmlns="http://www.w3.org/2000/svg">
<path d="M52.922 49.812L52.328 6.45L57.608 5.658V4.8H48.83L45.794 4.668V4.8L30.548 41.1V40.902L15.17 4.602L8.966 4.8H1.178V5.658L6.986 6.516L6.722 49.482L0.65 50.604V51H15.434V50.604L8.768 49.416L8.702 7.176L27.116 51.132H28.238L45.86 8.76L46.454 49.812L41.306 50.604V51H58.07V50.604L52.922 49.812ZM60.3748 36.348C60.3748 46.776 65.3248 51.858 72.1888 51.858C74.9608 50.736 79.1188 46.38 82.0888 42.75H82.4188L82.2868 51H92.1208V50.67L87.6988 49.944L87.7648 22.224C86.1148 20.772 82.5508 19.188 76.2148 19.188C71.7928 20.574 60.3748 26.052 60.3748 36.348ZM65.9848 33.972C65.9848 25.722 68.4928 21.96 74.6968 21.96C77.5348 21.96 79.8448 23.478 81.8248 25.92L81.6928 42.354C79.3168 45.06 76.5448 47.106 74.1688 47.106C70.3408 47.106 65.9848 42.09 65.9848 33.972ZM92.6581 21.894L97.0801 22.026H97.2781L97.5421 44.004C98.0041 48.822 100.314 51.462 105.396 51.858C108.696 49.812 110.412 48.492 113.844 45.72L113.448 45.324C110.28 47.502 108.96 48.03 106.848 48.03C104.934 47.964 103.218 46.116 103.284 42.684L103.152 22.158L110.94 22.356L113.448 22.026V20.112H102.822L103.086 11.796L102.294 11.73L97.8721 19.056L92.6581 21.234V21.894ZM144.817 9.618C146.731 9.618 148.249 8.1 148.249 6.12C148.249 4.206 146.731 2.688 144.817 2.688C142.903 2.688 141.385 4.206 141.385 6.12C141.385 8.1 142.903 9.618 144.817 9.618ZM114.061 51H128.977V50.67L124.357 49.944V27.108C126.931 23.94 129.307 24.27 130.957 24.864C131.947 25.26 132.937 25.788 133.993 26.976L137.953 22.092C136.765 20.904 134.785 19.65 131.881 19.518C130.627 19.914 126.667 23.082 123.829 26.646H123.565L124.159 20.112L123.367 19.98H115.315V20.376L118.483 21.168V49.944L114.061 50.67V51ZM137.293 51H151.945V50.67L147.589 49.944V20.112L146.797 19.98H137.953V20.376L141.715 21.102V49.944L137.293 50.67V51ZM151.143 51H161.967V50.604L158.007 49.548H157.941L166.125 37.8L174.177 50.076L170.877 50.736V51H185.001V50.736L181.107 49.944L170.085 33.246L178.401 21.3L183.879 20.376V19.98H173.055V20.376L177.015 21.3L169.425 32.19L162.033 20.97L165.465 20.244V19.98H151.341V20.244L155.169 21.036L165.399 36.678L156.621 49.614L151.143 50.604V51ZM204.728 51.99C213.77 52.386 226.376 37.932 226.838 26.052C226.838 20.904 221.888 19.716 219.446 19.716C210.866 19.65 198.656 32.85 198.326 43.476C198.128 48.03 202.154 51.924 204.728 51.99ZM207.83 50.142C206.444 50.076 204.662 46.776 204.728 42.816C205.058 33.51 213.242 21.168 216.542 21.168C219.908 21.168 220.37 23.346 220.238 27.306C219.842 34.896 214.628 50.406 207.83 50.142ZM211.238 66.246C212.492 67.5 214.67 68.094 216.914 68.028C219.356 68.028 230.312 54.036 231.566 51.396C232.952 46.578 236.846 32.982 240.212 21.564L247.34 21.696L249.914 21.036L250.112 20.31L240.542 20.706C242.06 15.492 243.446 10.74 244.502 7.572C244.502 7.242 248.528 5.79 251.3 5.79C252.356 5.79 253.412 5.856 254.27 6.054L258.956 2.49C257.702 1.104 255.524 0.707998 253.28 0.707998C248.726 1.5 236.516 13.446 235.262 17.868L234.536 20.442L229.982 20.508L230.312 22.092L234.14 21.63L228.2 42.816C227.474 45.984 223.844 59.778 222.854 62.088C222.26 62.616 219.818 64.332 216.452 63.342L211.238 66.246ZM298.034 4.602L296.384 4.8H263.186V5.658L267.806 6.384V49.746L262.724 50.604V51H282.128V50.604L274.406 49.746V29.748H287.672L290.51 36.084H290.906V22.092H290.51L287.672 28.494H274.406V6.054H291.5C293.876 8.034 297.704 14.898 298.694 16.944H299.09L298.034 4.602ZM298.723 36.348C298.723 46.776 303.673 51.858 310.537 51.858C313.309 50.736 317.466 46.38 320.437 42.75H320.767L320.635 51H330.469V50.67L326.047 49.944L326.113 22.224C324.463 20.772 320.899 19.188 314.562 19.188C310.141 20.574 298.723 26.052 298.723 36.348ZM304.333 33.972C304.333 25.722 306.841 21.96 313.045 21.96C315.883 21.96 318.193 23.478 320.173 25.92L320.041 42.354C317.665 45.06 314.893 47.106 312.517 47.106C308.689 47.106 304.333 42.09 304.333 33.972ZM331.006 21.894L335.428 22.026H335.626L335.89 44.004C336.352 48.822 338.662 51.462 343.744 51.858C347.044 49.812 348.76 48.492 352.192 45.72L351.796 45.324C348.628 47.502 347.308 48.03 345.196 48.03C343.282 47.964 341.566 46.116 341.632 42.684L341.5 22.158L349.288 22.356L351.796 22.026V20.112H341.17L341.434 11.796L340.642 11.73L336.22 19.056L331.006 21.234V21.894ZM378.611 43.41C376.961 45.258 373.859 47.634 370.097 47.634C362.309 47.634 358.085 41.496 357.953 33.774L379.007 33.642C378.875 23.61 376.103 18.924 366.797 19.188C358.217 21.036 352.607 27.438 352.607 36.018C352.607 45.06 357.557 51.594 365.741 51.594C366.929 51.594 367.919 51.528 369.107 51.198C373.067 49.218 376.499 46.908 379.337 44.07L378.611 43.41ZM365.279 21.036C369.503 20.904 372.935 24.6 372.935 31.53C372.935 31.794 372.803 32.19 372.671 32.52L357.953 33.18C357.953 25.788 359.207 21.234 365.279 21.036Z" fill="white"/>
</svg>
