<svg width="162" height="30" viewBox="0 0 162 30" fill="none" xmlns="http://www.w3.org/2000/svg">
<path d="M22.2271 21.4947L21.9745 3.05636L24.2197 2.71958V2.35475H20.4871L19.1961 2.29862V2.35475L12.7132 17.7902V17.706L6.17419 2.27055L3.53613 2.35475H0.224516V2.71958L2.69419 3.08442L2.58194 21.3544L0 21.8315V21.9999H6.28645V21.8315L3.45194 21.3264L3.42387 3.36507L11.2539 22.056H11.731L19.2242 4.03862L19.4768 21.4947L17.2877 21.8315V21.9999H24.4161V21.8315L22.2271 21.4947Z" fill="white"/>
<path d="M25.3962 15.7696C25.3962 20.2038 27.501 22.3647 30.4197 22.3647C31.5985 21.8876 33.3665 20.0354 34.6294 18.4918H34.7697L34.7136 21.9999H38.8952V21.8596L37.0149 21.5509L37.043 9.76378C36.3414 9.14636 34.8259 8.47281 32.1317 8.47281C30.2514 9.06217 25.3962 11.3915 25.3962 15.7696ZM27.7817 14.7593C27.7817 11.2512 28.8481 9.65152 31.4862 9.65152C32.693 9.65152 33.6752 10.297 34.5172 11.3354L34.461 18.3235C33.4507 19.4741 32.272 20.3441 31.2617 20.3441C29.6339 20.3441 27.7817 18.2112 27.7817 14.7593Z" fill="white"/>
<path d="M39.1237 9.62346L41.004 9.67959H41.0882L41.2005 19.0251C41.3969 21.0738 42.3792 22.1964 44.5401 22.3647C45.9434 21.4947 46.673 20.9335 48.1324 19.7547L47.964 19.5864C46.6169 20.5125 46.0556 20.737 45.1576 20.737C44.3437 20.7089 43.614 19.9231 43.6421 18.4638L43.5859 9.73571L46.8976 9.81991L47.964 9.67959V8.86571H43.4456L43.5579 5.32958L43.2211 5.30152L41.3408 8.41668L39.1237 9.34281V9.62346Z" fill="white"/>
<path d="M61.3028 4.40346C62.1166 4.40346 62.7621 3.75797 62.7621 2.91604C62.7621 2.10216 62.1166 1.45668 61.3028 1.45668C60.4889 1.45668 59.8434 2.10216 59.8434 2.91604C59.8434 3.75797 60.4889 4.40346 61.3028 4.40346ZM48.2247 21.9999H54.5673V21.8596L52.6028 21.5509V11.8406C53.6973 10.4935 54.7076 10.6338 55.4092 10.8864C55.8302 11.0547 56.2512 11.2793 56.7002 11.7844L58.3841 9.70765C57.8789 9.20249 57.037 8.66926 55.8021 8.61313C55.2689 8.78152 53.585 10.1286 52.3783 11.6441H52.266L52.5186 8.86571L52.1818 8.80958H48.7579V8.97797L50.105 9.31475V21.5509L48.2247 21.8596V21.9999ZM58.1034 21.9999H64.3337V21.8596L62.4815 21.5509V8.86571L62.1447 8.80958H58.3841V8.97797L59.9837 9.28668V21.5509L58.1034 21.8596V21.9999Z" fill="white"/>
<path d="M63.9926 21.9999H68.5952V21.8315L66.9113 21.3825H66.8832L70.3632 16.387L73.7871 21.607L72.3839 21.8876V21.9999H78.3897V21.8876L76.7339 21.5509L72.0471 14.4506L75.5832 9.37088L77.9126 8.97797V8.80958H73.31V8.97797L74.9939 9.37088L71.7664 14.0015L68.6232 9.23055L70.0826 8.92184V8.80958H64.0768V8.92184L65.7045 9.25862L70.0545 15.9099L66.3219 21.4106L63.9926 21.8315V21.9999Z" fill="white"/>
<path d="M86.7779 22.4209C90.6227 22.5893 95.9831 16.4431 96.1795 11.3915C96.1795 9.20249 94.0747 8.69733 93.0363 8.69733C89.3879 8.66926 84.196 14.2822 84.0556 18.8006C83.9715 20.737 85.6834 22.3928 86.7779 22.4209ZM88.0969 21.6351C87.5076 21.607 86.7498 20.2038 86.7779 18.5199C86.9182 14.5628 90.3982 9.31475 91.8014 9.31475C93.2327 9.31475 93.4292 10.2409 93.3731 11.9247C93.2047 15.1522 90.9876 21.7473 88.0969 21.6351Z" fill="white"/>
<path d="M89.5464 28.4828C90.0796 29.016 91.0058 29.2686 91.96 29.2406C92.9984 29.2406 97.6571 23.2909 98.1903 22.1683C98.7796 20.1196 100.435 14.3383 101.867 9.48313L104.898 9.53926L105.992 9.25862L106.076 8.94991L102.007 9.11829C102.653 6.9012 103.242 4.88055 103.691 3.53345C103.691 3.39313 105.403 2.77571 106.582 2.77571C107.031 2.77571 107.48 2.80378 107.844 2.88797L109.837 1.37249C109.304 0.783133 108.378 0.614746 107.424 0.614746C105.487 0.951519 100.295 6.0312 99.7619 7.91152L99.4532 9.00604L97.5167 9.0341L97.6571 9.70765L99.2848 9.5112L96.759 18.5199C96.4503 19.867 94.9067 25.7325 94.4858 26.7147C94.2332 26.9393 93.1948 27.6689 91.7635 27.248L89.5464 28.4828Z" fill="white"/>
<path d="M126.454 2.27055L125.752 2.35475H111.636V2.71958L113.6 3.02829V21.4667L111.439 21.8315V21.9999H119.69V21.8315L116.407 21.4667V12.9631H122.048L123.254 15.6573H123.423V9.70765H123.254L122.048 12.4299H116.407V2.88797H123.675C124.686 3.72991 126.313 6.64862 126.734 7.51862H126.903L126.454 2.27055Z" fill="white"/>
<path d="M126.746 15.7696C126.746 20.2038 128.851 22.3647 131.77 22.3647C132.949 21.8876 134.717 20.0354 135.98 18.4918H136.12L136.064 21.9999H140.245V21.8596L138.365 21.5509L138.393 9.76378C137.692 9.14636 136.176 8.47281 133.482 8.47281C131.602 9.06217 126.746 11.3915 126.746 15.7696ZM129.132 14.7593C129.132 11.2512 130.198 9.65152 132.836 9.65152C134.043 9.65152 135.025 10.297 135.867 11.3354L135.811 18.3235C134.801 19.4741 133.622 20.3441 132.612 20.3441C130.984 20.3441 129.132 18.2112 129.132 14.7593Z" fill="white"/>
<path d="M140.474 9.62346L142.354 9.67959H142.438L142.551 19.0251C142.747 21.0738 143.729 22.1964 145.89 22.3647C147.294 21.4947 148.023 20.9335 149.483 19.7547L149.314 19.5864C147.967 20.5125 147.406 20.737 146.508 20.737C145.694 20.7089 144.964 19.9231 144.992 18.4638L144.936 9.73571L148.248 9.81991L149.314 9.67959V8.86571H144.796L144.908 5.32958L144.571 5.30152L142.691 8.41668L140.474 9.34281V9.62346Z" fill="white"/>
<path d="M160.716 18.7725C160.015 19.5583 158.696 20.5686 157.096 20.5686C153.785 20.5686 151.988 17.9586 151.932 14.6751L160.885 14.6189C160.829 10.3531 159.65 8.36055 155.693 8.47281C152.045 9.25862 149.659 11.9809 149.659 15.6293C149.659 19.4741 151.764 22.2525 155.244 22.2525C155.749 22.2525 156.17 22.2244 156.675 22.0841C158.359 21.2422 159.818 20.2599 161.025 19.0531L160.716 18.7725ZM155.047 9.25862C156.844 9.20249 158.303 10.7741 158.303 13.7209C158.303 13.8331 158.247 14.0015 158.191 14.1418L151.932 14.4225C151.932 11.2793 152.466 9.34281 155.047 9.25862Z" fill="white"/>
</svg>
