<svg width="600" height="600" viewBox="0 0 600 600" fill="none" xmlns="http://www.w3.org/2000/svg">
<rect x="119.137" y="119.135" width="361.729" height="361.729" stroke="#646464" stroke-width="2.43243"/>
<rect x="300" y="44.218" width="361.729" height="361.729" transform="rotate(45 300 44.218)" stroke="#646464" stroke-width="2.43243"/>
<path d="M300.002 482.081L481.216 300" stroke="#646464" stroke-width="1.62162" stroke-dasharray="4.86 4.86"/>
<path d="M300 1.73376V598.266" stroke="#646464" stroke-width="2.43243"/>
<path d="M598.266 300L1.73388 300" stroke="#646464" stroke-width="2.43243"/>
<path d="M428.323 171.677L171.676 428.324" stroke="#646464" stroke-width="2.43243"/>
<path d="M428.323 428.323L171.676 171.675" stroke="#646464" stroke-width="2.43243"/>
<path d="M88.7988 88.7988L300 1.31642L511.201 88.7988L598.684 300L511.201 511.201L300 598.684L88.7988 511.201L1.31642 300L88.7988 88.7988Z" stroke="#646464" stroke-width="2.43243"/>
<circle cx="299.999" cy="300" r="29.4798" transform="rotate(-90 299.999 300)" fill="#FFB74A"/>
<circle cx="352.022" cy="300" r="19.593" transform="rotate(-90 352.022 300)" fill="#161616" stroke="#646464" stroke-width="2.43243"/>
<circle cx="390.172" cy="299.999" r="14.3907" transform="rotate(-90 390.172 299.999)" fill="#161616" stroke="#646464" stroke-width="2.43243"/>
<circle cx="29.4798" cy="299.204" r="29.4798" transform="rotate(-90 29.4798 299.204)" fill="#753AFF"/>
<circle cx="81.4987" cy="299.205" r="20.8092" transform="rotate(-90 81.4987 299.205)" fill="#4863FB"/>
<circle cx="119.653" cy="299.204" r="15.6069" transform="rotate(-90 119.653 299.204)" fill="#2CA6B5"/>
<circle r="29.4798" transform="matrix(4.37114e-08 -1 -1 -4.37114e-08 570.52 299.204)" fill="#EF2757"/>
<circle r="19.593" transform="matrix(4.37114e-08 -1 -1 -4.37114e-08 518.501 299.205)" fill="#161616" stroke="#646464" stroke-width="2.43243"/>
<circle r="15.6069" transform="matrix(4.37114e-08 -1 -1 -4.37114e-08 480.347 299.204)" fill="#FF7223"/>
<circle cx="299.203" cy="29.4798" r="29.4798" fill="#753AFF"/>
<circle cx="299.708" cy="81.3598" r="20.8092" fill="#4863FB"/>
<circle cx="299.203" cy="119.653" r="15.6069" fill="#2CA6B5"/>
<circle r="29.4798" transform="matrix(1 0 0 -1 299.203 570.52)" fill="#EF2757"/>
<circle r="19.593" transform="matrix(1 0 0 -1 299.202 518.498)" fill="#161616" stroke="#646464" stroke-width="2.43243"/>
<circle r="15.6069" transform="matrix(1 0 0 -1 299.203 480.346)" fill="#FF7223"/>
<circle cx="107.591" cy="107.587" r="28.2635" transform="rotate(-45 107.591 107.587)" fill="#161616" stroke="#646464" stroke-width="2.43243"/>
<circle cx="144.377" cy="144.372" r="19.593" transform="rotate(-45 144.377 144.372)" fill="#161616" stroke="#646464" stroke-width="2.43243"/>
<circle cx="171.356" cy="171.349" r="14.3907" transform="rotate(-45 171.356 171.349)" fill="#161616" stroke="#646464" stroke-width="2.43243"/>
<circle cx="492.757" cy="491.019" r="28.2635" transform="rotate(135 492.757 491.019)" fill="#161616" stroke="#646464" stroke-width="2.43243"/>
<circle cx="455.971" cy="454.233" r="19.593" transform="rotate(135 455.971 454.233)" fill="#161616" stroke="#646464" stroke-width="2.43243"/>
<circle cx="428.992" cy="427.256" r="14.3907" transform="rotate(135 428.992 427.256)" fill="#161616" stroke="#646464" stroke-width="2.43243"/>
<circle r="28.2635" transform="matrix(0.707107 0.707107 0.707107 -0.707107 107.743 491.178)" fill="#161616" stroke="#646464" stroke-width="2.43243"/>
<circle r="19.593" transform="matrix(0.707107 0.707107 0.707107 -0.707107 144.529 454.392)" fill="#161616" stroke="#646464" stroke-width="2.43243"/>
<circle r="14.3907" transform="matrix(0.707107 0.707107 0.707107 -0.707107 171.508 427.415)" fill="#161616" stroke="#646464" stroke-width="2.43243"/>
<circle r="28.2635" transform="matrix(-0.707107 -0.707107 -0.707107 0.707107 492.912 107.746)" fill="#161616" stroke="#646464" stroke-width="2.43243"/>
<circle r="19.593" transform="matrix(-0.707107 -0.707107 -0.707107 0.707107 456.125 144.531)" fill="#161616" stroke="#646464" stroke-width="2.43243"/>
<circle r="14.3907" transform="matrix(-0.707107 -0.707107 -0.707107 0.707107 429.147 171.508)" fill="#161616" stroke="#646464" stroke-width="2.43243"/>
<circle cx="391.906" cy="390.173" r="14.3907" transform="rotate(-90 391.906 390.173)" fill="#161616" stroke="#646464" stroke-width="2.43243"/>
<circle cx="436.994" cy="345.086" r="14.3907" transform="rotate(-90 436.994 345.086)" fill="#161616" stroke="#646464" stroke-width="2.43243"/>
<circle cx="345.088" cy="438.729" r="14.3907" transform="rotate(-90 345.088 438.729)" fill="#161616" stroke="#646464" stroke-width="2.43243"/>
<circle cx="202.892" cy="299.999" r="15.6069" transform="rotate(-90 202.892 299.999)" fill="#7BAD1F"/>
<circle cx="299.998" cy="202.891" r="15.6069" transform="rotate(-90 299.998 202.891)" fill="#7BAD1F"/>
<path d="M409.052 350.518C408.923 350.093 408.767 349.723 408.584 349.408C408.401 349.093 408.138 348.786 407.796 348.486C407.454 348.186 407.147 347.944 406.874 347.761C406.602 347.577 406.227 347.371 405.751 347.144C405.276 346.916 404.899 346.747 404.622 346.635C404.344 346.524 403.943 346.372 403.417 346.178C402.951 346.004 402.604 345.871 402.376 345.779C402.148 345.687 401.849 345.557 401.477 345.387C401.105 345.218 400.828 345.068 400.644 344.937C400.461 344.807 400.265 344.647 400.057 344.458C399.849 344.27 399.703 344.069 399.618 343.856C399.534 343.643 399.492 343.411 399.492 343.159C399.492 342.501 399.789 341.964 400.384 341.548C400.979 341.132 401.747 340.924 402.689 340.924C403.105 340.924 403.529 340.98 403.96 341.091C404.391 341.202 404.76 341.328 405.067 341.468C405.375 341.609 405.665 341.764 405.937 341.933C406.21 342.102 406.403 342.23 406.517 342.317C406.631 342.405 406.704 342.463 406.733 342.492C406.862 342.588 406.996 342.622 407.134 342.593C407.283 342.584 407.397 342.506 407.477 342.361L408.681 340.242C408.8 340.048 408.775 339.865 408.607 339.69C408.547 339.632 408.473 339.564 408.383 339.487C408.294 339.41 408.101 339.269 407.803 339.066C407.506 338.863 407.191 338.681 406.86 338.522C406.527 338.362 406.096 338.2 405.566 338.035C405.036 337.871 404.488 337.76 403.923 337.702V335.147C403.923 335.011 403.878 334.9 403.789 334.813C403.7 334.726 403.586 334.682 403.447 334.682H401.44C401.311 334.682 401.199 334.728 401.105 334.82C401.011 334.912 400.964 335.021 400.964 335.147V337.76C399.408 338.05 398.144 338.698 397.173 339.705C396.201 340.711 395.715 341.882 395.715 343.217C395.715 343.614 395.758 343.991 395.842 344.349C395.926 344.708 396.03 345.029 396.154 345.315C396.278 345.6 396.454 345.881 396.682 346.157C396.91 346.433 397.126 346.67 397.329 346.868C397.532 347.066 397.797 347.272 398.124 347.485C398.451 347.698 398.731 347.87 398.964 348C399.197 348.13 399.507 348.281 399.894 348.45C400.28 348.619 400.585 348.747 400.808 348.835C401.031 348.922 401.336 349.043 401.723 349.197C402.258 349.4 402.654 349.558 402.912 349.669C403.17 349.78 403.497 349.935 403.894 350.134C404.29 350.332 404.58 350.513 404.763 350.678C404.947 350.842 405.113 351.046 405.261 351.288C405.41 351.529 405.485 351.786 405.485 352.057C405.485 352.821 405.18 353.412 404.57 353.827C403.961 354.244 403.254 354.452 402.451 354.452C402.085 354.452 401.718 354.413 401.351 354.336C400.063 354.084 398.859 353.479 397.739 352.521L397.709 352.492C397.62 352.386 397.501 352.342 397.352 352.362C397.193 352.381 397.079 352.439 397.01 352.536L395.479 354.496C395.33 354.689 395.34 354.887 395.508 355.091C395.558 355.149 395.645 355.236 395.769 355.352C395.893 355.468 396.123 355.649 396.46 355.897C396.797 356.144 397.164 356.376 397.56 356.594C397.957 356.811 398.46 357.026 399.069 357.239C399.679 357.452 400.311 357.602 400.965 357.689V360.229C400.965 360.355 401.012 360.464 401.106 360.556C401.201 360.648 401.312 360.694 401.441 360.694H403.448C403.587 360.694 403.701 360.65 403.79 360.563C403.879 360.476 403.924 360.365 403.924 360.229V357.689C405.5 357.437 406.781 356.777 407.767 355.708C408.754 354.638 409.247 353.363 409.247 351.883C409.246 351.399 409.182 350.944 409.052 350.518Z" fill="#7BAD1F"/>
<path d="M348.554 407.514C348.319 407.514 348.12 407.433 347.958 407.27L339.504 399.115C339.414 399.042 339.289 398.925 339.131 398.762C338.973 398.6 338.723 398.304 338.379 397.875C338.036 397.446 337.729 397.006 337.458 396.554C337.187 396.103 336.946 395.556 336.733 394.915C336.521 394.274 336.415 393.65 336.415 393.045C336.415 391.058 336.989 389.505 338.136 388.385C339.283 387.265 340.868 386.705 342.891 386.705C343.451 386.705 344.022 386.802 344.605 386.996C345.187 387.19 345.729 387.452 346.23 387.782C346.732 388.112 347.163 388.421 347.524 388.71C347.885 388.999 348.229 389.306 348.554 389.631C348.879 389.306 349.222 388.999 349.583 388.71C349.945 388.421 350.376 388.112 350.877 387.782C351.378 387.452 351.92 387.19 352.503 386.996C353.085 386.802 353.657 386.705 354.217 386.705C356.24 386.705 357.825 387.265 358.972 388.385C360.119 389.505 360.692 391.058 360.692 393.045C360.692 395.041 359.658 397.074 357.59 399.142L349.15 407.27C348.987 407.433 348.789 407.514 348.554 407.514Z" fill="#FF2171"/>
<path d="M299.194 302.88V305.734H285.806V303.476L293.019 296.627C293.832 295.848 294.377 295.174 294.654 294.603C294.948 294.015 295.095 293.435 295.095 292.865C295.095 292.017 294.81 291.368 294.239 290.919C293.668 290.469 292.829 290.244 291.722 290.244C289.871 290.244 288.453 290.875 287.467 292.138L285.106 290.322C285.815 289.371 286.766 288.635 287.96 288.116C289.171 287.58 290.52 287.312 292.007 287.312C293.979 287.312 295.553 287.779 296.73 288.713C297.906 289.647 298.494 290.919 298.494 292.527C298.494 293.513 298.286 294.439 297.871 295.303C297.456 296.168 296.66 297.154 295.484 298.261L290.632 302.88H299.194ZM314.296 302.88V305.734H300.908V303.476L308.121 296.627C308.934 295.848 309.478 295.174 309.755 294.603C310.049 294.015 310.196 293.435 310.196 292.865C310.196 292.017 309.911 291.368 309.34 290.919C308.769 290.469 307.93 290.244 306.823 290.244C304.973 290.244 303.554 290.875 302.568 292.138L300.207 290.322C300.916 289.371 301.868 288.635 303.061 288.116C304.272 287.58 305.621 287.312 307.109 287.312C309.081 287.312 310.655 287.779 311.831 288.713C313.007 289.647 313.595 290.919 313.595 292.527C313.595 293.513 313.388 294.439 312.973 295.303C312.557 296.168 311.762 297.154 310.585 298.261L305.734 302.88H314.296Z" fill="white"/>
<path d="M298.326 566.162C300.886 566.162 302.78 566.664 304.009 567.667C305.237 568.653 305.851 570.002 305.851 571.715C305.851 572.805 305.583 573.79 305.046 574.673C304.51 575.555 303.706 576.255 302.633 576.774C301.561 577.293 300.238 577.553 298.664 577.553C297.366 577.553 296.112 577.371 294.902 577.008C293.691 576.627 292.67 576.108 291.84 575.451L293.267 572.83C293.942 573.384 294.746 573.825 295.68 574.154C296.631 574.465 297.609 574.621 298.612 574.621C299.805 574.621 300.739 574.379 301.414 573.894C302.106 573.393 302.452 572.709 302.452 571.845C302.452 570.91 302.08 570.21 301.336 569.743C300.61 569.259 299.356 569.016 297.574 569.016H293.189L294.123 559.131H304.787V561.959H296.977L296.588 566.162H298.326Z" fill="white"/>
<path d="M305.824 33.1549V36.009H292.436V33.7517L299.649 26.9019C300.462 26.1236 301.007 25.449 301.284 24.8782C301.578 24.2901 301.725 23.7106 301.725 23.1398C301.725 22.2922 301.439 21.6436 300.868 21.1938C300.298 20.7441 299.459 20.5192 298.352 20.5192C296.501 20.5192 295.083 21.1506 294.097 22.4133L291.735 20.5971C292.445 19.6457 293.396 18.9106 294.59 18.3917C295.8 17.8555 297.15 17.5873 298.637 17.5873C300.609 17.5873 302.183 18.0544 303.359 18.9884C304.536 19.9225 305.124 21.1938 305.124 22.8025C305.124 23.7884 304.916 24.7138 304.501 25.5787C304.086 26.4436 303.29 27.4295 302.114 28.5365L297.262 33.1549H305.824Z" fill="white"/>
<path d="M22.4507 287.572V305.734H19.0777V290.4H15.2377V287.572H22.4507ZM39.2081 302.88V305.734H25.82V303.476L33.033 296.627C33.8459 295.848 34.3908 295.174 34.6675 294.603C34.9616 294.015 35.1086 293.435 35.1086 292.865C35.1086 292.017 34.8232 291.368 34.2524 290.919C33.6816 290.469 32.8427 290.244 31.7357 290.244C29.8848 290.244 28.4665 290.875 27.4805 292.138L25.1194 290.322C25.8286 289.371 26.78 288.635 27.9735 288.116C29.1843 287.58 30.5335 287.312 32.0211 287.312C33.993 287.312 35.567 287.779 36.7432 288.713C37.9194 289.647 38.5075 290.919 38.5075 292.527C38.5075 293.513 38.3 294.439 37.8848 295.303C37.4697 296.168 36.674 297.154 35.4978 298.261L30.6459 302.88H39.2081Z" fill="white"/>
<path d="M102.846 96.7462V114.908H99.4733V99.5743H95.6333V96.7462H102.846ZM122.639 110.783H119.422V114.908H116.153V110.783H106.19V108.448L115.141 96.7462H118.748L110.315 107.929H116.257V104.271H119.422V107.929H122.639V110.783Z" fill="white"/>
<path d="M102.841 480.232V498.394H99.468V483.06H95.628V480.232H102.841ZM120.143 480.232V482.489L113.086 498.394H109.48L116.303 483.086H109.168V486.173H106.029V480.232H120.143Z" fill="white"/>
<path d="M490.717 112.053V114.907H477.329V112.65L484.542 105.8C485.355 105.022 485.9 104.347 486.177 103.777C486.471 103.189 486.618 102.609 486.618 102.038C486.618 101.191 486.332 100.542 485.762 100.092C485.191 99.6426 484.352 99.4177 483.245 99.4177C481.394 99.4177 479.976 100.049 478.99 101.312L476.629 99.4956C477.338 98.5442 478.289 97.8091 479.483 97.2902C480.693 96.754 482.043 96.4858 483.53 96.4858C485.502 96.4858 487.076 96.9529 488.252 97.8869C489.429 98.821 490.017 100.092 490.017 101.701C490.017 102.687 489.809 103.612 489.394 104.477C488.979 105.342 488.183 106.328 487.007 107.435L482.155 112.053H490.717ZM500.164 115.167C498.711 115.167 497.414 114.804 496.272 114.077C495.131 113.333 494.231 112.261 493.574 110.86C492.917 109.442 492.588 107.764 492.588 105.826C492.588 103.889 492.917 102.22 493.574 100.819C494.231 99.4004 495.131 98.328 496.272 97.6015C497.414 96.8577 498.711 96.4858 500.164 96.4858C501.617 96.4858 502.914 96.8577 504.056 97.6015C505.215 98.328 506.123 99.4004 506.78 100.819C507.438 102.22 507.766 103.889 507.766 105.826C507.766 107.764 507.438 109.442 506.78 110.86C506.123 112.261 505.215 113.333 504.056 114.077C502.914 114.804 501.617 115.167 500.164 115.167ZM500.164 112.235C501.461 112.235 502.482 111.699 503.226 110.626C503.987 109.554 504.367 107.954 504.367 105.826C504.367 103.699 503.987 102.099 503.226 101.026C502.482 99.954 501.461 99.4177 500.164 99.4177C498.884 99.4177 497.864 99.954 497.103 101.026C496.359 102.099 495.987 103.699 495.987 105.826C495.987 107.954 496.359 109.554 497.103 110.626C497.864 111.699 498.884 112.235 500.164 112.235Z" fill="white"/>
<path d="M492.827 487.262C495.387 487.262 497.281 487.764 498.51 488.767C499.738 489.753 500.352 491.102 500.352 492.814C500.352 493.904 500.084 494.89 499.547 495.772C499.011 496.654 498.207 497.355 497.134 497.874C496.062 498.393 494.739 498.652 493.165 498.652C491.867 498.652 490.613 498.471 489.402 498.107C488.192 497.727 487.171 497.208 486.341 496.551L487.768 493.93C488.442 494.484 489.247 494.925 490.181 495.253C491.132 495.565 492.11 495.72 493.113 495.72C494.306 495.72 495.24 495.478 495.915 494.994C496.607 494.492 496.953 493.809 496.953 492.944C496.953 492.01 496.581 491.309 495.837 490.842C495.111 490.358 493.857 490.116 492.075 490.116H487.69L488.624 480.231H499.288V483.059H491.478L491.089 487.262H492.827Z" fill="white"/>
<path d="M565.58 287.57V305.732H562.207V290.398H558.367V287.57H565.58ZM580.962 296.184C581.914 296.617 582.64 297.205 583.142 297.949C583.661 298.675 583.92 299.531 583.92 300.517C583.92 301.624 583.609 302.593 582.986 303.423C582.381 304.254 581.516 304.894 580.391 305.343C579.267 305.776 577.961 305.992 576.474 305.992C574.986 305.992 573.68 305.776 572.556 305.343C571.449 304.894 570.593 304.254 569.987 303.423C569.382 302.593 569.079 301.624 569.079 300.517C569.079 299.531 569.33 298.675 569.831 297.949C570.333 297.205 571.051 296.617 571.985 296.184C571.258 295.786 570.696 295.268 570.298 294.628C569.918 293.97 569.728 293.218 569.728 292.37C569.728 291.35 570.004 290.459 570.558 289.698C571.129 288.937 571.924 288.349 572.945 287.934C573.965 287.518 575.142 287.311 576.474 287.311C577.823 287.311 579.008 287.518 580.028 287.934C581.049 288.349 581.844 288.937 582.415 289.698C582.986 290.459 583.271 291.35 583.271 292.37C583.271 293.218 583.073 293.962 582.675 294.602C582.277 295.242 581.706 295.769 580.962 296.184ZM576.474 289.957C575.418 289.957 574.58 290.182 573.957 290.632C573.351 291.082 573.049 291.713 573.049 292.526C573.049 293.304 573.351 293.927 573.957 294.394C574.58 294.844 575.418 295.069 576.474 295.069C577.546 295.069 578.394 294.844 579.016 294.394C579.639 293.927 579.95 293.304 579.95 292.526C579.95 291.713 579.63 291.082 578.99 290.632C578.368 290.182 577.529 289.957 576.474 289.957ZM576.474 303.345C577.719 303.345 578.705 303.086 579.431 302.567C580.158 302.048 580.521 301.33 580.521 300.414C580.521 299.514 580.158 298.805 579.431 298.286C578.705 297.767 577.719 297.508 576.474 297.508C575.228 297.508 574.251 297.767 573.542 298.286C572.833 298.805 572.478 299.514 572.478 300.414C572.478 301.33 572.833 302.048 573.542 302.567C574.251 303.086 575.228 303.345 576.474 303.345Z" fill="white"/>
<path d="M350.449 291.617V305.239H347.92V293.738H345.04V291.617H350.449ZM357.861 291.617V305.239H355.331V293.738H352.451V291.617H357.861Z" fill="white"/>
<path d="M295.257 73.2681V86.8898H292.727V75.3892H289.847V73.2681H295.257ZM310.102 83.7957H307.689V86.8898H305.237V83.7957H297.764V82.0444L304.478 73.2681H307.183L300.858 81.6552H305.315V78.9114H307.689V81.6552H310.102V83.7957Z" fill="white"/>
<path d="M297.623 521.447V523.587H287.582V521.894L292.992 516.757C293.602 516.173 294.01 515.667 294.218 515.239C294.438 514.798 294.549 514.363 294.549 513.935C294.549 513.299 294.335 512.813 293.906 512.476C293.478 512.138 292.849 511.97 292.019 511.97C290.631 511.97 289.567 512.443 288.828 513.39L287.057 512.028C287.589 511.315 288.302 510.763 289.197 510.374C290.105 509.972 291.117 509.771 292.233 509.771C293.712 509.771 294.892 510.121 295.775 510.822C296.657 511.522 297.098 512.476 297.098 513.682C297.098 514.422 296.942 515.116 296.631 515.764C296.319 516.413 295.723 517.152 294.841 517.983L291.202 521.447H297.623ZM304.708 523.782C303.619 523.782 302.646 523.509 301.79 522.964C300.933 522.407 300.259 521.602 299.766 520.551C299.273 519.488 299.026 518.229 299.026 516.776C299.026 515.323 299.273 514.071 299.766 513.021C300.259 511.957 300.933 511.152 301.79 510.608C302.646 510.05 303.619 509.771 304.708 509.771C305.798 509.771 306.771 510.05 307.627 510.608C308.497 511.152 309.178 511.957 309.671 513.021C310.164 514.071 310.41 515.323 310.41 516.776C310.41 518.229 310.164 519.488 309.671 520.551C309.178 521.602 308.497 522.407 307.627 522.964C306.771 523.509 305.798 523.782 304.708 523.782ZM304.708 521.583C305.681 521.583 306.447 521.181 307.005 520.376C307.575 519.572 307.861 518.372 307.861 516.776C307.861 515.181 307.575 513.981 307.005 513.176C306.447 512.372 305.681 511.97 304.708 511.97C303.748 511.97 302.983 512.372 302.412 513.176C301.854 513.981 301.575 515.181 301.575 516.776C301.575 518.372 301.854 519.572 302.412 520.376C302.983 521.181 303.748 521.583 304.708 521.583Z" fill="white"/>
<path d="M144.306 445.551C146.174 445.551 147.621 446.135 148.646 447.303C149.683 448.47 150.202 450.144 150.202 452.323C150.202 453.854 149.923 455.164 149.366 456.254C148.808 457.331 148.023 458.154 147.011 458.725C146.012 459.283 144.851 459.562 143.528 459.562C142.827 459.562 142.166 459.491 141.543 459.348C140.933 459.192 140.401 458.972 139.947 458.686L140.881 456.779C141.556 457.22 142.419 457.441 143.469 457.441C144.78 457.441 145.805 457.039 146.544 456.234C147.283 455.43 147.653 454.269 147.653 452.751V452.732C147.251 453.199 146.739 453.556 146.116 453.802C145.493 454.036 144.793 454.152 144.014 454.152C143.119 454.152 142.315 453.984 141.601 453.646C140.888 453.296 140.33 452.803 139.928 452.167C139.526 451.532 139.325 450.799 139.325 449.969C139.325 449.086 139.545 448.314 139.986 447.653C140.427 446.978 141.024 446.459 141.776 446.096C142.529 445.733 143.372 445.551 144.306 445.551ZM144.501 452.167C145.318 452.167 145.98 451.947 146.486 451.506C147.005 451.065 147.264 450.507 147.264 449.832C147.264 449.171 147.011 448.626 146.505 448.198C146.012 447.757 145.325 447.536 144.442 447.536C143.651 447.536 143.009 447.75 142.516 448.178C142.023 448.593 141.776 449.151 141.776 449.852C141.776 450.565 142.023 451.13 142.516 451.545C143.009 451.96 143.671 452.167 144.501 452.167Z" fill="white"/>
<path d="M146.308 147.135V149.275H136.267V147.582L141.677 142.445C142.286 141.861 142.695 141.355 142.903 140.927C143.123 140.486 143.233 140.052 143.233 139.623C143.233 138.988 143.019 138.501 142.591 138.164C142.163 137.827 141.534 137.658 140.704 137.658C139.316 137.658 138.252 138.132 137.512 139.079L135.741 137.716C136.273 137.003 136.987 136.452 137.882 136.062C138.79 135.66 139.802 135.459 140.918 135.459C142.397 135.459 143.577 135.809 144.459 136.51C145.341 137.21 145.783 138.164 145.783 139.37C145.783 140.11 145.627 140.804 145.316 141.453C145.004 142.101 144.407 142.841 143.525 143.671L139.886 147.135H146.308ZM152.477 135.654V149.275H149.948V137.775H147.068V135.654H152.477Z" fill="white"/>
<path d="M458.235 457.227V459.367H448.194V457.674L453.603 452.537C454.213 451.953 454.622 451.447 454.829 451.019C455.05 450.578 455.16 450.144 455.16 449.716C455.16 449.08 454.946 448.593 454.518 448.256C454.09 447.919 453.461 447.75 452.63 447.75C451.242 447.75 450.179 448.224 449.439 449.171L447.668 447.808C448.2 447.095 448.914 446.544 449.809 446.154C450.717 445.752 451.729 445.551 452.844 445.551C454.323 445.551 455.504 445.901 456.386 446.602C457.268 447.303 457.709 448.256 457.709 449.463C457.709 450.202 457.554 450.896 457.242 451.545C456.931 452.193 456.334 452.933 455.452 453.763L451.813 457.227H458.235ZM464.404 445.746V459.367H461.874V447.867H458.994V445.746H464.404Z" fill="white"/>
<path d="M457.826 140.869C458.721 140.869 459.525 141.044 460.239 141.394C460.952 141.731 461.51 142.218 461.912 142.854C462.314 143.489 462.515 144.222 462.515 145.053C462.515 145.935 462.295 146.713 461.854 147.388C461.413 148.049 460.816 148.562 460.064 148.925C459.311 149.288 458.468 149.47 457.534 149.47C455.666 149.47 454.213 148.886 453.175 147.719C452.15 146.551 451.638 144.877 451.638 142.698C451.638 141.167 451.916 139.863 452.474 138.787C453.032 137.697 453.811 136.873 454.809 136.315C455.821 135.744 456.989 135.459 458.312 135.459C459.013 135.459 459.668 135.537 460.278 135.693C460.9 135.835 461.439 136.049 461.893 136.335L460.959 138.242C460.284 137.801 459.421 137.58 458.371 137.58C457.06 137.58 456.035 137.982 455.296 138.787C454.556 139.591 454.187 140.752 454.187 142.27V142.289C454.589 141.822 455.101 141.472 455.724 141.239C456.347 140.992 457.047 140.869 457.826 140.869ZM457.398 147.485C458.189 147.485 458.831 147.277 459.324 146.862C459.817 146.434 460.064 145.87 460.064 145.169C460.064 144.456 459.817 143.891 459.324 143.476C458.831 143.061 458.169 142.854 457.339 142.854C456.522 142.854 455.854 143.074 455.335 143.515C454.829 143.956 454.576 144.514 454.576 145.189C454.576 145.85 454.822 146.402 455.315 146.843C455.821 147.271 456.515 147.485 457.398 147.485Z" fill="white"/>
<path d="M513.664 291.617V305.239H511.134V293.738H508.254V291.617H513.664ZM522.048 305.433C520.958 305.433 519.985 305.161 519.129 304.616C518.273 304.058 517.598 303.254 517.105 302.203C516.612 301.139 516.366 299.881 516.366 298.428C516.366 296.975 516.612 295.723 517.105 294.672C517.598 293.608 518.273 292.804 519.129 292.259C519.985 291.701 520.958 291.422 522.048 291.422C523.138 291.422 524.111 291.701 524.967 292.259C525.836 292.804 526.517 293.608 527.01 294.672C527.503 295.723 527.749 296.975 527.749 298.428C527.749 299.881 527.503 301.139 527.01 302.203C526.517 303.254 525.836 304.058 524.967 304.616C524.111 305.161 523.138 305.433 522.048 305.433ZM522.048 303.234C523.021 303.234 523.786 302.832 524.344 302.028C524.915 301.224 525.2 300.024 525.2 298.428C525.2 296.832 524.915 295.632 524.344 294.828C523.786 294.024 523.021 293.621 522.048 293.621C521.088 293.621 520.322 294.024 519.752 294.828C519.194 295.632 518.915 296.832 518.915 298.428C518.915 300.024 519.194 301.224 519.752 302.028C520.322 302.832 521.088 303.234 522.048 303.234Z" fill="white"/>
<path d="M85.9472 291.617V293.31L80.6542 305.239H77.9494L83.0672 293.758H77.7158V296.073H75.3612V291.617H85.9472Z" fill="white"/>
<path d="M119.731 302.302V303.908H112.2V302.638L116.257 298.785C116.714 298.347 117.021 297.968 117.177 297.647C117.342 297.316 117.425 296.99 117.425 296.669C117.425 296.192 117.264 295.827 116.943 295.574C116.622 295.321 116.15 295.195 115.527 295.195C114.486 295.195 113.688 295.55 113.134 296.26L111.806 295.239C112.205 294.703 112.74 294.29 113.411 293.998C114.092 293.696 114.851 293.546 115.688 293.546C116.797 293.546 117.683 293.808 118.344 294.334C119.006 294.859 119.337 295.574 119.337 296.479C119.337 297.034 119.22 297.554 118.986 298.041C118.753 298.527 118.305 299.082 117.644 299.705L114.914 302.302H119.731ZM128.225 302.302V303.908H120.694V302.638L124.752 298.785C125.209 298.347 125.515 297.968 125.671 297.647C125.837 297.316 125.919 296.99 125.919 296.669C125.919 296.192 125.759 295.827 125.438 295.574C125.117 295.321 124.645 295.195 124.022 295.195C122.981 295.195 122.183 295.55 121.628 296.26L120.3 295.239C120.699 294.703 121.234 294.29 121.906 293.998C122.587 293.696 123.346 293.546 124.182 293.546C125.292 293.546 126.177 293.808 126.839 294.334C127.5 294.859 127.831 295.574 127.831 296.479C127.831 297.034 127.714 297.554 127.481 298.041C127.247 298.527 126.8 299.082 126.138 299.705L123.409 302.302H128.225Z" fill="white"/>
<path d="M203.248 297.647C204.688 297.647 205.754 297.929 206.445 298.493C207.135 299.048 207.481 299.807 207.481 300.77C207.481 301.383 207.33 301.938 207.028 302.434C206.727 302.93 206.274 303.324 205.671 303.616C205.068 303.908 204.324 304.054 203.438 304.054C202.708 304.054 202.003 303.952 201.322 303.747C200.641 303.533 200.067 303.241 199.6 302.872L200.403 301.398C200.782 301.709 201.234 301.957 201.76 302.142C202.295 302.317 202.845 302.405 203.409 302.405C204.08 302.405 204.606 302.268 204.985 301.996C205.374 301.714 205.569 301.329 205.569 300.843C205.569 300.318 205.36 299.924 204.941 299.661C204.533 299.388 203.827 299.252 202.825 299.252H200.359L200.884 293.692H206.883V295.282H202.49L202.271 297.647H203.248Z" fill="white"/>
<path d="M176.384 165.252V166.521L172.414 175.468H170.385L174.224 166.857H170.21V168.594H168.444V165.252H176.384Z" fill="white"/>
<path d="M168.962 420.297V430.513H167.065V421.888H164.905V420.297H168.962ZM175.25 430.659C174.433 430.659 173.703 430.455 173.061 430.046C172.419 429.628 171.913 429.025 171.543 428.237C171.173 427.439 170.988 426.495 170.988 425.405C170.988 424.316 171.173 423.377 171.543 422.589C171.913 421.791 172.419 421.188 173.061 420.779C173.703 420.361 174.433 420.151 175.25 420.151C176.067 420.151 176.797 420.361 177.439 420.779C178.091 421.188 178.602 421.791 178.972 422.589C179.341 423.377 179.526 424.316 179.526 425.405C179.526 426.495 179.341 427.439 178.972 428.237C178.602 429.025 178.091 429.628 177.439 430.046C176.797 430.455 176.067 430.659 175.25 430.659ZM175.25 429.01C175.98 429.01 176.554 428.709 176.972 428.105C177.4 427.502 177.614 426.602 177.614 425.405C177.614 424.209 177.4 423.309 176.972 422.705C176.554 422.102 175.98 421.801 175.25 421.801C174.53 421.801 173.956 422.102 173.528 422.705C173.11 423.309 172.9 424.209 172.9 425.405C172.9 426.602 173.11 427.502 173.528 428.105C173.956 428.709 174.53 429.01 175.25 429.01Z" fill="white"/>
<path d="M433.238 173.147H431.428V175.468H429.589V173.147H423.985V171.834L429.02 165.252H431.049L426.306 171.542H429.648V169.484H431.428V171.542H433.238V173.147Z" fill="white"/>
<path d="M426.178 420.297V430.514H424.28V421.888H422.12V420.297H426.178ZM432.845 424.209C433.517 424.209 434.12 424.34 434.655 424.603C435.19 424.856 435.609 425.221 435.91 425.697C436.212 426.174 436.363 426.724 436.363 427.347C436.363 428.008 436.197 428.592 435.866 429.098C435.536 429.594 435.088 429.978 434.524 430.251C433.959 430.523 433.327 430.659 432.626 430.659C431.225 430.659 430.136 430.222 429.357 429.346C428.589 428.47 428.204 427.215 428.204 425.581C428.204 424.432 428.413 423.455 428.832 422.647C429.25 421.83 429.834 421.212 430.583 420.794C431.342 420.365 432.218 420.151 433.21 420.151C433.736 420.151 434.227 420.21 434.684 420.327C435.151 420.434 435.555 420.594 435.896 420.808L435.195 422.238C434.689 421.908 434.042 421.742 433.254 421.742C432.271 421.742 431.503 422.044 430.948 422.647C430.393 423.25 430.116 424.121 430.116 425.259V425.274C430.418 424.924 430.802 424.661 431.269 424.486C431.736 424.301 432.262 424.209 432.845 424.209ZM432.524 429.171C433.118 429.171 433.599 429.015 433.969 428.704C434.339 428.383 434.524 427.959 434.524 427.434C434.524 426.899 434.339 426.476 433.969 426.164C433.599 425.853 433.103 425.697 432.48 425.697C431.867 425.697 431.366 425.863 430.977 426.194C430.598 426.524 430.408 426.943 430.408 427.449C430.408 427.945 430.593 428.358 430.963 428.689C431.342 429.01 431.863 429.171 432.524 429.171Z" fill="white"/>
<path d="M390.924 302.302V303.908H383.394V302.638L387.451 298.785C387.908 298.347 388.215 297.968 388.37 297.647C388.536 297.316 388.618 296.99 388.618 296.669C388.618 296.192 388.458 295.827 388.137 295.574C387.816 295.321 387.344 295.195 386.721 295.195C385.68 295.195 384.882 295.55 384.328 296.26L382.999 295.239C383.398 294.703 383.934 294.29 384.605 293.998C385.286 293.696 386.045 293.546 386.882 293.546C387.991 293.546 388.876 293.808 389.538 294.334C390.199 294.859 390.53 295.574 390.53 296.479C390.53 297.034 390.414 297.554 390.18 298.041C389.947 298.527 389.499 299.082 388.837 299.705L386.108 302.302H390.924ZM395.551 293.692V303.908H393.654V295.282H391.494V293.692H395.551Z" fill="white"/>
<path d="M299.547 205.055V206.66H292.016V205.39L296.074 201.537C296.531 201.1 296.837 200.72 296.993 200.399C297.158 200.068 297.241 199.742 297.241 199.421C297.241 198.944 297.081 198.58 296.759 198.327C296.438 198.074 295.967 197.947 295.344 197.947C294.303 197.947 293.505 198.302 292.95 199.013L291.622 197.991C292.021 197.456 292.556 197.042 293.228 196.75C293.909 196.449 294.668 196.298 295.504 196.298C296.614 196.298 297.499 196.561 298.161 197.086C298.822 197.612 299.153 198.327 299.153 199.232C299.153 199.786 299.036 200.307 298.803 200.793C298.569 201.28 298.122 201.834 297.46 202.457L294.731 205.055H299.547ZM308.042 205.055V206.66H300.511V205.39L304.568 201.537C305.025 201.1 305.332 200.72 305.488 200.399C305.653 200.068 305.736 199.742 305.736 199.421C305.736 198.944 305.575 198.58 305.254 198.327C304.933 198.074 304.461 197.947 303.838 197.947C302.797 197.947 301.999 198.302 301.445 199.013L300.117 197.991C300.516 197.456 301.051 197.042 301.722 196.75C302.403 196.449 303.162 196.298 303.999 196.298C305.108 196.298 305.993 196.561 306.655 197.086C307.317 197.612 307.648 198.327 307.648 199.232C307.648 199.786 307.531 200.307 307.297 200.793C307.064 201.28 306.616 201.834 305.955 202.457L303.225 205.055H308.042Z" fill="white"/>
<path d="M297.133 473.509V483.725H295.236V475.1H293.076V473.509H297.133ZM302.356 477.464C303.796 477.464 304.862 477.746 305.552 478.31C306.243 478.865 306.589 479.624 306.589 480.587C306.589 481.2 306.438 481.755 306.136 482.251C305.835 482.747 305.382 483.141 304.779 483.433C304.176 483.725 303.431 483.871 302.546 483.871C301.816 483.871 301.111 483.769 300.43 483.564C299.749 483.35 299.175 483.058 298.708 482.689L299.51 481.215C299.89 481.526 300.342 481.774 300.868 481.959C301.403 482.134 301.952 482.222 302.517 482.222C303.188 482.222 303.713 482.085 304.093 481.813C304.482 481.531 304.677 481.147 304.677 480.66C304.677 480.135 304.468 479.741 304.049 479.478C303.64 479.205 302.935 479.069 301.933 479.069H299.466L299.992 473.509H305.99V475.1H301.597L301.378 477.464H302.356Z" fill="white"/>
<path d="M345.416 439.918V441.523H337.885V440.254L341.943 436.401C342.4 435.963 342.706 435.583 342.862 435.262C343.028 434.931 343.11 434.605 343.11 434.284C343.11 433.808 342.95 433.443 342.629 433.19C342.308 432.937 341.836 432.81 341.213 432.81C340.172 432.81 339.374 433.165 338.819 433.876L337.491 432.854C337.89 432.319 338.425 431.905 339.097 431.614C339.778 431.312 340.537 431.161 341.373 431.161C342.483 431.161 343.368 431.424 344.03 431.949C344.691 432.475 345.022 433.19 345.022 434.095C345.022 434.649 344.905 435.17 344.672 435.656C344.438 436.143 343.991 436.697 343.329 437.32L340.6 439.918H345.416ZM353.911 439.918V441.523H346.38V440.254L350.437 436.401C350.894 435.963 351.201 435.583 351.357 435.262C351.522 434.931 351.605 434.605 351.605 434.284C351.605 433.808 351.444 433.443 351.123 433.19C350.802 432.937 350.33 432.81 349.707 432.81C348.666 432.81 347.869 433.165 347.314 433.876L345.986 432.854C346.385 432.319 346.92 431.905 347.591 431.614C348.272 431.312 349.031 431.161 349.868 431.161C350.977 431.161 351.863 431.424 352.524 431.949C353.186 432.475 353.517 433.19 353.517 434.095C353.517 434.649 353.4 435.17 353.166 435.656C352.933 436.143 352.485 436.697 351.824 437.32L349.094 439.918H353.911Z" fill="white"/>
<path d="M396.57 383.6V384.87L392.601 393.816H390.572L394.41 385.206H390.397V386.942H388.631V383.6H396.57Z" fill="white"/>
<path d="M434.57 339.564V349.78H432.673V341.155H430.513V339.564H434.57ZM444.303 339.564V340.833L440.333 349.78H438.305L442.143 341.169H438.129V342.906H436.364V339.564H444.303Z" fill="white"/>
<path d="M301.015 120.651V122.257H293.484V120.987L297.542 117.134C297.999 116.696 298.305 116.317 298.461 115.996C298.627 115.665 298.709 115.339 298.709 115.018C298.709 114.541 298.549 114.176 298.228 113.923C297.907 113.67 297.435 113.544 296.812 113.544C295.771 113.544 294.973 113.899 294.418 114.609L293.09 113.588C293.489 113.052 294.024 112.639 294.696 112.347C295.377 112.045 296.136 111.895 296.972 111.895C298.082 111.895 298.967 112.157 299.629 112.683C300.29 113.208 300.621 113.923 300.621 114.828C300.621 115.383 300.504 115.903 300.271 116.39C300.037 116.876 299.59 117.431 298.928 118.053L296.199 120.651H301.015ZM305.642 112.04V122.257H303.745V113.631H301.585V112.04H305.642Z" fill="white"/>
<path d="M477.218 293.692V303.908H475.32V295.282H473.16V293.692H477.218ZM483.506 304.054C482.689 304.054 481.959 303.849 481.317 303.441C480.675 303.022 480.169 302.419 479.799 301.631C479.429 300.833 479.244 299.889 479.244 298.8C479.244 297.71 479.429 296.771 479.799 295.983C480.169 295.185 480.675 294.582 481.317 294.173C481.959 293.755 482.689 293.546 483.506 293.546C484.323 293.546 485.053 293.755 485.695 294.173C486.347 294.582 486.858 295.185 487.228 295.983C487.597 296.771 487.782 297.71 487.782 298.8C487.782 299.889 487.597 300.833 487.228 301.631C486.858 302.419 486.347 303.022 485.695 303.441C485.053 303.849 484.323 304.054 483.506 304.054ZM483.506 302.405C484.236 302.405 484.81 302.103 485.228 301.5C485.656 300.896 485.87 299.996 485.87 298.8C485.87 297.603 485.656 296.703 485.228 296.1C484.81 295.496 484.236 295.195 483.506 295.195C482.786 295.195 482.212 295.496 481.784 296.1C481.365 296.703 481.156 297.603 481.156 298.8C481.156 299.996 481.365 300.896 481.784 301.5C482.212 302.103 482.786 302.405 483.506 302.405Z" fill="white"/>
</svg>
