<svg width="506" height="506" viewBox="0 0 506 506" fill="none" xmlns="http://www.w3.org/2000/svg">
<path d="M252.836 456.277C239.106 456.277 227.975 467.408 227.975 481.139C227.975 494.869 239.106 506 252.836 506C266.567 506 277.698 494.869 277.698 481.139C277.698 467.408 266.567 456.277 252.836 456.277Z" fill="white" fill-opacity="0.1"/>
<path d="M252.412 419.838C242.72 419.838 234.863 427.695 234.863 437.387C234.863 447.079 242.72 454.936 252.412 454.936C262.104 454.936 269.961 447.079 269.961 437.387C269.961 427.695 262.104 419.838 252.412 419.838Z" fill="white" fill-opacity="0.1"/>
<path d="M239.675 405.093C239.675 397.823 245.568 391.931 252.837 391.931C260.106 391.931 265.999 397.824 265.999 405.093C265.999 412.362 260.106 418.254 252.837 418.254C245.568 418.254 239.675 412.362 239.675 405.093Z" fill="white" fill-opacity="0.1"/>
<path d="M252.836 49.7225C239.106 49.7225 227.975 38.5918 227.975 24.8613C227.975 11.1308 239.106 -1.20036e-06 252.836 0C266.567 1.20036e-06 277.697 11.1308 277.697 24.8613C277.697 38.5918 266.567 49.7225 252.836 49.7225Z" fill="white" fill-opacity="0.1"/>
<path d="M235.288 68.7341C235.288 78.4263 243.145 86.2833 252.837 86.2833C262.529 86.2833 270.386 78.4263 270.386 68.7341C270.386 59.042 262.529 51.185 252.837 51.185C243.145 51.185 235.288 59.042 235.288 68.7341Z" fill="white" fill-opacity="0.1"/>
<path d="M252.836 114.07C245.567 114.07 239.675 108.177 239.675 100.908C239.675 93.6386 245.567 87.7458 252.836 87.7458C260.106 87.7458 265.998 93.6386 265.998 100.908C265.998 108.177 260.106 114.07 252.836 114.07Z" fill="white" fill-opacity="0.1"/>
<path d="M481.139 278.533C467.408 278.533 456.277 267.402 456.277 253.672C456.277 239.941 467.408 228.81 481.139 228.81C494.869 228.81 506 239.941 506 253.672C506 267.402 494.869 278.533 481.139 278.533Z" fill="white" fill-opacity="0.1"/>
<path d="M437.266 271.22C427.574 271.22 419.717 263.363 419.717 253.671C419.717 243.979 427.574 236.122 437.266 236.122C446.958 236.122 454.815 243.979 454.815 253.671C454.815 263.363 446.958 271.22 437.266 271.22Z" fill="white" fill-opacity="0.1"/>
<path d="M391.931 253.671C391.931 260.94 397.824 266.833 405.093 266.833C412.362 266.833 418.255 260.94 418.255 253.671C418.255 246.402 412.362 240.509 405.093 240.509C397.824 240.509 391.931 246.402 391.931 253.671Z" fill="white" fill-opacity="0.1"/>
<path d="M24.8613 278.533C38.5917 278.533 49.7225 267.402 49.7225 253.671C49.7225 239.941 38.5918 228.81 24.8613 228.81C11.1308 228.81 1.20036e-06 239.941 0 253.671C-1.20036e-06 267.402 11.1308 278.533 24.8613 278.533Z" fill="white" fill-opacity="0.1"/>
<path d="M86.2833 253.671C86.2833 263.363 78.4262 271.22 68.7341 271.22C59.042 271.22 51.185 263.363 51.185 253.671C51.185 243.979 59.042 236.122 68.7341 236.122C78.4262 236.122 86.2833 243.979 86.2833 253.671Z" fill="white" fill-opacity="0.1"/>
<path d="M100.907 266.833C108.176 266.833 114.069 260.94 114.069 253.671C114.069 246.402 108.176 240.509 100.907 240.509C93.6376 240.509 87.7448 246.402 87.7448 253.671C87.7448 260.94 93.6376 266.833 100.907 266.833Z" fill="white" fill-opacity="0.1"/>
<path d="M252.838 277.862C239.108 277.862 227.977 266.731 227.977 253.001C227.977 239.27 239.108 228.14 252.838 228.14C266.569 228.14 277.699 239.27 277.699 253.001C277.699 266.731 266.569 277.862 252.838 277.862Z" fill="white" fill-opacity="0.1"/>
<path d="M397.191 432.849C387.482 423.14 387.482 407.399 397.191 397.69C406.9 387.981 422.641 387.981 432.35 397.69C442.059 407.399 442.059 423.14 432.35 432.849C422.641 442.558 406.9 442.558 397.191 432.849Z" fill="white" fill-opacity="0.1"/>
<path d="M371.34 396.656C364.486 389.803 364.486 378.691 371.34 371.838C378.193 364.984 389.305 364.984 396.158 371.838C403.011 378.691 403.011 389.803 396.158 396.656C389.305 403.509 378.193 403.509 371.34 396.656Z" fill="white" fill-opacity="0.1"/>
<path d="M351.691 352.189C346.551 357.329 346.551 365.662 351.691 370.802C356.831 375.942 365.165 375.942 370.305 370.802C375.445 365.662 375.445 357.329 370.305 352.189C365.165 347.049 356.831 347.048 351.691 352.189Z" fill="white" fill-opacity="0.1"/>
<path d="M107.525 74.3286C117.234 84.0376 117.234 99.7788 107.525 109.488C97.8164 119.197 82.0752 119.197 72.3662 109.488C62.6573 99.7788 62.6573 84.0376 72.3662 74.3286C82.0752 64.6197 97.8164 64.6197 107.525 74.3286Z" fill="white" fill-opacity="0.1"/>
<path d="M133.378 135.338C140.232 128.485 140.232 117.374 133.378 110.52C126.525 103.667 115.414 103.667 108.56 110.52C101.707 117.374 101.707 128.485 108.56 135.338C115.414 142.192 126.525 142.192 133.378 135.338Z" fill="white" fill-opacity="0.1"/>
<path d="M153.027 136.373C158.167 141.513 158.167 149.847 153.027 154.987C147.887 160.127 139.553 160.127 134.413 154.987C129.273 149.847 129.273 141.513 134.413 136.373C139.553 131.233 147.887 131.233 153.027 136.373Z" fill="white" fill-opacity="0.1"/>
<path d="M107.523 397.555C117.232 407.264 117.232 423.005 107.523 432.714C97.8145 442.423 82.0733 442.423 72.3643 432.714C62.6554 423.005 62.6554 407.264 72.3643 397.555C82.0733 387.846 97.8145 387.846 107.523 397.555Z" fill="white" fill-opacity="0.1"/>
<path d="M351.691 136.238C346.551 141.378 346.551 149.712 351.691 154.852C356.831 159.992 365.164 159.992 370.304 154.852C375.444 149.712 375.444 141.378 370.304 136.238C365.164 131.098 356.831 131.098 351.691 136.238Z" fill="white" fill-opacity="0.1"/>
<path d="M371.335 135.204C364.482 128.351 364.482 117.239 371.335 110.386C378.189 103.533 389.3 103.533 396.153 110.386C403.007 117.239 403.007 128.351 396.153 135.204C389.3 142.058 378.189 142.058 371.335 135.204Z" fill="white" fill-opacity="0.1"/>
<path d="M397.189 109.352C387.48 99.643 387.48 83.9017 397.189 74.1928C406.898 64.4839 422.64 64.4839 432.348 74.1928C442.057 83.9017 442.057 99.643 432.348 109.352C422.64 119.061 406.898 119.061 397.189 109.352Z" fill="white" fill-opacity="0.1"/>
<path d="M133.377 396.521C140.23 389.668 140.23 378.556 133.377 371.703C126.523 364.85 115.412 364.85 108.558 371.703C101.705 378.556 101.705 389.668 108.558 396.521C115.412 403.375 126.523 403.375 133.377 396.521Z" fill="white" fill-opacity="0.1"/>
<path d="M153.024 352.055C158.164 357.195 158.164 365.528 153.024 370.669C147.884 375.809 139.55 375.808 134.41 370.668C129.27 365.528 129.27 357.195 134.41 352.055C139.55 346.915 147.884 346.915 153.024 352.055Z" fill="white" fill-opacity="0.1"/>
<path d="M251.358 456.321C251.847 456.292 252.34 456.278 252.836 456.278C252.992 456.278 253.148 456.279 253.304 456.282V454.914C253.008 454.929 252.711 454.936 252.412 454.936C252.058 454.936 251.706 454.926 251.358 454.905V456.321Z" fill="white" fill-opacity="0.4"/>
<path d="M243.156 458.233L191.478 406.555H239.755C239.702 406.075 239.675 405.587 239.675 405.093C239.675 404.931 239.678 404.77 239.684 404.609H189.532L154.22 369.297C153.858 369.775 153.459 370.233 153.024 370.669C152.993 370.7 152.962 370.73 152.931 370.76L186.78 404.609H112.474C112.773 405.248 113.043 405.898 113.284 406.555H188.726L241.288 459.117C241.896 458.797 242.519 458.502 243.156 458.233Z" fill="white" fill-opacity="0.4"/>
<path d="M232.459 495.385L96.5747 439.1C95.4488 439.41 94.3052 439.64 93.1533 439.789L235.142 498.603C234.161 497.609 233.262 496.532 232.459 495.385Z" fill="white" fill-opacity="0.4"/>
<path d="M65.4323 410.968C65.6163 409.88 65.873 408.802 66.2023 407.741L10.9095 274.252C9.78666 273.49 8.72951 272.638 7.74833 271.706L65.4323 410.968Z" fill="white" fill-opacity="0.4"/>
<path d="M0.00837426 253.02C0.00873061 253.006 0.00908697 252.991 0.00950271 252.977L0 253L0.00837426 253.02Z" fill="white" fill-opacity="0.4"/>
<path d="M6.79687 236.591C7.81461 235.515 8.92747 234.53 10.122 233.649L66.0231 98.6916C65.7088 97.5793 65.4734 96.4493 65.317 95.3106L6.79687 236.591Z" fill="white" fill-opacity="0.4"/>
<path d="M91.0721 67.0727C92.3834 67.1318 93.691 67.2942 94.9816 67.5598L232.459 10.6148C233.263 9.46734 234.161 8.39092 235.143 7.39679L91.0721 67.0727Z" fill="white" fill-opacity="0.4"/>
<path d="M252.998 0.000950271C252.999 0.000950271 253.001 0.000950271 253.002 0.000950271L253 0L252.998 0.000950271Z" fill="white" fill-opacity="0.4"/>
<path d="M270.298 7.16493C271.314 8.16794 272.245 9.25793 273.077 10.4227L410.387 67.2984C411.761 67.0538 413.15 66.9252 414.541 66.9125L270.298 7.16493Z" fill="white" fill-opacity="0.4"/>
<path d="M439.612 92.7254C439.561 94.0516 439.405 95.3744 439.144 96.6804L495.878 233.649C497.072 234.53 498.185 235.515 499.203 236.591L439.612 92.7254Z" fill="white" fill-opacity="0.4"/>
<path d="M505.99 252.977C505.991 252.991 505.991 253.006 505.992 253.02L506 253L505.99 252.977Z" fill="white" fill-opacity="0.4"/>
<path d="M498.251 271.706C497.27 272.638 496.213 273.49 495.09 274.252L438.997 409.673C439.28 410.901 439.468 412.145 439.562 413.396L498.251 271.706Z" fill="white" fill-opacity="0.4"/>
<path d="M412.314 440.01C411.108 439.891 409.909 439.684 408.727 439.389L273.078 495.577C272.246 496.742 271.316 497.831 270.299 498.834L412.314 440.01Z" fill="white" fill-opacity="0.4"/>
<path d="M252.999 506C252.999 506 253 506 252.999 506Z" fill="white" fill-opacity="0.4"/>
<path d="M263.714 458.778L315.937 406.555H391.48C391.726 405.897 392 405.248 392.304 404.609H317.883L351.69 370.802C351.223 370.334 350.798 369.84 350.415 369.325L315.131 404.609H265.99C265.996 404.77 265.999 404.931 265.999 405.093C265.999 405.587 265.971 406.075 265.918 406.555H313.185L261.798 457.942C262.451 458.194 263.09 458.473 263.714 458.778Z" fill="white" fill-opacity="0.4"/>
<path d="M253.304 418.247C253.149 418.252 252.993 418.255 252.837 418.255C252.337 418.255 251.843 418.227 251.358 418.173V419.869C251.706 419.848 252.058 419.838 252.412 419.838C252.711 419.838 253.008 419.845 253.304 419.86V418.247Z" fill="white" fill-opacity="0.4"/>
<path d="M253.304 391.939V277.858C253.149 277.861 252.994 277.862 252.838 277.862C252.341 277.862 251.847 277.848 251.358 277.819V392.013C251.843 391.959 252.337 391.931 252.837 391.931C252.993 391.931 253.149 391.934 253.304 391.939Z" fill="white" fill-opacity="0.4"/>
<path d="M235.026 270.345C235.478 270.81 235.949 271.257 236.437 271.686L154.422 353.701C154.047 353.178 153.629 352.677 153.168 352.202L235.026 270.345Z" fill="white" fill-opacity="0.4"/>
<path d="M227.996 252.027C227.983 252.35 227.977 252.675 227.977 253.001C227.977 253.327 227.983 253.651 227.995 253.973L114.065 253.973C114.067 253.873 114.069 253.772 114.069 253.671C114.069 253.114 114.034 252.566 113.967 252.027L227.996 252.027Z" fill="white" fill-opacity="0.4"/>
<path d="M271.523 269.401C271.43 269.508 271.336 269.613 271.241 269.717C270.899 270.093 270.546 270.459 270.182 270.813L351.625 352.256C351.647 352.233 351.669 352.211 351.691 352.189C352.136 351.744 352.604 351.338 353.092 350.971L271.523 269.401Z" fill="white" fill-opacity="0.4"/>
<path d="M368.827 350.913C369.342 351.296 369.836 351.721 370.304 352.188L405.258 317.234V392.294C405.898 392.029 406.548 391.792 407.204 391.583V315.288L458.51 263.983C458.218 263.344 457.953 262.691 457.715 262.025L407.204 312.536V266.665C406.569 266.767 405.919 266.824 405.258 266.832V314.482L368.827 350.913Z" fill="white" fill-opacity="0.4"/>
<path d="M391.935 253.973C391.933 253.873 391.931 253.772 391.931 253.671C391.931 253.114 391.966 252.566 392.033 252.027L277.681 252.027C277.694 252.35 277.7 252.675 277.7 253.001C277.7 253.326 277.694 253.651 277.681 253.973L391.935 253.973Z" fill="white" fill-opacity="0.4"/>
<path d="M405.258 240.51C405.919 240.518 406.569 240.575 407.204 240.678V193.466L458.085 244.348C458.346 243.703 458.633 243.072 458.945 242.456L407.204 190.714V115.461C406.548 115.252 405.898 115.015 405.258 114.75V188.768L370.809 154.319C370.647 154.5 370.478 154.678 370.304 154.852C370.015 155.141 369.716 155.414 369.408 155.671L405.258 191.52V240.51Z" fill="white" fill-opacity="0.4"/>
<path d="M352.514 155.609C352.231 155.371 351.957 155.118 351.691 154.852C351.494 154.655 351.304 154.454 351.123 154.248L270.182 235.188C270.647 235.641 271.094 236.112 271.523 236.6L352.514 155.609Z" fill="white" fill-opacity="0.4"/>
<path d="M350.872 137.135C351.129 136.827 351.402 136.528 351.691 136.239C351.865 136.065 352.043 135.896 352.224 135.734L317.881 101.392L391.837 101.392C391.568 100.751 391.328 100.102 391.116 99.4454L315.935 99.4454L263.713 47.2234C263.089 47.5278 262.449 47.8069 261.797 48.0591L313.183 99.4454L265.918 99.4454C265.971 99.9256 265.998 100.414 265.998 100.908C265.998 101.07 265.995 101.231 265.99 101.392L315.129 101.392L350.872 137.135Z" fill="white" fill-opacity="0.4"/>
<path d="M253.304 114.062C253.149 114.067 252.993 114.07 252.836 114.07C252.337 114.07 251.843 114.042 251.358 113.988V228.183C251.847 228.154 252.34 228.14 252.837 228.14C252.993 228.14 253.149 228.141 253.304 228.144V114.062Z" fill="white" fill-opacity="0.4"/>
<path d="M239.683 101.392C239.678 101.231 239.675 101.07 239.675 100.908C239.675 100.414 239.702 99.9256 239.755 99.4454L191.48 99.4454L243.157 47.7685C242.52 47.4991 241.897 47.204 241.289 46.8844L188.728 99.4454L113.643 99.4453C113.434 100.102 113.198 100.751 112.934 101.391L186.782 101.392L152.393 135.78C152.609 135.97 152.821 136.168 153.027 136.374C153.284 136.631 153.528 136.895 153.759 137.167L189.534 101.392L239.683 101.392Z" fill="white" fill-opacity="0.4"/>
<path d="M154.844 152.722C154.496 153.269 154.105 153.797 153.669 154.299L235.026 235.657C235.479 235.192 235.95 234.745 236.438 234.316L154.844 152.722Z" fill="white" fill-opacity="0.4"/>
<path d="M135.206 155.719C134.935 155.488 134.67 155.244 134.413 154.987C134.207 154.781 134.009 154.57 133.82 154.354L102.04 186.133L102.04 113.637C101.403 113.992 100.754 114.317 100.094 114.612L100.094 188.079L46.5905 241.583C46.9224 242.178 47.2305 242.788 47.5135 243.412L100.094 190.831L100.094 240.534C100.363 240.518 100.634 240.509 100.907 240.509C101.289 240.509 101.667 240.526 102.04 240.557L102.04 188.885L135.206 155.719Z" fill="white" fill-opacity="0.4"/>
<path d="M87.8465 252.027H86.2073C86.2576 252.568 86.2833 253.117 86.2833 253.671C86.2833 253.772 86.2824 253.873 86.2807 253.973H87.7482C87.7459 253.873 87.7448 253.772 87.7448 253.671C87.7448 253.114 87.7794 252.566 87.8465 252.027Z" fill="white" fill-opacity="0.4"/>
<path d="M100.094 266.808L100.094 315.171L47.9162 262.993C47.6553 263.637 47.3682 264.269 47.0562 264.885L100.094 317.923L100.094 392.433C100.754 392.727 101.403 393.052 102.04 393.408L102.04 319.869L134.319 352.148C134.349 352.117 134.379 352.086 134.41 352.055C134.846 351.62 135.304 351.221 135.782 350.859L102.04 317.117L102.04 266.785C101.667 266.817 101.289 266.833 100.907 266.833C100.634 266.833 100.363 266.825 100.094 266.808Z" fill="white" fill-opacity="0.4"/>
<path d="M49.7208 253.973H51.1875C51.1858 253.873 51.185 253.772 51.185 253.671C51.185 253.117 51.2107 252.568 51.261 252.027H49.669C49.7045 252.571 49.7225 253.119 49.7225 253.672C49.7225 253.773 49.7219 253.873 49.7208 253.973Z" fill="white" fill-opacity="0.4"/>
<path d="M251.358 49.6797V51.2469C251.845 51.2062 252.339 51.1854 252.837 51.1854C252.993 51.1854 253.149 51.1875 253.304 51.1915V49.7187C253.148 49.7215 252.992 49.723 252.836 49.723C252.34 49.723 251.847 49.7084 251.358 49.6797Z" fill="white" fill-opacity="0.4"/>
<path d="M253.304 86.2776C253.149 86.2816 252.993 86.2837 252.837 86.2837C252.339 86.2837 251.845 86.2629 251.358 86.2222V87.8284C251.843 87.7741 252.337 87.7462 252.836 87.7462C252.993 87.7462 253.149 87.749 253.304 87.7544V86.2776Z" fill="white" fill-opacity="0.4"/>
<path d="M456.331 252.027H454.739C454.789 252.568 454.815 253.117 454.815 253.671C454.815 253.772 454.814 253.873 454.812 253.973H456.279C456.278 253.873 456.277 253.773 456.277 253.672C456.277 253.119 456.295 252.571 456.331 252.027Z" fill="white" fill-opacity="0.4"/>
<path d="M419.719 253.973C419.717 253.873 419.717 253.772 419.717 253.671C419.717 253.117 419.742 252.568 419.793 252.027H418.153C418.221 252.566 418.255 253.114 418.255 253.671C418.255 253.772 418.254 253.873 418.252 253.973H419.719Z" fill="white" fill-opacity="0.4"/>
<path fill-rule="evenodd" clip-rule="evenodd" d="M252.836 458.224C240.181 458.224 229.921 468.483 229.921 481.139C229.921 493.794 240.181 504.054 252.836 504.054C265.492 504.054 275.751 493.794 275.751 481.139C275.751 468.483 265.492 458.224 252.836 458.224ZM256.158 454.535C255.084 454.769 253.974 454.904 252.836 454.931C252.695 454.934 252.554 454.936 252.412 454.936C251.244 454.936 250.102 454.822 248.998 454.604C240.94 453.015 234.863 445.911 234.863 437.387C234.863 428.439 241.559 421.055 250.214 419.974C250.934 419.884 251.668 419.838 252.412 419.838C252.554 419.838 252.696 419.839 252.837 419.843C253.593 419.861 254.338 419.926 255.067 420.037C263.499 421.317 269.961 428.597 269.961 437.387C269.961 445.793 264.05 452.819 256.158 454.535ZM256.233 456.508C268.357 458.164 277.698 468.56 277.698 481.139C277.698 494.869 266.567 506 252.836 506C239.106 506 227.975 494.869 227.975 481.139C227.975 468.726 237.071 458.438 248.961 456.578C250.088 456.401 251.24 456.301 252.412 456.281C252.553 456.279 252.694 456.278 252.836 456.278C253.989 456.278 255.123 456.356 256.233 456.508ZM250.281 418.006C244.235 416.817 239.675 411.488 239.675 405.093C239.675 397.824 245.568 391.931 252.837 391.931C260.106 391.931 265.999 397.824 265.999 405.093C265.999 411.607 261.267 417.015 255.053 418.069C254.332 418.191 253.592 418.255 252.837 418.255C252.695 418.255 252.553 418.252 252.412 418.248C251.685 418.225 250.973 418.143 250.281 418.006ZM252.412 421.784C243.795 421.784 236.809 428.769 236.809 437.387C236.809 446.004 243.794 452.99 252.412 452.99C261.029 452.99 268.015 446.004 268.015 437.387C268.015 428.769 261.029 421.784 252.412 421.784ZM252.837 393.877C246.642 393.877 241.621 398.898 241.621 405.093C241.621 411.287 246.642 416.308 252.837 416.308C259.031 416.308 264.052 411.287 264.052 405.093C264.052 398.898 259.031 393.877 252.837 393.877ZM256.098 49.5104C268.287 47.9128 277.697 37.486 277.697 24.8613C277.697 11.1308 266.567 0 252.836 0C239.106 0 227.975 11.1308 227.975 24.8613C227.975 37.4864 237.386 47.9136 249.575 49.5106C250.642 49.6504 251.731 49.723 252.836 49.723C252.836 49.723 252.836 49.723 252.836 49.723C253.941 49.7229 255.031 49.6503 256.098 49.5104ZM256.049 51.4782C255.007 51.2856 253.934 51.1854 252.837 51.1854C252.838 51.1854 252.837 51.1854 252.837 51.1854C251.74 51.1855 250.666 51.2858 249.625 51.4784C241.467 52.9875 235.288 60.1392 235.288 68.7341C235.288 77.4707 241.672 84.7161 250.03 86.0599C250.944 86.2069 251.882 86.2837 252.837 86.2837C252.837 86.2837 252.837 86.2837 252.837 86.2837C253.792 86.2837 254.73 86.2069 255.644 86.06C264.002 84.7165 270.386 77.4709 270.386 68.7341C270.386 60.1389 264.207 52.9869 256.049 51.4782ZM250.077 88.0356C244.133 89.3037 239.675 94.5854 239.675 100.908C239.675 108.177 245.567 114.07 252.836 114.07C260.106 114.07 265.998 108.177 265.998 100.908C265.998 94.5856 261.54 89.304 255.596 88.0357C254.707 87.8458 253.783 87.7463 252.836 87.7462C252.837 87.7462 252.836 87.7462 252.836 87.7462C251.89 87.7462 250.967 87.8457 250.077 88.0356ZM229.921 24.8613C229.921 37.5169 240.18 47.7764 252.836 47.7764C265.492 47.7764 275.751 37.5169 275.751 24.8613C275.751 12.2056 265.492 1.94616 252.836 1.94616C240.18 1.94615 229.921 12.2056 229.921 24.8613ZM237.234 68.7341C237.234 77.3514 244.22 84.3371 252.837 84.3371C261.454 84.3371 268.44 77.3514 268.44 68.7341C268.44 60.1169 261.454 53.1312 252.837 53.1312C244.22 53.1312 237.234 60.1169 237.234 68.7341ZM241.621 100.908C241.621 107.102 246.642 112.123 252.836 112.123C259.031 112.123 264.052 107.102 264.052 100.908C264.052 94.7134 259.031 89.692 252.836 89.692C246.642 89.692 241.621 94.7134 241.621 100.908ZM454.522 250.459C454.714 251.501 454.815 252.574 454.815 253.671C454.815 253.671 454.815 253.671 454.815 253.671C454.815 254.768 454.714 255.842 454.522 256.883C453.013 265.041 445.861 271.22 437.266 271.22C428.53 271.22 421.285 264.837 419.94 256.481C419.793 255.566 419.717 254.628 419.717 253.671C419.717 252.715 419.793 251.776 419.94 250.861C421.285 242.504 428.53 236.122 437.266 236.122C445.861 236.122 453.013 242.301 454.522 250.459ZM456.49 250.41C456.35 251.477 456.277 252.567 456.277 253.672C456.277 253.672 456.277 253.672 456.277 253.672C456.277 254.777 456.35 255.865 456.489 256.933C458.086 269.122 468.514 278.533 481.139 278.533C494.869 278.533 506 267.402 506 253.672C506 239.941 494.869 228.81 481.139 228.81C468.514 228.81 458.087 238.221 456.49 250.41ZM417.965 256.433C418.155 255.543 418.255 254.619 418.255 253.671C418.255 252.724 418.155 251.799 417.965 250.908C416.695 244.965 411.415 240.509 405.093 240.509C397.824 240.509 391.931 246.402 391.931 253.671C391.931 260.94 397.824 266.833 405.093 266.833C411.415 266.833 416.695 262.376 417.965 256.433ZM458.224 253.672C458.224 266.327 468.483 276.587 481.139 276.587C493.794 276.587 504.054 266.327 504.054 253.672C504.054 241.016 493.794 230.756 481.139 230.756C468.483 230.756 458.224 241.016 458.224 253.672ZM421.663 253.671C421.663 262.288 428.648 269.274 437.266 269.274C445.883 269.274 452.869 262.288 452.869 253.671C452.869 245.054 445.883 238.068 437.266 238.068C428.648 238.068 421.663 245.053 421.663 253.671ZM393.878 253.671C393.878 259.865 398.899 264.886 405.093 264.886C411.288 264.886 416.309 259.865 416.309 253.671C416.309 247.477 411.288 242.455 405.093 242.455C398.899 242.455 393.878 247.477 393.878 253.671ZM24.8613 276.587C37.5169 276.587 47.7764 266.327 47.7764 253.671C47.7764 241.016 37.517 230.756 24.8613 230.756C12.2056 230.756 1.94616 241.016 1.94615 253.671C1.94615 266.327 12.2056 276.587 24.8613 276.587ZM49.5104 250.409C49.6503 251.477 49.7225 252.566 49.7225 253.672C49.7225 253.672 49.7225 253.672 49.7225 253.672C49.7225 254.777 49.6504 255.865 49.5105 256.933C47.9134 269.122 37.4863 278.533 24.8613 278.533C11.1308 278.533 0 267.402 0 253.671C0 239.941 11.1308 228.81 24.8613 228.81C37.486 228.81 47.9129 238.22 49.5104 250.409ZM51.4782 250.459C51.2856 251.5 51.185 252.574 51.185 253.671C51.185 253.671 51.185 253.671 51.185 253.671C51.185 254.768 51.2857 255.842 51.4783 256.883C52.9874 265.041 60.1392 271.22 68.7341 271.22C77.4698 271.22 84.7146 264.837 86.0595 256.481C86.2067 255.566 86.2833 254.628 86.2833 253.671C86.2833 252.715 86.2067 251.776 86.0595 250.861C84.7147 242.504 77.4698 236.122 68.7341 236.122C60.139 236.122 52.987 242.301 51.4782 250.459ZM88.0352 256.433C87.8449 255.542 87.7448 254.619 87.7448 253.671C87.7448 252.724 87.8449 251.799 88.0352 250.908C89.3045 244.965 94.5851 240.509 100.907 240.509C108.176 240.509 114.069 246.402 114.069 253.671C114.069 260.94 108.176 266.833 100.907 266.833C94.5851 266.833 89.3045 262.376 88.0352 256.433ZM68.7341 269.274C77.3514 269.274 84.3371 262.288 84.3371 253.671C84.3371 245.053 77.3514 238.068 68.7341 238.068C60.1168 238.068 53.1311 245.053 53.1311 253.671C53.1311 262.288 60.1168 269.274 68.7341 269.274ZM100.907 264.886C107.101 264.886 112.122 259.865 112.122 253.671C112.122 247.476 107.101 242.455 100.907 242.455C94.7124 242.455 89.691 247.476 89.691 253.671C89.691 259.865 94.7124 264.886 100.907 264.886ZM229.923 253.001C229.923 265.656 240.182 275.916 252.838 275.916C265.494 275.916 275.753 265.656 275.753 253.001C275.753 240.345 265.494 230.086 252.838 230.086C240.182 230.086 229.923 240.345 229.923 253.001ZM398.223 394.175C397.623 395.049 396.934 395.88 396.158 396.656C395.381 397.433 394.55 398.121 393.677 398.722C386.841 403.421 377.417 402.733 371.34 396.656C365.161 390.477 364.553 380.837 369.515 373.977C370.057 373.228 370.665 372.512 371.34 371.838C371.34 371.838 371.34 371.838 371.34 371.838C372.014 371.163 372.73 370.555 373.479 370.013C380.34 365.051 389.979 365.659 396.158 371.838C402.235 377.915 402.923 387.34 398.223 394.175ZM399.65 395.532C398.795 396.188 397.974 396.907 397.191 397.69C396.409 398.472 395.689 399.294 395.033 400.148C387.545 409.897 388.265 423.922 397.191 432.849C406.9 442.558 422.641 442.558 432.35 432.849C442.059 423.14 442.059 407.399 432.35 397.69C423.424 388.763 409.398 388.044 399.65 395.532ZM368.152 372.547C368.914 372.052 369.636 371.471 370.304 370.803C370.305 370.802 370.304 370.803 370.304 370.803C370.973 370.134 371.554 369.412 372.049 368.65C375.358 363.549 374.776 356.66 370.304 352.188C365.164 347.048 356.831 347.049 351.691 352.189C346.551 357.329 346.55 365.662 351.69 370.802C356.162 375.274 363.052 375.855 368.152 372.547ZM398.567 399.066C389.618 408.015 389.618 422.524 398.567 431.473C407.516 440.422 422.025 440.422 430.974 431.473C439.923 422.524 439.923 408.015 430.974 399.066C422.025 390.117 407.516 390.117 398.567 399.066ZM372.716 373.214C366.622 379.307 366.622 389.187 372.716 395.28C378.809 401.373 388.688 401.373 394.782 395.28C400.875 389.187 400.875 379.307 394.782 373.214C388.688 367.121 378.809 367.121 372.716 373.214ZM353.067 353.565C348.687 357.945 348.687 365.046 353.067 369.426C357.447 373.806 364.549 373.806 368.929 369.426C373.309 365.046 373.309 357.945 368.929 353.565C364.549 349.185 357.447 349.185 353.067 353.565ZM106.495 113.001C107.095 112.128 107.783 111.297 108.559 110.521C108.559 110.522 108.559 110.521 108.559 110.521C109.335 109.745 110.167 109.056 111.04 108.456C117.876 103.755 127.301 104.443 133.378 110.52C139.557 116.699 140.165 126.338 135.204 133.198C134.662 133.947 134.053 134.664 133.378 135.338C132.704 136.013 131.987 136.622 131.238 137.164C124.378 142.125 114.739 141.517 108.56 135.338C102.483 129.261 101.795 119.837 106.495 113.001ZM105.068 111.645C95.3198 119.134 81.2931 118.415 72.3662 109.488C62.6573 99.7788 62.6573 84.0376 72.3662 74.3286C82.0752 64.6197 97.8164 64.6197 107.525 74.3286C116.452 83.2551 117.171 97.2807 109.684 107.029C109.028 107.883 108.309 108.704 107.527 109.487C107.527 109.486 107.526 109.487 107.527 109.487C106.745 110.269 105.922 110.989 105.068 111.645ZM136.567 134.628C135.805 135.123 135.082 135.705 134.413 136.373C133.745 137.042 133.163 137.765 132.668 138.527C129.36 143.627 129.942 150.516 134.413 154.987C139.553 160.128 147.887 160.127 153.027 154.987C158.167 149.847 158.167 141.514 153.027 136.374C148.556 131.902 141.667 131.32 136.567 134.628ZM106.149 108.112C115.098 99.1627 115.098 84.6537 106.149 75.7047C97.2003 66.7558 82.6913 66.7558 73.7423 75.7048C64.7934 84.6537 64.7935 99.1627 73.7423 108.112C82.6913 117.061 97.2003 117.061 106.149 108.112ZM132.002 133.962C138.096 127.869 138.096 117.99 132.002 111.896C125.909 105.803 116.03 105.803 109.936 111.896C103.843 117.99 103.843 127.869 109.936 133.962C116.03 140.056 125.909 140.056 132.002 133.962ZM151.651 153.611C156.031 149.231 156.031 142.13 151.651 137.75C147.271 133.37 140.169 133.37 135.789 137.75C131.409 142.13 131.409 149.231 135.789 153.611C140.169 157.991 147.271 157.991 151.651 153.611ZM105.068 395.399C95.3195 387.909 81.2918 388.627 72.3643 397.555C62.6554 407.264 62.6554 423.005 72.3643 432.714C82.0733 442.423 97.8145 442.423 107.523 432.714C116.451 423.787 117.169 409.76 109.68 400.011C109.024 399.158 108.306 398.337 107.524 397.556C107.524 397.556 107.524 397.555 107.524 397.556C106.743 396.774 105.921 396.055 105.068 395.399ZM106.495 394.043C107.095 394.915 107.782 395.745 108.558 396.521C108.558 396.521 108.557 396.52 108.558 396.521C109.333 397.296 110.164 397.985 111.036 398.585C117.872 403.287 127.299 402.599 133.377 396.521C139.554 390.344 140.163 380.706 135.204 373.846C134.661 373.096 134.052 372.379 133.377 371.703C133.376 371.703 133.377 371.703 133.377 371.703C132.701 371.028 131.983 370.418 131.233 369.876C124.373 364.916 114.736 365.526 108.558 371.703C102.481 377.781 101.793 387.207 106.495 394.043ZM136.567 372.415C141.667 375.721 148.553 375.139 153.024 370.669C158.164 365.529 158.164 357.195 153.024 352.055C147.884 346.915 139.55 346.915 134.41 352.055C129.939 356.526 129.357 363.412 132.664 368.512C133.159 369.276 133.741 369.999 134.41 370.668C134.41 370.669 134.41 370.668 134.41 370.668C135.079 371.338 135.804 371.92 136.567 372.415ZM106.147 431.338C115.096 422.389 115.096 407.88 106.147 398.931C97.1984 389.982 82.6894 389.982 73.7405 398.931C64.7915 407.88 64.7916 422.389 73.7405 431.338C82.6894 440.287 97.1984 440.287 106.147 431.338ZM353.067 137.614C348.687 141.994 348.687 149.096 353.067 153.476C357.447 157.856 364.548 157.856 368.928 153.476C373.308 149.096 373.308 141.994 368.928 137.614C364.548 133.234 357.447 133.234 353.067 137.614ZM368.141 134.487C363.042 131.186 356.159 131.77 351.691 136.239C346.551 141.379 346.551 149.712 351.691 154.852C356.831 159.992 365.164 159.992 370.304 154.852C374.774 150.383 375.357 143.499 372.054 138.4C371.558 137.634 370.975 136.909 370.304 136.238C370.304 136.238 370.303 136.237 370.303 136.237C369.632 135.566 368.907 134.983 368.141 134.487ZM369.505 133.057C370.048 133.809 370.658 134.527 371.335 135.204C371.336 135.205 371.336 135.205 371.337 135.206C372.014 135.883 372.733 136.493 373.485 137.036C380.344 141.991 389.978 141.38 396.153 135.204C402.232 129.126 402.919 119.698 398.215 112.862C397.616 111.991 396.929 111.162 396.154 110.387C396.155 110.387 396.154 110.387 396.154 110.387C395.38 109.612 394.55 108.924 393.679 108.325C386.843 103.62 377.414 104.307 371.335 110.386C365.159 116.562 364.549 126.197 369.505 133.057ZM395.035 106.898C395.69 107.751 396.408 108.57 397.188 109.351C397.189 109.351 397.188 109.351 397.188 109.351C397.969 110.132 398.789 110.85 399.642 111.505C409.39 118.998 423.42 118.28 432.348 109.352C442.057 99.643 442.057 83.9017 432.348 74.1928C422.64 64.4839 406.898 64.4839 397.189 74.1928C388.261 83.1208 387.543 97.1498 395.035 106.898ZM372.711 111.762C366.618 117.856 366.618 127.735 372.711 133.828C378.805 139.921 388.684 139.921 394.777 133.828C400.871 127.735 400.871 117.856 394.777 111.762C388.684 105.669 378.805 105.669 372.711 111.762ZM398.566 75.5689C389.617 84.5178 389.617 99.0269 398.565 107.976C407.514 116.925 422.023 116.925 430.972 107.976C439.921 99.0269 439.921 84.5178 430.972 75.5689C422.023 66.62 407.514 66.62 398.566 75.5689ZM132 395.145C138.094 389.052 138.094 379.173 132 373.079C125.907 366.986 116.028 366.986 109.935 373.079C103.841 379.173 103.841 389.052 109.935 395.145C116.028 401.239 125.907 401.239 132 395.145ZM151.648 369.292C156.028 364.912 156.028 357.811 151.648 353.431C147.268 349.051 140.166 349.051 135.786 353.431C131.406 357.811 131.406 364.912 135.786 369.292C140.166 373.672 147.268 373.672 151.648 369.292ZM227.977 253.001C227.977 266.732 239.108 277.862 252.838 277.862C266.569 277.862 277.7 266.731 277.7 253.001C277.7 239.27 266.568 228.14 252.837 228.14C239.107 228.14 227.977 239.271 227.977 253.001Z" fill="white" fill-opacity="0.4"/>
</svg>
