<svg width="553" height="723" viewBox="0 0 553 723" fill="none" xmlns="http://www.w3.org/2000/svg">
<path d="M249.971 314.368C249.99 314.221 250.013 314.073 250.031 313.926C247.978 314.23 245.934 314.552 243.917 314.917C243.982 314.967 244.046 315.013 244.111 315.069C244.794 315.622 245.454 316.221 246.026 316.885C247.489 316.631 248.965 316.406 250.451 316.189C250.137 315.627 249.971 315.018 249.971 314.368Z" fill="white" fill-opacity="0.1"/>
<path d="M306.738 316.894C307.268 316.161 307.813 315.502 308.445 314.852C308.26 314.82 308.076 314.783 307.891 314.751C306.452 314.497 304.993 314.257 303.554 314.041C303.6 314.308 303.628 314.58 303.623 314.852C303.614 315.345 303.604 315.857 303.586 316.378C304.638 316.539 305.69 316.715 306.738 316.894Z" fill="white" fill-opacity="0.1"/>
<path d="M346.666 327.377C347.136 327.156 347.598 326.921 348.054 326.699L348.299 326.058C342.568 323.869 336.772 321.91 331.05 320.218C330.843 320.826 330.515 321.403 330.081 321.914C329.985 322.03 329.883 322.136 329.786 322.246C335.157 323.818 340.602 325.634 346.001 327.658C346.223 327.566 346.449 327.478 346.666 327.377Z" fill="white" fill-opacity="0.1"/>
<path d="M206.213 326.755C206.559 326.953 206.859 327.197 207.122 327.478C212.396 325.524 217.98 323.661 223.826 321.983C223.3 321.352 222.802 320.697 222.322 320.02C216.106 321.831 210.195 323.841 204.639 325.948C205.175 326.192 205.696 326.46 206.213 326.755Z" fill="white" fill-opacity="0.1"/>
<path d="M144.237 359.304C144.574 359.258 145.539 359.12 146.148 359.23C146.448 359.286 146.729 359.378 147.006 359.493C152.903 355.201 165.334 346.72 182.177 338.307C186.136 336.329 190.501 334.278 195.208 332.254C194.465 331.844 193.874 331.249 193.491 330.484C189.052 332.415 184.918 334.361 181.143 336.246C161.597 346.014 147.892 355.898 143.365 359.323C143.661 359.332 143.951 359.346 144.237 359.304Z" fill="white" fill-opacity="0.1"/>
<path d="M194.275 390.3C189.947 388.415 185.914 386.516 182.232 384.676C166.275 376.706 154.264 368.671 148.016 364.191C147.869 364.324 147.702 364.449 147.513 364.546C146.909 364.859 146.23 365.08 145.529 365.237C151.463 369.566 164.07 378.181 181.143 386.714C184.456 388.369 188.051 390.074 191.885 391.771C192.605 391.268 193.422 390.761 194.275 390.3Z" fill="white" fill-opacity="0.1"/>
<path d="M250.285 407.006C250.313 406.919 250.35 406.84 250.377 406.757C248.592 406.49 246.815 406.213 245.057 405.9C244.928 406.697 244.448 407.472 243.811 408.016C245.708 408.361 247.623 408.679 249.551 408.97C249.814 408.32 250.096 407.67 250.285 407.006Z" fill="white" fill-opacity="0.1"/>
<path d="M266.006 409.495C265.997 409.122 266.057 408.758 266.195 408.417C265.572 408.38 264.945 408.343 264.322 408.302C264.29 409.099 263.976 409.91 263.478 410.551C264.364 410.616 265.249 410.671 266.14 410.726C266.02 410.33 265.965 409.91 266.006 409.495Z" fill="white" fill-opacity="0.1"/>
<path d="M306.331 406.601C306.184 406.458 306.059 406.315 305.948 406.163C304.642 406.384 303.332 406.596 302.008 406.79C302.238 407.177 302.377 407.642 302.381 408.195C302.386 408.491 302.404 408.772 302.437 409.053C304.393 408.762 306.327 408.444 308.246 408.103C307.582 407.642 306.908 407.144 306.331 406.601Z" fill="white" fill-opacity="0.1"/>
<path fill-rule="evenodd" clip-rule="evenodd" d="M288.728 320.481L277.432 202.102H275.134L263.824 320.614C264.604 320.388 265.397 320.204 266.191 320.084L276.287 214.354L286.374 320.08C287.163 320.098 287.957 320.241 288.728 320.481ZM172.15 257.447L240.65 340.298C240.189 340.971 239.774 341.667 239.377 342.377L232.381 333.916C231.112 334.256 229.859 334.605 228.625 334.965C228.524 334.808 228.409 334.66 228.27 334.522C228.169 334.421 228.062 334.324 227.952 334.241C227.532 333.831 226.987 333.595 226.415 333.485C226.304 333.429 226.198 333.37 226.092 333.31C227.624 332.848 229.184 332.402 230.77 331.968L162.663 249.592L164.287 247.969L256.399 323.975C255.707 324.385 255.02 324.818 254.35 325.275L172.15 257.447ZM357.962 329.986C381.661 340.193 399.315 352.112 406.834 357.572L435.82 360.332V362.628L406.539 365.416C406.609 365.427 406.68 365.438 406.75 365.449C400.696 369.842 388.223 378.32 371.422 386.714C367.334 388.756 362.821 390.872 357.943 392.96C357.98 392.785 357.999 392.614 357.99 392.444C357.962 391.789 357.717 391.185 357.325 390.715C362.023 388.691 366.383 386.649 370.338 384.676C384.508 377.6 395.564 370.473 402.24 365.825L374.632 368.454C369.21 371.674 361.655 375.815 352.494 379.928C349.656 381.205 346.564 382.514 343.251 383.824L343.023 383.661L342.862 383.546C342.551 383.324 342.24 383.103 341.931 382.879C341.627 382.653 341.322 382.436 341.018 382.219C344.82 380.749 348.35 379.264 351.548 377.826C358.388 374.754 364.32 371.673 369.118 368.979L316.672 373.972C316.871 373.193 317.018 372.396 317.129 371.612L423.555 361.48L317.494 351.38C317.383 350.597 317.258 349.815 317.134 349.032L317.134 349.032L317.134 349.029L369.116 353.979C364.305 351.277 358.356 348.185 351.492 345.106C348.184 343.622 344.52 342.087 340.566 340.57C341.272 340.008 341.655 339.284 341.719 338.542C345.614 340.04 349.227 341.561 352.494 343.027C361.659 347.139 369.216 351.282 374.639 354.505L402.237 357.134C393.608 351.13 377.638 340.972 357.048 332.102L357.962 329.986ZM345.665 395.385C346.015 395.708 346.435 395.966 346.901 396.145C347.478 396.371 348.078 396.547 348.673 396.712C343.238 398.79 337.461 400.779 331.386 402.582L389.907 473.368L388.283 474.991L295.848 398.718C296.147 398.518 296.44 398.301 296.732 398.085C296.777 398.051 296.822 398.018 296.867 397.985C297.19 397.74 297.463 397.505 297.707 397.261L380.42 465.513L312.141 382.925C312.612 382.252 313.009 381.528 313.355 380.772L320.186 389.035C321.098 388.791 322.005 388.544 322.897 388.29C323.197 388.516 323.529 388.682 323.898 388.784C324.12 388.871 324.355 388.917 324.591 388.954L324.633 388.961C324.658 388.965 324.682 388.969 324.707 388.973C324.748 388.98 324.789 388.987 324.831 388.994L324.833 388.994C325.089 389.039 325.346 389.083 325.606 389.069C325.726 389.06 325.841 389.056 325.966 389.06L326.028 389.052L326.094 389.043L326.24 389.024C326.344 389.01 326.448 388.997 326.552 388.982C327.129 389.033 327.694 389.057 328.21 389.078H328.21L328.211 389.078L328.212 389.078L328.333 389.083C326.21 389.742 324.029 390.376 321.8 390.987L329.79 400.652C335.339 399.033 340.643 397.249 345.665 395.385ZM222.767 400.667C216.644 398.879 210.819 396.889 205.346 394.813C205.092 395.339 204.69 395.818 204.123 396.178C203.887 396.325 203.657 396.445 203.426 396.546C208.99 398.69 214.925 400.741 221.17 402.599L162.663 473.364L164.287 474.986L257.17 398.349C256.432 397.98 255.716 397.574 255.056 397.104L172.15 465.513L240.429 382.929C240.189 382.62 239.972 382.284 239.778 381.887C239.594 381.505 239.419 381.123 239.243 380.741L239.243 380.74L232.383 389.037C231.079 388.688 229.794 388.327 228.528 387.958C228.113 388.844 227.167 389.512 226.194 389.466C225.921 389.452 225.649 389.443 225.377 389.429C227.136 389.966 228.934 390.488 230.767 390.992L222.767 400.667ZM325.79 334.476C326.579 334.185 327.415 334.167 328.236 334.301C328.342 334.176 328.462 334.061 328.587 333.955C326.385 333.266 324.123 332.602 321.807 331.967L389.907 249.596L388.283 247.973L295.432 324.588C295.439 324.592 295.445 324.596 295.45 324.599C295.455 324.603 295.46 324.606 295.465 324.611C295.766 324.81 296.067 324.989 296.364 325.166L296.364 325.166L296.364 325.166C296.75 325.396 297.128 325.621 297.49 325.879L380.42 257.451L312.409 339.713C312.612 339.911 312.787 340.137 312.921 340.399C313.179 340.902 313.401 341.395 313.604 341.888L320.197 333.914C321.711 334.321 323.201 334.742 324.669 335.172C324.969 334.886 325.338 334.646 325.79 334.476ZM201.022 345.129C194.176 348.205 188.241 351.289 183.44 353.985L236.534 348.928C236.327 349.716 236.17 350.513 236.068 351.288L129.015 361.48L235.704 371.64C235.791 372.424 235.999 373.221 236.276 374.014L183.463 368.985C188.273 371.686 194.221 374.777 201.082 377.854C204.044 379.186 207.284 380.555 210.768 381.915C210.602 382.003 210.44 382.099 210.279 382.21C209.771 382.551 209.19 383.035 208.636 383.552C205.581 382.335 202.72 381.118 200.081 379.933C190.923 375.822 183.372 371.682 177.95 368.46L116.75 362.632V360.337L177.93 354.509C183.354 351.286 190.916 347.142 200.081 343.027C202.895 341.764 205.964 340.459 209.249 339.164C209.536 340.003 210.329 340.621 211.201 340.879C207.533 342.303 204.118 343.737 201.022 345.129ZM286.43 402.29L276.287 508.601L266.163 402.484C266.07 402.453 265.979 402.422 265.885 402.387L265.844 402.371L265.789 402.35C265.822 402.363 265.854 402.375 265.885 402.387C266.151 402.492 265.295 402.204 265.18 402.161C264.585 401.94 264.197 401.709 263.741 401.419L275.138 520.854H277.436L288.783 401.963C288.012 402.161 287.209 402.29 286.43 402.29Z" fill="white" fill-opacity="0.4"/>
<path d="M316.658 386.124L390.636 408.795L322.122 372.488" fill="white" fill-opacity="0.1"/>
<path d="M316.658 386.124L390.636 408.795L322.122 372.488" stroke="white" stroke-opacity="0.4" stroke-width="2" stroke-miterlimit="10"/>
<path d="M286.969 406.716L323.649 475.715L300.711 400.898" fill="white" fill-opacity="0.1"/>
<path d="M286.969 406.716L323.649 475.715L300.711 400.898" stroke="white" stroke-opacity="0.4" stroke-width="2" stroke-miterlimit="10"/>
<path d="M251.577 401.931L228.92 475.715L265.596 406.647" fill="white" fill-opacity="0.1"/>
<path d="M251.577 401.931L228.92 475.715L265.596 406.647" stroke="white" stroke-opacity="0.4" stroke-width="2" stroke-miterlimit="10"/>
<path d="M231.578 371.889L161.933 408.795L235.496 386.253" fill="white" fill-opacity="0.1"/>
<path d="M231.578 371.889L161.933 408.795L235.496 386.253" stroke="white" stroke-opacity="0.4" stroke-width="2" stroke-miterlimit="10"/>
<path d="M236.539 337.025L161.933 314.161L230.637 350.569" fill="white" fill-opacity="0.1"/>
<path d="M236.539 337.025L161.933 314.161L230.637 350.569" stroke="white" stroke-opacity="0.4" stroke-width="2" stroke-miterlimit="10"/>
<path d="M265.199 315.562L228.92 247.241L251.808 321.536" fill="white" fill-opacity="0.1"/>
<path d="M265.199 315.562L228.92 247.241L251.808 321.536" stroke="white" stroke-opacity="0.4" stroke-width="2" stroke-miterlimit="10"/>
<path d="M322.495 350.274L390.636 314.161L315.56 337.168" fill="white" fill-opacity="0.1"/>
<path d="M322.495 350.274L390.636 314.161L315.56 337.168" stroke="white" stroke-opacity="0.4" stroke-width="2" stroke-miterlimit="10"/>
<path d="M300.946 321.536L323.649 247.241L287.094 316.143" fill="white" fill-opacity="0.1"/>
<path d="M300.946 321.536L323.649 247.241L287.094 316.143" stroke="white" stroke-opacity="0.4" stroke-width="2" stroke-miterlimit="10"/>
<path d="M276.287 404.84C252.357 404.84 232.884 385.386 232.884 361.48C232.884 337.574 252.357 318.12 276.287 318.12C300.222 318.12 319.69 337.574 319.69 361.48C319.69 385.386 300.217 404.84 276.287 404.84ZM276.287 320.425C253.626 320.425 235.191 338.841 235.191 361.48C235.191 384.119 253.626 402.535 276.287 402.535C298.948 402.535 317.383 384.119 317.383 361.48C317.383 338.841 298.944 320.425 276.287 320.425Z" fill="white" fill-opacity="0.1"/>
<path d="M286.923 388.042C293.753 388.042 299.977 385.469 304.684 381.238C298.436 390.194 288.045 396.053 276.287 396.053C257.174 396.053 241.679 380.574 241.679 361.48C241.679 342.386 257.174 326.907 276.287 326.907C288.095 326.907 298.524 332.816 304.767 341.838C300.051 337.569 293.794 334.965 286.923 334.965C272.254 334.965 260.358 346.844 260.358 361.503C260.358 376.158 272.254 388.042 286.923 388.042Z" fill="url(#paint0_linear_552_7653)"/>
<path d="M363.231 323.588C363.434 323.44 363.646 323.316 363.873 323.21C364.191 323.058 364.491 322.915 364.823 322.85L350.846 294.924C350.68 295.145 350.5 295.362 350.316 295.569C349.96 295.97 349.416 296.141 348.894 296.178L362.788 323.938C362.936 323.818 363.079 323.698 363.231 323.588Z" fill="white" fill-opacity="0.1"/>
<path d="M366.95 327.096C366.724 327.303 366.461 327.469 366.175 327.598C366.028 327.672 365.885 327.755 365.751 327.847C365.585 327.995 365.418 328.147 365.257 328.299C365.192 328.359 365.119 328.409 365.054 328.46L369.844 338.025C369.991 337.896 370.148 337.781 370.305 337.689C370.748 337.431 371.431 337.237 372.035 337.251L366.95 327.096Z" fill="white" fill-opacity="0.1"/>
<path d="M364.74 395.362C365.465 395.5 366.134 395.772 366.789 396.182L372.326 385.124C371.588 386.013 370.448 386.096 369.47 385.681L364.648 395.316C364.676 395.334 364.708 395.348 364.74 395.362Z" fill="white" fill-opacity="0.1"/>
<path d="M349.245 426.123C349.804 426.796 350.293 427.51 350.74 428.257L364.33 401.101C364.265 401.069 364.201 401.032 364.136 400.995C364.007 400.907 363.873 400.829 363.744 400.755C363.301 400.732 362.881 400.612 362.493 400.391C362.392 400.345 362.286 400.294 362.184 400.248L349.236 426.118C349.236 426.114 349.241 426.118 349.245 426.123Z" fill="white" fill-opacity="0.1"/>
<path d="M276.287 145.941L206.785 284.806C207.574 285.239 208.114 286.073 208.289 286.949L276.287 151.095L343.602 285.594C344.155 285.142 344.764 284.773 345.484 284.612C345.549 284.598 345.613 284.594 345.678 284.584L276.287 145.941Z" fill="white" fill-opacity="0.1"/>
<path d="M188.9 322.131C189.255 322.255 189.56 322.394 189.846 322.564C190.021 322.624 190.187 322.703 190.353 322.786L203.084 297.349C202.664 297.045 202.328 296.616 202.037 296.201C201.954 296.077 201.82 295.938 201.774 295.8C202.235 296.39 202.175 296.312 201.598 295.565C201.557 295.51 201.52 295.454 201.478 295.399L188.208 321.919C188.438 321.997 188.674 322.053 188.9 322.131Z" fill="white" fill-opacity="0.1"/>
<path d="M180.105 338.431C180.142 338.408 180.179 338.38 180.215 338.357C180.289 338.256 181.171 337.643 181.138 337.643C181.111 337.657 181.088 337.671 181.06 337.684C181.111 337.652 181.134 337.643 181.138 337.643C181.807 337.26 182.412 337.173 183.127 337.228L187.562 328.368C187.534 328.35 187.502 328.331 187.474 328.313C187.271 328.239 187.072 328.142 186.879 328.027C186.86 328.022 186.837 328.013 186.819 328.008L186.846 328.027C186.833 328.018 186.819 328.008 186.805 327.999C186.426 327.87 186.062 327.741 185.674 327.57C185.596 327.538 185.522 327.492 185.448 327.446L179.869 338.592C179.943 338.533 180.026 338.482 180.105 338.431Z" fill="white" fill-opacity="0.1"/>
<path d="M186.02 395.205C186.56 394.975 187.04 394.79 187.599 394.666L182.56 384.593C181.808 384.981 180.917 385.091 180.123 384.879L185.485 395.597C185.656 395.426 185.836 395.283 186.02 395.205Z" fill="white" fill-opacity="0.1"/>
<path d="M203.32 426.081L190.173 399.815C189.514 400.008 188.826 400.147 188.148 400.257C188.042 400.276 187.936 400.29 187.834 400.299L201.908 428.414C202.3 427.566 202.775 426.745 203.32 426.081Z" fill="white" fill-opacity="0.1"/>
<path d="M344.035 436.499L276.287 571.861L208.386 436.2C208.022 436.693 207.505 437.076 206.886 437.246C206.831 437.26 206.776 437.269 206.725 437.283C206.707 437.288 206.688 437.292 206.665 437.297C206.587 437.311 206.513 437.325 206.434 437.334C206.416 437.338 206.393 437.338 206.374 437.338L276.282 577.019L345.955 437.809C345.309 437.385 344.663 436.956 344.035 436.499Z" fill="white" fill-opacity="0.1"/>
<path d="M240.816 287.373C240.719 287.12 240.622 286.866 240.53 286.617L232.64 305.577C232.492 305.928 232.658 306.333 233.013 306.481C233.101 306.518 233.189 306.536 233.281 306.536C233.553 306.536 233.812 306.375 233.922 306.112L241.208 288.604C241.084 288.194 240.973 287.779 240.816 287.373Z" fill="white" fill-opacity="0.1"/>
<path d="M268.276 221.744C267.926 221.596 267.52 221.762 267.372 222.117L244.623 276.785C245.089 277.107 245.444 277.573 245.56 278.14L268.655 222.647C268.798 222.297 268.632 221.891 268.276 221.744Z" fill="white" fill-opacity="0.1"/>
<path d="M261.429 217.199C261.157 216.927 260.718 216.927 260.451 217.199L221.685 255.824C221.98 256.156 222.202 256.594 222.322 257.142L261.424 218.181C261.696 217.909 261.696 217.471 261.429 217.199Z" fill="white" fill-opacity="0.1"/>
<path d="M256.842 210.385C256.694 210.031 256.293 209.865 255.938 210.012L243.156 215.276C243.363 215.687 243.502 216.138 243.571 216.599L256.464 211.284C256.819 211.141 256.985 210.736 256.842 210.385Z" fill="white" fill-opacity="0.1"/>
<path d="M254.521 201.641L249.219 201.636C249.367 202.074 249.376 202.553 249.27 203.019L254.521 203.024C254.904 203.024 255.213 202.715 255.213 202.332C255.213 201.95 254.904 201.641 254.521 201.641Z" fill="white" fill-opacity="0.1"/>
<path d="M256.422 193.371L254.11 192.412C253.99 192.864 253.769 193.283 253.478 193.647L255.892 194.648C255.979 194.685 256.067 194.703 256.159 194.703C256.431 194.703 256.69 194.542 256.801 194.279C256.939 193.919 256.773 193.514 256.422 193.371Z" fill="white" fill-opacity="0.1"/>
<path d="M261.346 186.451L258.826 183.93C258.545 184.303 258.162 184.589 257.728 184.787L260.367 187.429C260.501 187.562 260.681 187.632 260.857 187.632C261.032 187.632 261.212 187.562 261.346 187.429C261.613 187.161 261.613 186.723 261.346 186.451Z" fill="white" fill-opacity="0.1"/>
<path d="M268.544 181.943L264.839 172.968C264.465 173.198 264.027 173.369 263.547 173.461L267.266 182.469C267.377 182.736 267.635 182.897 267.907 182.897C267.995 182.897 268.083 182.879 268.17 182.847C268.521 182.704 268.687 182.298 268.544 181.943Z" fill="white" fill-opacity="0.1"/>
<path d="M275.572 151.376L275.535 180.528C275.535 180.911 275.844 181.219 276.227 181.219C276.61 181.219 276.919 180.911 276.919 180.528L276.956 151.592C276.499 151.629 276.029 151.56 275.572 151.376Z" fill="white" fill-opacity="0.1"/>
<path d="M287.721 172.765L283.924 181.897C283.776 182.247 283.942 182.653 284.298 182.801C284.385 182.837 284.473 182.856 284.565 182.856C284.837 182.856 285.096 182.695 285.207 182.432L288.917 173.516C288.469 173.36 288.058 173.097 287.721 172.765Z" fill="white" fill-opacity="0.1"/>
<path d="M294.071 183.451L291.145 186.368C290.873 186.64 290.873 187.074 291.145 187.346C291.279 187.479 291.459 187.549 291.634 187.549C291.81 187.549 291.99 187.479 292.124 187.346L294.948 184.534C294.578 184.248 294.274 183.879 294.071 183.451Z" fill="white" fill-opacity="0.1"/>
<path d="M298.381 192.32L296.106 193.26C295.751 193.408 295.584 193.809 295.732 194.164C295.843 194.431 296.101 194.592 296.373 194.592C296.461 194.592 296.549 194.574 296.637 194.542L298.994 193.569C298.708 193.196 298.496 192.767 298.381 192.32Z" fill="white" fill-opacity="0.1"/>
<path d="M303.341 202.051C303.323 201.876 303.323 201.701 303.341 201.53L298.053 201.525C297.67 201.525 297.361 201.834 297.361 202.217C297.361 202.6 297.67 202.908 298.053 202.908L303.397 202.918C303.327 202.636 303.309 202.346 303.341 202.051Z" fill="white" fill-opacity="0.1"/>
<path d="M310.134 215.488L296.678 209.901C296.323 209.754 295.921 209.924 295.774 210.275C295.626 210.625 295.792 211.031 296.147 211.178L310.157 216.996C310.004 216.503 310.009 215.977 310.134 215.488Z" fill="white" fill-opacity="0.1"/>
<path d="M329.089 254.058L292.207 217.116C291.934 216.844 291.496 216.844 291.228 217.116C290.956 217.383 290.956 217.821 291.228 218.093L329.389 256.317C328.965 255.524 328.905 254.75 329.089 254.058Z" fill="white" fill-opacity="0.1"/>
<path d="M307 278.126C307.019 277.997 307.079 277.854 307.116 277.739C307.254 277.301 307.48 276.849 307.785 276.476L285.308 222.071C285.16 221.716 284.759 221.55 284.404 221.698C284.048 221.845 283.882 222.246 284.03 222.601L306.982 278.163C306.986 278.154 306.991 278.14 307 278.126Z" fill="white" fill-opacity="0.1"/>
<path d="M319.824 305.623L311.799 286.202C311.587 286.806 311.333 287.392 311.02 287.936L318.546 306.154C318.656 306.421 318.915 306.582 319.187 306.582C319.275 306.582 319.362 306.564 319.45 306.532C319.801 306.379 319.967 305.974 319.824 305.623Z" fill="white" fill-opacity="0.1"/>
<path d="M276.287 209.708C280.492 209.708 283.901 206.302 283.901 202.102C283.901 197.901 280.492 194.496 276.287 194.496C272.082 194.496 268.673 197.901 268.673 202.102C268.673 206.302 272.082 209.708 276.287 209.708Z" fill="white" fill-opacity="0.1"/>
<path d="M276.167 222.956C287.602 222.956 296.872 213.696 296.872 202.272C296.872 190.849 287.602 181.588 276.167 181.588C264.732 181.588 255.462 190.849 255.462 202.272C255.462 213.696 264.732 222.956 276.167 222.956Z" stroke="white" stroke-opacity="0.4" stroke-width="2" stroke-miterlimit="10"/>
<path d="M240.816 287.373C240.719 287.12 240.622 286.866 240.53 286.617L232.64 305.577C232.492 305.928 232.658 306.333 233.013 306.481C233.101 306.518 233.189 306.536 233.281 306.536C233.553 306.536 233.812 306.375 233.922 306.112L241.208 288.604C241.084 288.194 240.973 287.779 240.816 287.373Z" fill="white" fill-opacity="0.1"/>
<path d="M268.276 221.744C267.926 221.596 267.52 221.762 267.372 222.117L244.623 276.785C245.089 277.107 245.444 277.573 245.56 278.14L268.655 222.647C268.798 222.297 268.632 221.891 268.276 221.744Z" fill="white" fill-opacity="0.1"/>
<path d="M261.429 217.199C261.157 216.927 260.718 216.927 260.451 217.199L221.685 255.824C221.98 256.156 222.202 256.594 222.322 257.142L261.424 218.181C261.696 217.909 261.696 217.471 261.429 217.199Z" fill="white" fill-opacity="0.1"/>
<path d="M256.842 210.385C256.694 210.031 256.293 209.865 255.938 210.012L243.156 215.276C243.363 215.687 243.502 216.138 243.571 216.599L256.464 211.284C256.819 211.141 256.985 210.736 256.842 210.385Z" fill="white" fill-opacity="0.1"/>
<path d="M254.521 201.641L249.219 201.636C249.367 202.074 249.376 202.553 249.27 203.019L254.521 203.024C254.904 203.024 255.213 202.715 255.213 202.332C255.213 201.95 254.904 201.641 254.521 201.641Z" fill="white" fill-opacity="0.1"/>
<path d="M256.422 193.371L254.11 192.412C253.99 192.864 253.769 193.283 253.478 193.647L255.892 194.648C255.979 194.685 256.067 194.703 256.159 194.703C256.431 194.703 256.69 194.542 256.801 194.279C256.939 193.919 256.773 193.514 256.422 193.371Z" fill="white" fill-opacity="0.1"/>
<path d="M261.346 186.451L258.826 183.93C258.545 184.303 258.162 184.589 257.728 184.787L260.367 187.429C260.501 187.562 260.681 187.632 260.857 187.632C261.032 187.632 261.212 187.562 261.346 187.429C261.613 187.161 261.613 186.723 261.346 186.451Z" fill="white" fill-opacity="0.1"/>
<path d="M268.544 181.943L264.839 172.968C264.465 173.198 264.027 173.369 263.547 173.461L267.266 182.469C267.377 182.736 267.635 182.897 267.907 182.897C267.995 182.897 268.083 182.879 268.17 182.847C268.521 182.704 268.687 182.298 268.544 181.943Z" fill="white" fill-opacity="0.1"/>
<path d="M275.572 151.376L275.535 180.528C275.535 180.911 275.844 181.219 276.227 181.219C276.61 181.219 276.919 180.911 276.919 180.528L276.956 151.592C276.499 151.629 276.029 151.56 275.572 151.376Z" fill="white" fill-opacity="0.1"/>
<path d="M287.721 172.765L283.924 181.897C283.776 182.247 283.942 182.653 284.298 182.801C284.385 182.837 284.473 182.856 284.565 182.856C284.837 182.856 285.096 182.695 285.207 182.432L288.917 173.516C288.469 173.36 288.058 173.097 287.721 172.765Z" fill="white" fill-opacity="0.1"/>
<path d="M294.071 183.451L291.145 186.368C290.873 186.64 290.873 187.074 291.145 187.346C291.279 187.479 291.459 187.549 291.634 187.549C291.81 187.549 291.99 187.479 292.124 187.346L294.948 184.534C294.578 184.248 294.274 183.879 294.071 183.451Z" fill="white" fill-opacity="0.1"/>
<path d="M298.381 192.32L296.106 193.26C295.751 193.408 295.584 193.809 295.732 194.164C295.843 194.431 296.101 194.592 296.373 194.592C296.461 194.592 296.549 194.574 296.637 194.542L298.994 193.569C298.708 193.196 298.496 192.767 298.381 192.32Z" fill="white" fill-opacity="0.1"/>
<path d="M303.341 202.051C303.323 201.876 303.323 201.701 303.341 201.53L298.053 201.525C297.67 201.525 297.361 201.834 297.361 202.217C297.361 202.6 297.67 202.908 298.053 202.908L303.397 202.918C303.327 202.636 303.309 202.346 303.341 202.051Z" fill="white" fill-opacity="0.1"/>
<path d="M310.134 215.488L296.678 209.901C296.323 209.754 295.921 209.924 295.774 210.275C295.626 210.625 295.792 211.031 296.147 211.178L310.157 216.996C310.004 216.503 310.009 215.977 310.134 215.488Z" fill="white" fill-opacity="0.1"/>
<path d="M329.089 254.058L292.207 217.116C291.934 216.844 291.496 216.844 291.228 217.116C290.956 217.383 290.956 217.821 291.228 218.093L329.389 256.317C328.965 255.524 328.905 254.75 329.089 254.058Z" fill="white" fill-opacity="0.1"/>
<path d="M307 278.126C307.019 277.997 307.079 277.854 307.116 277.739C307.254 277.301 307.48 276.849 307.785 276.476L285.308 222.071C285.16 221.716 284.759 221.55 284.404 221.698C284.048 221.845 283.882 222.246 284.03 222.601L306.982 278.163C306.986 278.154 306.991 278.14 307 278.126Z" fill="white" fill-opacity="0.1"/>
<path d="M319.824 305.623L311.799 286.202C311.587 286.806 311.333 287.392 311.02 287.936L318.546 306.154C318.656 306.421 318.915 306.582 319.187 306.582C319.275 306.582 319.362 306.564 319.45 306.532C319.801 306.379 319.967 305.974 319.824 305.623Z" fill="white" fill-opacity="0.1"/>
<path d="M276.287 209.708C280.492 209.708 283.901 206.302 283.901 202.102C283.901 197.901 280.492 194.496 276.287 194.496C272.082 194.496 268.673 197.901 268.673 202.102C268.673 206.302 272.082 209.708 276.287 209.708Z" fill="url(#paint1_linear_552_7653)"/>
<path d="M276.342 541.874C287.777 541.874 297.047 532.614 297.047 521.19C297.047 509.767 287.777 500.506 276.342 500.506C264.908 500.506 255.638 509.767 255.638 521.19C255.638 532.614 264.908 541.874 276.342 541.874Z" stroke="white" stroke-opacity="0.4" stroke-width="2" stroke-miterlimit="10"/>
<path d="M311.693 436.089C311.79 436.343 311.887 436.596 311.979 436.845L319.87 417.885C320.017 417.535 319.851 417.129 319.496 416.982C319.408 416.945 319.321 416.926 319.228 416.926C318.956 416.926 318.698 417.088 318.587 417.35L311.301 434.858C311.425 435.273 311.541 435.688 311.693 436.089Z" fill="white" fill-opacity="0.1"/>
<path d="M284.233 501.718C284.584 501.866 284.99 501.7 285.137 501.345L307.886 446.678C307.42 446.355 307.065 445.89 306.95 445.323L283.855 500.815C283.716 501.165 283.882 501.571 284.233 501.718Z" fill="white" fill-opacity="0.1"/>
<path d="M291.085 506.264C291.358 506.536 291.796 506.536 292.064 506.264L330.829 467.639C330.534 467.307 330.312 466.869 330.192 466.32L291.09 505.282C290.813 505.554 290.813 505.992 291.085 506.264Z" fill="white" fill-opacity="0.1"/>
<path d="M295.672 513.082C295.82 513.437 296.221 513.603 296.576 513.455L309.358 508.186C309.151 507.776 309.012 507.324 308.943 506.863L296.05 512.178C295.695 512.321 295.524 512.727 295.672 513.082Z" fill="white" fill-opacity="0.1"/>
<path d="M297.989 521.822L303.29 521.831C303.143 521.393 303.134 520.914 303.24 520.448L297.989 520.443C297.606 520.443 297.296 520.752 297.296 521.135C297.296 521.513 297.606 521.822 297.989 521.822Z" fill="white" fill-opacity="0.1"/>
<path d="M296.092 530.096L298.404 531.055C298.524 530.603 298.745 530.184 299.036 529.82L296.623 528.819C296.535 528.782 296.448 528.764 296.355 528.764C296.083 528.764 295.825 528.925 295.714 529.188C295.571 529.543 295.737 529.949 296.092 530.096Z" fill="white" fill-opacity="0.1"/>
<path d="M291.168 537.011L293.688 539.533C293.969 539.159 294.352 538.873 294.786 538.675L292.147 536.034C292.013 535.9 291.833 535.831 291.657 535.831C291.482 535.831 291.302 535.9 291.168 536.034C290.896 536.301 290.896 536.739 291.168 537.011Z" fill="white" fill-opacity="0.1"/>
<path d="M283.97 541.519L287.675 550.494C288.049 550.264 288.487 550.093 288.967 550.001L285.248 540.994C285.137 540.726 284.879 540.565 284.607 540.565C284.519 540.565 284.431 540.583 284.344 540.616C283.993 540.763 283.822 541.164 283.97 541.519Z" fill="white" fill-opacity="0.1"/>
<path d="M276.938 572.087L276.975 542.935C276.975 542.552 276.666 542.243 276.283 542.243C275.9 542.243 275.59 542.552 275.59 542.935L275.553 571.87C276.015 571.833 276.486 571.902 276.938 572.087Z" fill="white" fill-opacity="0.1"/>
<path d="M264.793 550.697L268.59 541.566C268.738 541.215 268.572 540.81 268.216 540.662C268.129 540.625 268.041 540.607 267.949 540.607C267.677 540.607 267.418 540.768 267.307 541.031L263.597 549.946C264.045 550.107 264.451 550.366 264.793 550.697Z" fill="white" fill-opacity="0.1"/>
<path d="M258.439 540.012L261.364 537.094C261.637 536.822 261.637 536.389 261.364 536.117C261.23 535.983 261.05 535.914 260.875 535.914C260.7 535.914 260.52 535.983 260.386 536.117L257.562 538.929C257.936 539.214 258.24 539.588 258.439 540.012Z" fill="white" fill-opacity="0.1"/>
<path d="M254.129 531.143L256.404 530.202C256.759 530.055 256.925 529.654 256.778 529.299C256.667 529.032 256.408 528.87 256.136 528.87C256.048 528.87 255.961 528.889 255.873 528.921L253.515 529.894C253.801 530.267 254.013 530.696 254.129 531.143Z" fill="white" fill-opacity="0.1"/>
<path d="M249.173 521.412C249.192 521.587 249.192 521.762 249.173 521.932L254.461 521.937C254.844 521.937 255.153 521.628 255.153 521.246C255.153 520.863 254.844 520.554 254.461 520.554L249.118 520.545C249.182 520.826 249.201 521.121 249.173 521.412Z" fill="white" fill-opacity="0.1"/>
<path d="M242.376 507.974L255.832 513.561C256.187 513.709 256.588 513.538 256.736 513.188C256.884 512.837 256.718 512.432 256.362 512.284L242.353 506.467C242.51 506.96 242.505 507.485 242.376 507.974Z" fill="white" fill-opacity="0.1"/>
<path d="M223.42 469.404L260.303 506.347C260.575 506.619 261.013 506.619 261.281 506.347C261.553 506.079 261.553 505.642 261.281 505.37L223.12 467.145C223.545 467.938 223.609 468.717 223.42 469.404Z" fill="white" fill-opacity="0.1"/>
<path d="M245.509 445.336C245.491 445.466 245.431 445.608 245.394 445.724C245.255 446.162 245.029 446.613 244.725 446.987L267.201 501.391C267.349 501.746 267.75 501.912 268.106 501.765C268.461 501.617 268.627 501.216 268.479 500.861L245.528 445.3C245.523 445.313 245.518 445.327 245.509 445.336Z" fill="white" fill-opacity="0.1"/>
<path d="M232.69 417.839L240.715 437.26C240.927 436.656 241.181 436.071 241.494 435.527L233.968 417.309C233.858 417.042 233.599 416.88 233.327 416.88C233.239 416.88 233.152 416.899 233.064 416.931C232.713 417.083 232.543 417.489 232.69 417.839Z" fill="white" fill-opacity="0.1"/>
<path d="M276.227 528.967C280.432 528.967 283.841 525.562 283.841 521.361C283.841 517.16 280.432 513.755 276.227 513.755C272.022 513.755 268.613 517.16 268.613 521.361C268.613 525.562 272.022 528.967 276.227 528.967Z" fill="url(#paint2_linear_552_7653)"/>
<path d="M396.328 361.48L276.287 600.088L156.247 361.48L276.287 122.872L396.328 361.48Z" stroke="#7749CB" stroke-width="2"/>
<path d="M85.6577 557.52C88.1705 557.52 90.2075 555.485 90.2075 552.975C90.2075 550.464 88.1705 548.429 85.6577 548.429C83.1449 548.429 81.1079 550.464 81.1079 552.975C81.1079 555.485 83.1449 557.52 85.6577 557.52Z" fill="#7674DD"/>
<path d="M7.70233 366.415C10.0214 365.448 11.1171 362.787 10.1497 360.47C9.18224 358.153 6.51804 357.058 4.19899 358.025C1.87995 358.991 0.784256 361.653 1.75167 363.97C2.71909 366.286 5.38329 367.381 7.70233 366.415Z" fill="#7674DD"/>
<path d="M84.5964 175.586C87.1092 175.586 89.1462 173.551 89.1462 171.041C89.1462 168.531 87.1092 166.496 84.5964 166.496C82.0836 166.496 80.0466 168.531 80.0466 171.041C80.0466 173.551 82.0836 175.586 84.5964 175.586Z" fill="#7674DD"/>
<path d="M277.035 722.956C279.547 722.956 281.584 720.92 281.584 718.41C281.584 715.9 279.547 713.865 277.035 713.865C274.522 713.865 272.485 715.9 272.485 718.41C272.485 720.92 274.522 722.956 277.035 722.956Z" fill="#7674DD"/>
<path d="M275.535 9.09047C278.048 9.09047 280.085 7.0555 280.085 4.54524C280.085 2.03497 278.048 0 275.535 0C273.022 0 270.985 2.03497 270.985 4.54524C270.985 7.0555 273.022 9.09047 275.535 9.09047Z" fill="#7674DD"/>
<path d="M466.912 174.526C469.425 174.526 471.462 172.491 471.462 169.981C471.462 167.471 469.425 165.436 466.912 165.436C464.399 165.436 462.362 167.471 462.362 169.981C462.362 172.491 464.399 174.526 466.912 174.526Z" fill="#7674DD"/>
<path d="M548.379 364.927C550.7 363.967 551.803 361.308 550.841 358.989C549.879 356.669 547.218 355.568 544.896 356.529C542.575 357.489 541.472 360.148 542.434 362.468C543.395 364.787 546.057 365.888 548.379 364.927Z" fill="#7674DD"/>
<path fill-rule="evenodd" clip-rule="evenodd" d="M301.828 63.1447C301.828 77.2367 290.393 88.6598 276.287 88.6598C262.181 88.6598 250.746 77.2367 250.746 63.1447C250.746 57.4885 252.592 52.2564 255.711 48.0246C255.213 49.8316 254.945 51.7355 254.945 53.6992C254.945 65.4726 264.502 75.0148 276.287 75.0148C288.067 75.0148 297.624 65.4726 297.624 53.6992C297.624 51.7309 297.356 49.8224 296.853 48.0108C299.982 52.2472 301.828 57.4792 301.828 63.1447ZM144.666 193.91C154.643 203.876 154.643 220.029 144.666 229.995C134.69 239.962 118.521 239.962 108.545 229.995C104.54 225.994 102.145 220.993 101.356 215.797C102.283 217.429 103.441 218.964 104.83 220.352C113.164 228.677 126.675 228.672 135.008 220.347C143.337 212.027 143.342 198.529 135.008 190.204C133.615 188.812 132.074 187.65 130.436 186.728C135.65 187.507 140.656 189.904 144.666 193.91ZM90.1476 361.48C90.1476 347.388 78.7132 335.965 64.607 335.965C58.9359 335.965 53.6986 337.809 49.458 340.934C51.2714 340.432 53.1818 340.164 55.1521 340.164C66.9372 340.164 76.489 349.711 76.489 361.48C76.489 373.253 66.9372 382.8 55.1521 382.8C53.1864 382.8 51.2806 382.533 49.4718 382.035C53.7078 385.151 58.9451 386.995 64.607 386.995C78.7132 386.995 90.1476 375.572 90.1476 361.48ZM144.671 492.965C134.695 482.998 118.526 482.998 108.549 492.965C104.535 496.971 102.14 501.977 101.36 507.181C102.283 505.545 103.446 504.005 104.84 502.613C113.173 494.288 126.684 494.292 135.013 502.613C143.347 510.938 143.351 524.436 135.018 532.761C133.629 534.148 132.092 535.305 130.459 536.232C135.659 535.444 140.666 533.051 144.671 529.05C154.647 519.084 154.647 502.931 144.671 492.965ZM276.287 634.296C262.181 634.296 250.746 645.719 250.746 659.811C250.746 665.476 252.592 670.708 255.721 674.945C255.218 673.133 254.95 671.225 254.95 669.256C254.95 657.483 264.506 647.941 276.287 647.941C288.072 647.941 297.628 657.483 297.628 669.256C297.628 671.22 297.361 673.124 296.863 674.931C299.982 670.699 301.828 665.467 301.828 659.811C301.828 645.719 290.393 634.296 276.287 634.296ZM407.903 229.991C417.879 239.957 434.048 239.957 444.024 229.991C448.034 225.985 450.429 220.983 451.214 215.774C450.291 217.411 449.128 218.95 447.734 220.343C439.401 228.668 425.89 228.663 417.561 220.343C409.227 212.017 409.223 198.52 417.556 190.195C418.945 188.807 420.482 187.65 422.115 186.723C416.915 187.512 411.908 189.904 407.903 193.906C397.927 203.872 397.927 220.024 407.903 229.991ZM487.963 386.995C473.856 386.995 462.422 375.572 462.422 361.48C462.422 347.388 473.856 335.965 487.963 335.965C493.624 335.965 498.862 337.809 503.098 340.925C501.289 340.427 499.383 340.16 497.418 340.16C485.632 340.16 476.081 349.707 476.081 361.48C476.081 373.249 485.632 382.796 497.418 382.796C499.388 382.796 501.298 382.528 503.112 382.026C498.871 385.151 493.634 386.995 487.963 386.995ZM407.903 492.965C397.927 502.931 397.927 519.084 407.903 529.05C411.913 533.056 416.924 535.448 422.134 536.232C420.496 535.31 418.954 534.148 417.561 532.756C409.227 524.431 409.232 510.934 417.561 502.613C425.894 494.288 439.405 494.283 447.739 502.608C449.128 503.996 450.286 505.531 451.214 507.163C450.424 501.968 448.03 496.966 444.024 492.965C434.048 482.998 417.879 482.998 407.903 492.965Z" fill="url(#paint3_linear_552_7653)"/>
<path d="M284.75 36.3358C285.508 31.669 282.336 27.2719 277.664 26.5145C272.993 25.7571 268.591 28.9263 267.833 33.593C267.075 38.2598 270.248 42.6569 274.919 43.4143C279.59 44.1717 283.992 41.0025 284.75 36.3358Z" fill="url(#paint4_linear_552_7653)"/>
<path d="M106.662 200.585C111.395 200.585 115.231 196.752 115.231 192.025C115.231 187.297 111.395 183.464 106.662 183.464C101.93 183.464 98.0934 187.297 98.0934 192.025C98.0934 196.752 101.93 200.585 106.662 200.585Z" fill="url(#paint5_linear_552_7653)"/>
<path d="M44.3234 358.18C46.1553 362.54 44.1028 367.557 39.739 369.387C35.3752 371.217 30.3525 369.167 28.5206 364.807C26.6886 360.448 28.7411 355.43 33.105 353.6C37.4688 351.77 42.4914 353.821 44.3234 358.18Z" fill="url(#paint6_linear_552_7653)"/>
<path d="M115.231 530.931C115.231 535.658 111.395 539.491 106.662 539.491C101.93 539.491 98.0934 535.658 98.0934 530.931C98.0934 526.203 101.93 522.37 106.662 522.37C111.395 522.37 115.231 526.203 115.231 530.931Z" fill="url(#paint7_linear_552_7653)"/>
<path d="M277.67 679.545C282.341 680.302 285.514 684.699 284.755 689.366C283.997 694.033 279.596 697.202 274.924 696.444C270.253 695.687 267.08 691.29 267.839 686.623C268.597 681.956 272.998 678.787 277.67 679.545Z" fill="url(#paint8_linear_552_7653)"/>
<path d="M454.476 192.025C454.476 196.752 450.64 200.585 445.907 200.585C441.175 200.585 437.338 196.752 437.338 192.025C437.338 187.297 441.175 183.464 445.907 183.464C450.64 183.464 454.476 187.297 454.476 192.025Z" fill="url(#paint9_linear_552_7653)"/>
<path d="M519.462 369.389C523.835 367.579 525.911 362.572 524.1 358.204C522.289 353.836 517.276 351.761 512.904 353.571C508.531 355.38 506.455 360.388 508.266 364.756C510.077 369.124 515.09 371.198 519.462 369.389Z" fill="url(#paint10_linear_552_7653)"/>
<path d="M454.476 530.931C454.476 535.658 450.64 539.491 445.907 539.491C441.175 539.491 437.338 535.658 437.338 530.931C437.338 526.203 441.175 522.37 445.907 522.37C450.64 522.37 454.476 526.203 454.476 530.931Z" fill="url(#paint11_linear_552_7653)"/>
<path d="M467.973 556.46C470.486 556.46 472.523 554.425 472.523 551.914C472.523 549.404 470.486 547.369 467.973 547.369C465.46 547.369 463.423 549.404 463.423 551.914C463.423 554.425 465.46 556.46 467.973 556.46Z" fill="#7674DD"/>
<path d="M345.664 517.512C349.13 517.512 351.94 514.705 351.94 511.242C351.94 507.78 349.13 504.973 345.664 504.973C342.199 504.973 339.389 507.78 339.389 511.242C339.389 514.705 342.199 517.512 345.664 517.512Z" fill="white" fill-opacity="0.1"/>
<path d="M379.018 499.079C379.644 496.433 378.004 493.782 375.355 493.157C372.706 492.532 370.052 494.171 369.426 496.817C368.801 499.463 370.441 502.115 373.09 502.739C375.739 503.364 378.393 501.726 379.018 499.079Z" fill="white" fill-opacity="0.1"/>
<path d="M402.928 482.929C404.689 482.2 405.526 480.183 404.796 478.424C404.067 476.664 402.048 475.829 400.286 476.558C398.525 477.287 397.689 479.304 398.418 481.063C399.148 482.822 401.167 483.658 402.928 482.929Z" fill="white" fill-opacity="0.1"/>
<path d="M187.599 509.919C192.165 509.919 195.868 506.221 195.868 501.659C195.868 497.096 192.165 493.398 187.599 493.398C183.032 493.398 179.33 497.096 179.33 501.659C179.33 506.221 183.032 509.919 187.599 509.919Z" fill="white" fill-opacity="0.1"/>
<path d="M219.341 522.656C222.807 522.656 225.617 519.849 225.617 516.387C225.617 512.924 222.807 510.117 219.341 510.117C215.875 510.117 213.066 512.924 213.066 516.387C213.066 519.849 215.875 522.656 219.341 522.656Z" fill="white" fill-opacity="0.1"/>
<path d="M114.35 406.213C118.917 406.213 122.619 402.515 122.619 397.953C122.619 393.39 118.917 389.692 114.35 389.692C109.783 389.692 106.081 393.39 106.081 397.953C106.081 402.515 109.783 406.213 114.35 406.213Z" fill="white" fill-opacity="0.1"/>
<path d="M132.16 433.244C133.51 430.055 132.017 426.376 128.825 425.027C125.633 423.679 121.951 425.17 120.6 428.359C119.25 431.548 120.743 435.227 123.935 436.576C127.127 437.924 130.81 436.433 132.16 433.244Z" fill="white" fill-opacity="0.1"/>
<path d="M144.515 460.458C145.143 457.812 143.506 455.159 140.858 454.531C138.209 453.904 135.553 455.54 134.925 458.186C134.297 460.831 135.934 463.485 138.583 464.112C141.231 464.74 143.887 463.104 144.515 460.458Z" fill="white" fill-opacity="0.1"/>
<path d="M157.905 490.107C155.999 490.107 154.454 488.562 154.454 486.658C154.454 484.755 155.999 483.21 157.905 483.21C159.811 483.21 161.357 484.755 161.357 486.658C161.357 488.562 159.811 490.107 157.905 490.107Z" fill="white" fill-opacity="0.1"/>
<path d="M135.964 281.141C140.531 281.141 144.233 277.442 144.233 272.88C144.233 268.318 140.531 264.619 135.964 264.619C131.397 264.619 127.695 268.318 127.695 272.88C127.695 277.442 131.397 281.141 135.964 281.141Z" fill="white" fill-opacity="0.1"/>
<path d="M121.226 310.86C124.691 310.86 127.501 308.053 127.501 304.591C127.501 301.128 124.691 298.322 121.226 298.322C117.76 298.322 114.95 301.128 114.95 304.591C114.95 308.053 117.76 310.86 121.226 310.86Z" fill="white" fill-opacity="0.1"/>
<path d="M110.46 339.118C113.182 339.118 115.388 336.914 115.388 334.195C115.388 331.476 113.182 329.272 110.46 329.272C107.738 329.272 105.532 331.476 105.532 334.195C105.532 336.914 107.738 339.118 110.46 339.118Z" fill="white" fill-opacity="0.1"/>
<path d="M103.972 369.819C105.879 369.819 107.424 368.275 107.424 366.371C107.424 364.467 105.879 362.923 103.972 362.923C102.066 362.923 100.521 364.467 100.521 366.371C100.521 368.275 102.066 369.819 103.972 369.819Z" fill="white" fill-opacity="0.1"/>
<path d="M206.91 217.987C210.376 217.987 213.185 215.18 213.185 211.718C213.185 208.255 210.376 205.448 206.91 205.448C203.444 205.448 200.634 208.255 200.634 211.718C200.634 215.18 203.444 217.987 206.91 217.987Z" fill="white" fill-opacity="0.1"/>
<path d="M183.135 226.198C183.76 223.552 182.12 220.9 179.471 220.275C176.822 219.65 174.168 221.289 173.543 223.935C172.917 226.581 174.557 229.233 177.206 229.858C179.855 230.482 182.509 228.844 183.135 226.198Z" fill="white" fill-opacity="0.1"/>
<path d="M152.282 246.411C154.045 245.686 154.885 243.671 154.159 241.91C153.433 240.149 151.415 239.31 149.653 240.035C147.89 240.761 147.05 242.776 147.776 244.537C148.502 246.297 150.52 247.137 152.282 246.411Z" fill="white" fill-opacity="0.1"/>
<path d="M364.971 229.557C369.538 229.557 373.24 225.859 373.24 221.297C373.24 216.735 369.538 213.036 364.971 213.036C360.404 213.036 356.702 216.735 356.702 221.297C356.702 225.859 360.404 229.557 364.971 229.557Z" fill="white" fill-opacity="0.1"/>
<path d="M333.233 212.842C336.699 212.842 339.509 210.036 339.509 206.573C339.509 203.111 336.699 200.304 333.233 200.304C329.767 200.304 326.958 203.111 326.958 206.573C326.958 210.036 329.767 212.842 333.233 212.842Z" fill="white" fill-opacity="0.1"/>
<path d="M438.22 333.264C442.787 333.264 446.489 329.565 446.489 325.003C446.489 320.441 442.787 316.742 438.22 316.742C433.653 316.742 429.951 320.441 429.951 325.003C429.951 329.565 433.653 333.264 438.22 333.264Z" fill="white" fill-opacity="0.1"/>
<path d="M426.195 298.441C429.66 298.441 432.47 295.635 432.47 292.172C432.47 288.71 429.66 285.903 426.195 285.903C422.729 285.903 419.919 288.71 419.919 292.172C419.919 295.635 422.729 298.441 426.195 298.441Z" fill="white" fill-opacity="0.1"/>
<path d="M417.656 264.798C418.281 262.152 416.641 259.5 413.992 258.875C411.343 258.25 408.689 259.889 408.064 262.535C407.438 265.181 409.078 267.833 411.727 268.458C414.376 269.082 417.03 267.444 417.656 264.798Z" fill="white" fill-opacity="0.1"/>
<path d="M395.998 239.481C397.759 238.752 398.595 236.735 397.866 234.976C397.136 233.216 395.117 232.381 393.356 233.11C391.595 233.838 390.758 235.855 391.488 237.615C392.217 239.374 394.237 240.21 395.998 239.481Z" fill="white" fill-opacity="0.1"/>
<path d="M416.606 458.336C421.173 458.336 424.875 454.638 424.875 450.075C424.875 445.513 421.173 441.815 416.606 441.815C412.039 441.815 408.337 445.513 408.337 450.075C408.337 454.638 412.039 458.336 416.606 458.336Z" fill="white" fill-opacity="0.1"/>
<path d="M431.349 424.639C434.815 424.639 437.625 421.832 437.625 418.369C437.625 414.907 434.815 412.1 431.349 412.1C427.883 412.1 425.073 414.907 425.073 418.369C425.073 421.832 427.883 424.639 431.349 424.639Z" fill="white" fill-opacity="0.1"/>
<path d="M445.594 385.28C447.518 387.203 447.518 390.319 445.594 392.241C443.67 394.163 440.55 394.163 438.626 392.241C436.702 390.319 436.702 387.203 438.626 385.28C440.55 383.358 443.67 383.358 445.594 385.28Z" fill="white" fill-opacity="0.1"/>
<path d="M448.598 360.033C450.504 360.033 452.049 358.489 452.049 356.584C452.049 354.68 450.504 353.136 448.598 353.136C446.692 353.136 445.146 354.68 445.146 356.584C445.146 358.489 446.692 360.033 448.598 360.033Z" fill="white" fill-opacity="0.1"/>
<path d="M231.389 586.967L226.461 611.703" stroke="white" stroke-opacity="0.4" stroke-width="2" stroke-miterlimit="10"/>
<path d="M236.589 560.848L232.852 579.61" stroke="white" stroke-opacity="0.4" stroke-width="2" stroke-miterlimit="10"/>
<path d="M240.083 543.303L238.362 551.942" stroke="white" stroke-opacity="0.4" stroke-width="2" stroke-miterlimit="10"/>
<path d="M188.217 573.885L178.554 597.182" stroke="white" stroke-opacity="0.4" stroke-width="2" stroke-miterlimit="10"/>
<path d="M198.419 549.278L191.087 566.956" stroke="white" stroke-opacity="0.4" stroke-width="2" stroke-miterlimit="10"/>
<path d="M205.272 532.752L201.894 540.892" stroke="white" stroke-opacity="0.4" stroke-width="2" stroke-miterlimit="10"/>
<path d="M217.394 503.516L208.829 524.173" stroke="white" stroke-opacity="0.4" stroke-width="2" stroke-miterlimit="10"/>
<path d="M148.427 552.638L134.404 573.608" stroke="white" stroke-opacity="0.4" stroke-width="2" stroke-miterlimit="10"/>
<path d="M163.239 530.493L152.598 546.401" stroke="white" stroke-opacity="0.4" stroke-width="2" stroke-miterlimit="10"/>
<path d="M173.188 515.622L168.287 522.947" stroke="white" stroke-opacity="0.4" stroke-width="2" stroke-miterlimit="10"/>
<path d="M190.787 489.309L178.351 507.9" stroke="white" stroke-opacity="0.4" stroke-width="2" stroke-miterlimit="10"/>
<path d="M202.651 471.571L197.552 479.195" stroke="white" stroke-opacity="0.4" stroke-width="2" stroke-miterlimit="10"/>
<path d="M84.933 489.208L63.9421 503.217" stroke="white" stroke-opacity="0.4" stroke-width="2" stroke-miterlimit="10"/>
<path d="M107.101 474.41L91.1763 485.04" stroke="white" stroke-opacity="0.4" stroke-width="2" stroke-miterlimit="10"/>
<path d="M121.987 464.472L114.659 469.367" stroke="white" stroke-opacity="0.4" stroke-width="2" stroke-miterlimit="10"/>
<path d="M148.325 446.895L129.716 459.313" stroke="white" stroke-opacity="0.4" stroke-width="2" stroke-miterlimit="10"/>
<path d="M166.082 435.038L158.449 440.132" stroke="white" stroke-opacity="0.4" stroke-width="2" stroke-miterlimit="10"/>
<path d="M178.25 426.916C176.999 427.75 175.744 428.589 174.494 429.423Z" fill="white" fill-opacity="0.1"/>
<path d="M178.25 426.916C176.999 427.75 175.744 428.589 174.494 429.423" stroke="white" stroke-opacity="0.4" stroke-width="2" stroke-miterlimit="10"/>
<path d="M63.6702 449.458L40.3445 459.11" stroke="white" stroke-opacity="0.4" stroke-width="2" stroke-miterlimit="10"/>
<path d="M88.2973 439.27L70.6057 446.59" stroke="white" stroke-opacity="0.4" stroke-width="2" stroke-miterlimit="10"/>
<path d="M104.84 432.42L96.6953 435.794" stroke="white" stroke-opacity="0.4" stroke-width="2" stroke-miterlimit="10"/>
<path d="M134.104 420.31L113.427 428.87" stroke="white" stroke-opacity="0.4" stroke-width="2" stroke-miterlimit="10"/>
<path d="M153.835 412.146L145.354 415.659" stroke="white" stroke-opacity="0.4" stroke-width="2" stroke-miterlimit="10"/>
<path d="M50.5696 406.333L25.8135 411.252" stroke="white" stroke-opacity="0.4" stroke-width="2" stroke-miterlimit="10"/>
<path d="M76.7192 401.133L57.9341 404.867" stroke="white" stroke-opacity="0.4" stroke-width="2" stroke-miterlimit="10"/>
<path d="M94.2819 397.644L85.6299 399.363" stroke="white" stroke-opacity="0.4" stroke-width="2" stroke-miterlimit="10"/>
<path d="M125.346 391.471L103.395 395.832" stroke="white" stroke-opacity="0.4" stroke-width="2" stroke-miterlimit="10"/>
<path d="M146.295 387.309L137.288 389.097" stroke="white" stroke-opacity="0.4" stroke-width="2" stroke-miterlimit="10"/>
<path d="M160.194 384.547C158.865 384.81 157.54 385.073 156.211 385.34Z" fill="white" fill-opacity="0.1"/>
<path d="M160.194 384.547C158.865 384.81 157.54 385.073 156.211 385.34" stroke="white" stroke-opacity="0.4" stroke-width="2" stroke-miterlimit="10"/>
<path d="M50.5696 316.627L25.8135 311.704" stroke="white" stroke-opacity="0.4" stroke-width="2" stroke-miterlimit="10"/>
<path d="M76.7192 321.822L57.9341 318.088" stroke="white" stroke-opacity="0.4" stroke-width="2" stroke-miterlimit="10"/>
<path d="M94.2816 325.312L85.6296 323.592" stroke="white" stroke-opacity="0.4" stroke-width="2" stroke-miterlimit="10"/>
<path d="M125.346 331.484L103.395 327.123" stroke="white" stroke-opacity="0.4" stroke-width="2" stroke-miterlimit="10"/>
<path d="M146.295 335.647L137.292 333.858" stroke="white" stroke-opacity="0.4" stroke-width="2" stroke-miterlimit="10"/>
<path d="M63.6699 273.498L40.3442 263.845" stroke="white" stroke-opacity="0.4" stroke-width="2" stroke-miterlimit="10"/>
<path d="M88.297 283.69L70.6055 276.37" stroke="white" stroke-opacity="0.4" stroke-width="2" stroke-miterlimit="10"/>
<path d="M104.84 290.536L96.6953 287.161" stroke="white" stroke-opacity="0.4" stroke-width="2" stroke-miterlimit="10"/>
<path d="M134.104 302.645L113.427 294.09" stroke="white" stroke-opacity="0.4" stroke-width="2" stroke-miterlimit="10"/>
<path d="M153.835 310.809L145.354 307.301" stroke="white" stroke-opacity="0.4" stroke-width="2" stroke-miterlimit="10"/>
<path d="M84.933 233.748L63.9421 219.739" stroke="white" stroke-opacity="0.4" stroke-width="2" stroke-miterlimit="10"/>
<path d="M107.101 248.545L91.1765 237.915" stroke="white" stroke-opacity="0.4" stroke-width="2" stroke-miterlimit="10"/>
<path d="M121.987 258.484L114.655 253.588" stroke="white" stroke-opacity="0.4" stroke-width="2" stroke-miterlimit="10"/>
<path d="M148.325 276.066L129.716 263.642" stroke="white" stroke-opacity="0.4" stroke-width="2" stroke-miterlimit="10"/>
<path d="M166.082 287.917L158.449 282.823" stroke="white" stroke-opacity="0.4" stroke-width="2" stroke-miterlimit="10"/>
<path d="M180.109 297.28C178.236 296.03 176.367 294.781 174.494 293.532Z" fill="white" fill-opacity="0.1"/>
<path d="M180.109 297.28C178.236 296.03 176.367 294.781 174.494 293.532" stroke="white" stroke-opacity="0.4" stroke-width="2" stroke-miterlimit="10"/>
<path d="M148.427 170.317L134.404 149.347" stroke="white" stroke-opacity="0.4" stroke-width="2" stroke-miterlimit="10"/>
<path d="M163.239 192.463L152.598 176.554" stroke="white" stroke-opacity="0.4" stroke-width="2" stroke-miterlimit="10"/>
<path d="M173.188 207.338L168.287 200.013" stroke="white" stroke-opacity="0.4" stroke-width="2" stroke-miterlimit="10"/>
<path d="M190.787 233.646L178.351 215.055" stroke="white" stroke-opacity="0.4" stroke-width="2" stroke-miterlimit="10"/>
<path d="M202.651 251.385L197.552 243.76" stroke="white" stroke-opacity="0.4" stroke-width="2" stroke-miterlimit="10"/>
<path d="M188.217 149.075L178.554 125.773" stroke="white" stroke-opacity="0.4" stroke-width="2" stroke-miterlimit="10"/>
<path d="M198.419 173.678L191.087 156.004" stroke="white" stroke-opacity="0.4" stroke-width="2" stroke-miterlimit="10"/>
<path d="M205.272 190.204L201.894 182.068" stroke="white" stroke-opacity="0.4" stroke-width="2" stroke-miterlimit="10"/>
<path d="M217.394 219.439L208.829 198.783" stroke="white" stroke-opacity="0.4" stroke-width="2" stroke-miterlimit="10"/>
<path d="M231.389 135.988L226.461 111.257" stroke="white" stroke-opacity="0.4" stroke-width="2" stroke-miterlimit="10"/>
<path d="M236.59 162.112L232.852 143.346" stroke="white" stroke-opacity="0.4" stroke-width="2" stroke-miterlimit="10"/>
<path d="M240.083 179.657L238.362 171.013" stroke="white" stroke-opacity="0.4" stroke-width="2" stroke-miterlimit="10"/>
<path d="M321.18 135.988L326.108 111.257" stroke="white" stroke-opacity="0.4" stroke-width="2" stroke-miterlimit="10"/>
<path d="M315.98 162.112L319.718 143.346" stroke="white" stroke-opacity="0.4" stroke-width="2" stroke-miterlimit="10"/>
<path d="M312.487 179.657L314.208 171.013" stroke="white" stroke-opacity="0.4" stroke-width="2" stroke-miterlimit="10"/>
<path d="M364.353 149.075L374.015 125.773" stroke="white" stroke-opacity="0.4" stroke-width="2" stroke-miterlimit="10"/>
<path d="M354.15 173.678L361.482 156.004" stroke="white" stroke-opacity="0.4" stroke-width="2" stroke-miterlimit="10"/>
<path d="M347.298 190.204L350.675 182.068" stroke="white" stroke-opacity="0.4" stroke-width="2" stroke-miterlimit="10"/>
<path d="M335.176 219.439L343.745 198.783" stroke="white" stroke-opacity="0.4" stroke-width="2" stroke-miterlimit="10"/>
<path d="M404.142 170.317L418.165 149.347" stroke="white" stroke-opacity="0.4" stroke-width="2" stroke-miterlimit="10"/>
<path d="M389.33 192.463L399.971 176.554" stroke="white" stroke-opacity="0.4" stroke-width="2" stroke-miterlimit="10"/>
<path d="M379.382 207.338L384.282 200.013" stroke="white" stroke-opacity="0.4" stroke-width="2" stroke-miterlimit="10"/>
<path d="M361.782 233.646L374.218 215.055" stroke="white" stroke-opacity="0.4" stroke-width="2" stroke-miterlimit="10"/>
<path d="M350.016 251.242C351.681 248.748 353.352 246.254 355.018 243.76Z" fill="white" fill-opacity="0.1"/>
<path d="M350.016 251.242C351.681 248.748 353.352 246.254 355.018 243.76" stroke="white" stroke-opacity="0.4" stroke-width="2" stroke-miterlimit="10"/>
<path d="M467.636 233.748L488.627 219.739" stroke="white" stroke-opacity="0.4" stroke-width="2" stroke-miterlimit="10"/>
<path d="M445.469 248.545L461.393 237.915" stroke="white" stroke-opacity="0.4" stroke-width="2" stroke-miterlimit="10"/>
<path d="M430.583 258.484L437.915 253.588" stroke="white" stroke-opacity="0.4" stroke-width="2" stroke-miterlimit="10"/>
<path d="M404.244 276.066L422.853 263.642" stroke="white" stroke-opacity="0.4" stroke-width="2" stroke-miterlimit="10"/>
<path d="M386.488 287.917L394.12 282.823" stroke="white" stroke-opacity="0.4" stroke-width="2" stroke-miterlimit="10"/>
<path d="M372.571 297.206C374.407 295.98 376.239 294.754 378.076 293.532Z" fill="white" fill-opacity="0.1"/>
<path d="M372.571 297.206C374.407 295.98 376.239 294.754 378.076 293.532" stroke="white" stroke-opacity="0.4" stroke-width="2" stroke-miterlimit="10"/>
<path d="M488.904 273.498L512.225 263.845" stroke="white" stroke-opacity="0.4" stroke-width="2" stroke-miterlimit="10"/>
<path d="M464.272 283.69L481.968 276.365" stroke="white" stroke-opacity="0.4" stroke-width="2" stroke-miterlimit="10"/>
<path d="M447.729 290.536L455.878 287.161" stroke="white" stroke-opacity="0.4" stroke-width="2" stroke-miterlimit="10"/>
<path d="M418.465 302.645L439.142 294.09" stroke="white" stroke-opacity="0.4" stroke-width="2" stroke-miterlimit="10"/>
<path d="M398.734 310.809L407.215 307.301" stroke="white" stroke-opacity="0.4" stroke-width="2" stroke-miterlimit="10"/>
<path d="M501.999 316.627L526.76 311.704" stroke="white" stroke-opacity="0.4" stroke-width="2" stroke-miterlimit="10"/>
<path d="M475.854 321.822L494.635 318.088" stroke="white" stroke-opacity="0.4" stroke-width="2" stroke-miterlimit="10"/>
<path d="M458.292 325.312L466.939 323.592" stroke="white" stroke-opacity="0.4" stroke-width="2" stroke-miterlimit="10"/>
<path d="M427.223 331.484L449.174 327.123" stroke="white" stroke-opacity="0.4" stroke-width="2" stroke-miterlimit="10"/>
<path d="M406.279 335.647L415.281 333.858" stroke="white" stroke-opacity="0.4" stroke-width="2" stroke-miterlimit="10"/>
<path d="M501.999 406.329L526.76 411.252" stroke="white" stroke-opacity="0.4" stroke-width="2" stroke-miterlimit="10"/>
<path d="M475.854 401.133L494.635 404.867" stroke="white" stroke-opacity="0.4" stroke-width="2" stroke-miterlimit="10"/>
<path d="M458.292 397.644L466.939 399.363" stroke="white" stroke-opacity="0.4" stroke-width="2" stroke-miterlimit="10"/>
<path d="M427.223 391.471L449.174 395.832" stroke="white" stroke-opacity="0.4" stroke-width="2" stroke-miterlimit="10"/>
<path d="M406.279 387.309L415.281 389.097" stroke="white" stroke-opacity="0.4" stroke-width="2" stroke-miterlimit="10"/>
<path d="M488.904 449.458L512.225 459.111" stroke="white" stroke-opacity="0.4" stroke-width="2" stroke-miterlimit="10"/>
<path d="M464.272 439.27L481.968 446.59" stroke="white" stroke-opacity="0.4" stroke-width="2" stroke-miterlimit="10"/>
<path d="M447.729 432.42L455.878 435.794" stroke="white" stroke-opacity="0.4" stroke-width="2" stroke-miterlimit="10"/>
<path d="M418.465 420.315L439.142 428.87" stroke="white" stroke-opacity="0.4" stroke-width="2" stroke-miterlimit="10"/>
<path d="M398.734 412.146L407.215 415.659" stroke="white" stroke-opacity="0.4" stroke-width="2" stroke-miterlimit="10"/>
<path d="M467.636 489.208L488.627 503.217" stroke="white" stroke-opacity="0.4" stroke-width="2" stroke-miterlimit="10"/>
<path d="M445.469 474.41L461.393 485.04" stroke="white" stroke-opacity="0.4" stroke-width="2" stroke-miterlimit="10"/>
<path d="M430.583 464.472L437.915 469.367" stroke="white" stroke-opacity="0.4" stroke-width="2" stroke-miterlimit="10"/>
<path d="M404.244 446.89L422.853 459.313" stroke="white" stroke-opacity="0.4" stroke-width="2" stroke-miterlimit="10"/>
<path d="M386.488 435.038L394.12 440.132" stroke="white" stroke-opacity="0.4" stroke-width="2" stroke-miterlimit="10"/>
<path d="M404.142 552.638L418.165 573.608" stroke="white" stroke-opacity="0.4" stroke-width="2" stroke-miterlimit="10"/>
<path d="M389.33 530.493L399.971 546.401" stroke="white" stroke-opacity="0.4" stroke-width="2" stroke-miterlimit="10"/>
<path d="M379.382 515.622L384.282 522.947" stroke="white" stroke-opacity="0.4" stroke-width="2" stroke-miterlimit="10"/>
<path d="M361.787 489.309L374.218 507.9" stroke="white" stroke-opacity="0.4" stroke-width="2" stroke-miterlimit="10"/>
<path d="M349.919 471.571L355.018 479.195" stroke="white" stroke-opacity="0.4" stroke-width="2" stroke-miterlimit="10"/>
<path d="M364.352 573.885L374.015 597.182" stroke="white" stroke-opacity="0.4" stroke-width="2" stroke-miterlimit="10"/>
<path d="M354.15 549.278L361.482 566.956" stroke="white" stroke-opacity="0.4" stroke-width="2" stroke-miterlimit="10"/>
<path d="M347.298 532.752L350.675 540.892" stroke="white" stroke-opacity="0.4" stroke-width="2" stroke-miterlimit="10"/>
<path d="M335.176 503.517L343.745 524.173" stroke="white" stroke-opacity="0.4" stroke-width="2" stroke-miterlimit="10"/>
<path d="M321.185 586.967L326.108 611.703" stroke="white" stroke-opacity="0.4" stroke-width="2" stroke-miterlimit="10"/>
<path d="M315.98 560.848L319.718 579.61" stroke="white" stroke-opacity="0.4" stroke-width="2" stroke-miterlimit="10"/>
<path d="M312.487 543.303L314.208 551.942" stroke="white" stroke-opacity="0.4" stroke-width="2" stroke-miterlimit="10"/>
<defs>
<linearGradient id="paint0_linear_552_7653" x1="305.027" y1="312.654" x2="276.013" y2="404.152" gradientUnits="userSpaceOnUse">
<stop stop-color="#FF8382"/>
<stop offset="1" stop-color="#4031E9"/>
</linearGradient>
<linearGradient id="paint1_linear_552_7653" x1="283.964" y1="191.36" x2="277.934" y2="219.982" gradientUnits="userSpaceOnUse">
<stop stop-color="#FFB13E"/>
<stop offset="1" stop-color="#E851D4"/>
</linearGradient>
<linearGradient id="paint2_linear_552_7653" x1="283.903" y1="510.619" x2="277.874" y2="539.241" gradientUnits="userSpaceOnUse">
<stop stop-color="#FFB13E"/>
<stop offset="1" stop-color="#E851D4"/>
</linearGradient>
<linearGradient id="paint3_linear_552_7653" x1="504.98" y1="-81.2176" x2="190.255" y2="705.959" gradientUnits="userSpaceOnUse">
<stop stop-color="#FF8382"/>
<stop offset="1" stop-color="#4031E9"/>
</linearGradient>
<linearGradient id="paint4_linear_552_7653" x1="441.096" y1="-63.9269" x2="162.616" y2="693.405" gradientUnits="userSpaceOnUse">
<stop stop-color="#FFB13E"/>
<stop offset="1" stop-color="#E851D4"/>
</linearGradient>
<linearGradient id="paint5_linear_552_7653" x1="441.096" y1="-63.9269" x2="162.616" y2="693.405" gradientUnits="userSpaceOnUse">
<stop stop-color="#FFB13E"/>
<stop offset="1" stop-color="#E851D4"/>
</linearGradient>
<linearGradient id="paint6_linear_552_7653" x1="441.096" y1="-63.9269" x2="162.616" y2="693.405" gradientUnits="userSpaceOnUse">
<stop stop-color="#FFB13E"/>
<stop offset="1" stop-color="#E851D4"/>
</linearGradient>
<linearGradient id="paint7_linear_552_7653" x1="441.096" y1="-63.9269" x2="162.616" y2="693.405" gradientUnits="userSpaceOnUse">
<stop stop-color="#FFB13E"/>
<stop offset="1" stop-color="#E851D4"/>
</linearGradient>
<linearGradient id="paint8_linear_552_7653" x1="441.096" y1="-63.9269" x2="162.616" y2="693.405" gradientUnits="userSpaceOnUse">
<stop stop-color="#FFB13E"/>
<stop offset="1" stop-color="#E851D4"/>
</linearGradient>
<linearGradient id="paint9_linear_552_7653" x1="441.096" y1="-63.9269" x2="162.616" y2="693.405" gradientUnits="userSpaceOnUse">
<stop stop-color="#FFB13E"/>
<stop offset="1" stop-color="#E851D4"/>
</linearGradient>
<linearGradient id="paint10_linear_552_7653" x1="441.096" y1="-63.9269" x2="162.616" y2="693.405" gradientUnits="userSpaceOnUse">
<stop stop-color="#FFB13E"/>
<stop offset="1" stop-color="#E851D4"/>
</linearGradient>
<linearGradient id="paint11_linear_552_7653" x1="441.096" y1="-63.9269" x2="162.616" y2="693.405" gradientUnits="userSpaceOnUse">
<stop stop-color="#FFB13E"/>
<stop offset="1" stop-color="#E851D4"/>
</linearGradient>
</defs>
</svg>
