<svg width="13" height="18" viewBox="0 0 13 18" fill="none" xmlns="http://www.w3.org/2000/svg">
<path d="M0 17.5C0 15.7824 0.68482 14.1352 1.90381 12.9206C3.12279 11.7061 4.77609 11.0238 6.5 11.0238C8.22391 11.0238 9.87721 11.7061 11.0962 12.9206C12.3152 14.1352 13 15.7824 13 17.5H11.375C11.375 16.2118 10.8614 14.9764 9.94715 14.0655C9.03291 13.1546 7.79293 12.6429 6.5 12.6429C5.20707 12.6429 3.96709 13.1546 3.05285 14.0655C2.13861 14.9764 1.625 16.2118 1.625 17.5H0ZM6.5 10.2143C3.80656 10.2143 1.625 8.04071 1.625 5.35714C1.625 2.67357 3.80656 0.5 6.5 0.5C9.19344 0.5 11.375 2.67357 11.375 5.35714C11.375 8.04071 9.19344 10.2143 6.5 10.2143ZM6.5 8.59524C8.29562 8.59524 9.75 7.14619 9.75 5.35714C9.75 3.5681 8.29562 2.11905 6.5 2.11905C4.70437 2.11905 3.25 3.5681 3.25 5.35714C3.25 7.14619 4.70437 8.59524 6.5 8.59524Z" fill="white"/>
</svg>
