<svg width="62" height="40" viewBox="0 0 62 40" fill="none" xmlns="http://www.w3.org/2000/svg">
<path d="M0 4.44444C0 1.98984 1.98985 0 4.44444 0H57.5556C60.0102 0 62 1.98985 62 4.44444V35.5556C62 38.0102 60.0102 40 57.5556 40H4.44444C1.98984 40 0 38.0102 0 35.5556V4.44444Z" fill="#016FD0"/>
<path d="M17.1409 28.1694V21.2668H24.4494L25.2335 22.289L26.0435 21.2668L53.2923 21.2668V28.1694C53.2923 28.1694 51.8778 28.1625 51.0754 28.1694H36.3863L35.5023 27.0813V28.1694H32.6052V26.312C32.6052 26.312 32.2095 26.5712 31.3539 26.5712H30.3679V28.1694H25.9815L25.1985 27.1252L24.4035 28.1694H17.1409Z" fill="white"/>
<path d="M8.60605 16.0646L10.2541 12.2223H13.1044L14.0397 14.3746V12.2223H17.5827L18.1395 13.7779L18.6793 12.2223H34.584V13.0043C34.584 13.0043 35.4201 12.2223 36.7942 12.2223L41.9547 12.2403L42.8738 14.3644V12.2223H45.8389L46.6549 13.4424V12.2223H49.6472V19.1248H46.6549L45.8729 17.9007V19.1248H41.5166L41.0785 18.0367H39.9074L39.4764 19.1248H36.5222C35.3398 19.1248 34.584 18.3587 34.584 18.3587V19.1248H30.1297L29.2456 18.0367V19.1248H12.6821L12.2443 18.0367H11.0769L10.6423 19.1248H7.44434L8.60605 16.0646Z" fill="white"/>
<path d="M10.8374 13.0732L8.6145 18.2416H10.0617L10.4719 17.2067H12.8563L13.2644 18.2416H14.7435L12.5227 13.0732H10.8374ZM11.6599 14.2761L12.3867 16.0846H10.9309L11.6599 14.2761Z" fill="#016FD0"/>
<path d="M14.8967 18.2407V13.0723L16.9533 13.0799L18.1495 16.4122L19.3171 13.0723H21.3572V18.2407H20.0651V14.4324L18.6955 18.2407H17.5623L16.1888 14.4324V18.2407H14.8967Z" fill="#016FD0"/>
<path d="M22.2412 18.2407V13.0723H26.4575V14.2284H23.5469V15.1124H26.3895V16.2005H23.5469V17.1186H26.4575V18.2407H22.2412Z" fill="#016FD0"/>
<path d="M27.2056 13.0732V18.2416H28.4977V16.4055H29.0417L30.5909 18.2416H32.1699L30.4698 16.3375C31.1676 16.2786 31.8873 15.6798 31.8873 14.75C31.8873 13.6624 31.0336 13.0732 30.0809 13.0732H27.2056ZM28.4977 14.2293H29.9747C30.329 14.2293 30.5867 14.5065 30.5867 14.7734C30.5867 15.1167 30.2528 15.3174 29.9938 15.3174H28.4977V14.2293Z" fill="#016FD0"/>
<path d="M33.7343 18.2407H32.415V13.0723H33.7343V18.2407Z" fill="#016FD0"/>
<path d="M36.8625 18.2407H36.5777C35.1998 18.2407 34.3633 17.1551 34.3633 15.6777C34.3633 14.1638 35.1905 13.0723 36.9305 13.0723H38.3586V14.2964H36.8783C36.1719 14.2964 35.6724 14.8476 35.6724 15.6905C35.6724 16.6914 36.2436 17.1118 37.0665 17.1118H37.4065L36.8625 18.2407Z" fill="#016FD0"/>
<path d="M39.6741 13.0732L37.4512 18.2416H38.8984L39.3086 17.2067H41.693L42.101 18.2416H43.5801L41.3593 13.0732H39.6741ZM40.4965 14.2761L41.2233 16.0846H39.7676L40.4965 14.2761Z" fill="#016FD0"/>
<path d="M43.7307 18.2407V13.0723H45.3735L47.471 16.3195V13.0723H48.7631V18.2407H47.1735L45.0228 14.9084V18.2407H43.7307Z" fill="#016FD0"/>
<path d="M18.0249 27.2853V22.1169H22.2412V23.273H19.3306V24.1571H22.1732V25.2452H19.3306V26.1633H22.2412V27.2853H18.0249Z" fill="#016FD0"/>
<path d="M38.6848 27.2853V22.1169H42.9011V23.273H39.9905V24.1571H42.8195V25.2452H39.9905V26.1633H42.9011V27.2853H38.6848Z" fill="#016FD0"/>
<path d="M22.4048 27.2853L24.4577 24.733L22.356 22.1169H23.9838L25.2355 23.7342L26.4915 22.1169H28.0556L25.9815 24.7011L28.0382 27.2853H26.4105L25.1952 25.6936L24.0093 27.2853H22.4048Z" fill="#016FD0"/>
<path d="M28.1919 22.1179V27.2863H29.518V25.6542H30.8781C32.0289 25.6542 32.9013 25.0436 32.9013 23.8563C32.9013 22.8727 32.2171 22.1179 31.046 22.1179H28.1919ZM29.518 23.2868H30.9504C31.3221 23.2868 31.5879 23.5146 31.5879 23.8818C31.5879 24.2267 31.3235 24.4768 30.9461 24.4768H29.518V23.2868Z" fill="#016FD0"/>
<path d="M33.4619 22.1169V27.2853H34.754V25.4492H35.2981L36.8473 27.2853H38.4263L36.7262 25.3812C37.4239 25.3223 38.1436 24.7235 38.1436 23.7937C38.1436 22.7061 37.29 22.1169 36.3373 22.1169H33.4619ZM34.754 23.273H36.231C36.5853 23.273 36.843 23.5502 36.843 23.8171C36.843 24.1604 36.5091 24.3611 36.2501 24.3611H34.754V23.273Z" fill="#016FD0"/>
<path d="M43.4998 27.2853V26.1633H46.0857C46.4683 26.1633 46.6339 25.9565 46.6339 25.7297C46.6339 25.5124 46.4688 25.2928 46.0857 25.2928H44.9171C43.9014 25.2928 43.3357 24.6739 43.3357 23.7448C43.3357 22.9161 43.8537 22.1169 45.3631 22.1169H47.8793L47.3352 23.2798H45.1591C44.7431 23.2798 44.615 23.4981 44.615 23.7066C44.615 23.9208 44.7733 24.1571 45.0911 24.1571H46.3152C47.4475 24.1571 47.9388 24.7994 47.9388 25.6405C47.9388 26.5447 47.3913 27.2853 46.2535 27.2853H43.4998Z" fill="#016FD0"/>
<path d="M48.2419 27.2853V26.1633H50.8278C51.2105 26.1633 51.3761 25.9565 51.3761 25.7297C51.3761 25.5124 51.211 25.2928 50.8278 25.2928H49.6593C48.6436 25.2928 48.0779 24.6739 48.0779 23.7448C48.0779 22.9161 48.5959 22.1169 50.1053 22.1169H52.6215L52.0774 23.2798H49.9013C49.4853 23.2798 49.3572 23.4981 49.3572 23.7066C49.3572 23.9208 49.5155 24.1571 49.8333 24.1571H51.0574C52.1897 24.1571 52.681 24.7994 52.681 25.6405C52.681 26.5447 52.1335 27.2853 50.9957 27.2853H48.2419Z" fill="#016FD0"/>
</svg>
