<svg width="63" height="40" viewBox="0 0 63 40" fill="none" xmlns="http://www.w3.org/2000/svg">
<rect width="62" height="40" rx="4.44444" fill="white"/>
<path fill-rule="evenodd" clip-rule="evenodd" d="M30 40.0001H57.7386C60.2085 40.0001 62.2048 37.9864 62.2049 35.5165C62.2051 32.5666 62.2222 29.6164 62.2222 26.6667C52.1946 32.9335 41.3194 37.4336 30 40.0001Z" fill="#F27712"/>
<path fill-rule="evenodd" clip-rule="evenodd" d="M56.082 23.965H54.1545L51.9837 21.1018H51.7779V23.965H50.206V16.8539H52.5264C54.3416 16.8539 55.3896 17.6024 55.3896 18.9498C55.3896 20.0539 54.7346 20.765 53.5557 20.9896L56.082 23.965ZM53.7615 19.0059C53.7615 18.3135 53.2375 17.958 52.2644 17.958H51.7779V20.11H52.227C53.2375 20.11 53.7615 19.7358 53.7615 19.0059ZM44.7042 16.8539H49.158V18.0515H46.2761V19.6422H49.0457V20.8586H46.2761V22.786H49.158V23.9837H44.7042V16.8539ZM39.6516 24.1521L36.2457 16.8352H37.9674L40.1194 21.6258L42.2902 16.8352H43.9744L40.5311 24.1521H39.689H39.6516ZM25.4106 24.1334C23.0153 24.1334 21.144 22.5053 21.144 20.3907C21.144 18.3322 23.0527 16.6667 25.4481 16.6667C26.1217 16.6667 26.6831 16.7977 27.3755 17.0972V18.7439C26.8512 18.2288 26.1457 17.9399 25.4106 17.9393C23.9136 17.9393 22.772 19.0246 22.772 20.3907C22.772 21.8317 23.8948 22.8609 25.4855 22.8609C26.1966 22.8609 26.7393 22.6363 27.3755 22.0749V23.7217C26.6644 24.0211 26.0656 24.1334 25.4106 24.1334ZM20.6574 21.7942C20.6574 23.179 19.5159 24.1334 17.8691 24.1334C16.6715 24.1334 15.8106 23.7217 15.0808 22.786L16.11 21.9065C16.4656 22.5428 17.0644 22.8609 17.813 22.8609C18.5241 22.8609 19.0293 22.4305 19.0293 21.8691C19.0293 21.551 18.8796 21.3077 18.5615 21.1205C18.2127 20.9513 17.8495 20.8135 17.4761 20.7089C15.9978 20.241 15.4925 19.7358 15.4925 18.7439C15.4925 17.5837 16.5779 16.7042 18.0001 16.7042C18.8984 16.7042 19.703 16.9849 20.3767 17.5089L19.5533 18.4445C19.3919 18.2676 19.1954 18.1263 18.9763 18.0296C18.7572 17.9329 18.5203 17.883 18.2808 17.8831C17.6071 17.8831 17.1206 18.22 17.1206 18.6691C17.1206 19.0434 17.4013 19.2492 18.3369 19.5673C20.1334 20.1287 20.6574 20.6527 20.6574 21.8129V21.7942ZM12.9288 16.8539H14.5007V23.9837H12.9288V16.8539ZM7.87613 23.9837H5.55566V16.8539H7.87613C10.4212 16.8539 12.1802 18.3135 12.1802 20.4094C12.1802 21.4761 11.6562 22.4866 10.7393 23.1603C9.95332 23.7217 9.07379 23.9837 7.85742 23.9837H7.87613ZM9.71005 18.6317C9.18607 18.22 8.58724 18.0703 7.558 18.0703H7.12759V22.786H7.558C8.56853 22.786 9.20479 22.5989 9.71005 22.2246C10.2527 21.7755 10.5709 21.1018 10.5709 20.4094C10.5709 19.717 10.2527 19.0621 9.71005 18.6317Z" fill="black"/>
<path fill-rule="evenodd" clip-rule="evenodd" d="M31.7544 16.6667C29.6959 16.6667 28.0117 18.3135 28.0117 20.3533C28.0117 22.5241 29.6211 24.1521 31.7544 24.1521C33.8503 24.1521 35.4971 22.5053 35.4971 20.4094C35.4971 18.3135 33.869 16.6667 31.7544 16.6667Z" fill="#F27712"/>
</svg>
