<svg width="62" height="40" viewBox="0 0 62 40" fill="none" xmlns="http://www.w3.org/2000/svg">
<rect width="62" height="40" rx="4.44444" fill="white"/>
<path d="M19.2759 33.7935V31.9154C19.2759 31.197 18.8383 30.7265 18.087 30.7265C17.7114 30.7265 17.303 30.8505 17.0221 31.259C16.8033 30.9161 16.4897 30.7265 16.0192 30.7265C15.7056 30.7265 15.392 30.8213 15.144 31.1641V30.7885H14.4875V33.7935H15.144V32.1342C15.144 31.6018 15.4248 31.3501 15.8624 31.3501C16.3001 31.3501 16.5189 31.6309 16.5189 32.1342V33.7935H17.1753V32.1342C17.1753 31.6018 17.489 31.3501 17.8938 31.3501C18.3314 31.3501 18.5502 31.6309 18.5502 32.1342V33.7935H19.2759ZM29.0132 30.7885H27.9483V29.8804H27.2918V30.7885H26.6974V31.3829H27.2918V32.7615C27.2918 33.4507 27.5726 33.8555 28.3239 33.8555C28.6047 33.8555 28.9183 33.7607 29.1372 33.6367L28.9475 33.0715C28.7579 33.1955 28.5391 33.2283 28.3823 33.2283C28.0686 33.2283 27.9446 33.0386 27.9446 32.7287V31.3829H29.0095V30.7885H29.0132ZM34.5856 30.7229C34.21 30.7229 33.9584 30.9125 33.8016 31.1605V30.7849H33.1451V33.7899H33.8016V32.0977C33.8016 31.5981 34.0204 31.3137 34.4288 31.3137C34.5528 31.3137 34.7096 31.3465 34.8373 31.3757L35.0269 30.7484C34.8956 30.7229 34.7096 30.7229 34.5856 30.7229ZM26.1649 31.0365C25.8513 30.8177 25.4137 30.7229 24.9432 30.7229C24.192 30.7229 23.6923 31.0985 23.6923 31.6929C23.6923 32.1926 24.068 32.477 24.7244 32.5682L25.038 32.601C25.3808 32.663 25.5705 32.7578 25.5705 32.9146C25.5705 33.1335 25.3189 33.2903 24.8812 33.2903C24.4436 33.2903 24.0971 33.1335 23.8783 32.9766L23.5647 33.4763C23.9075 33.7279 24.378 33.8519 24.8484 33.8519C25.7237 33.8519 26.2269 33.4434 26.2269 32.8818C26.2269 32.3494 25.8185 32.0686 25.1949 31.9737L24.8812 31.9409C24.6004 31.9081 24.3816 31.8461 24.3816 31.6601C24.3816 31.4413 24.6004 31.3173 24.9469 31.3173C25.3225 31.3173 25.6981 31.4741 25.8878 31.5689L26.1649 31.0365ZM43.63 30.7229C43.2543 30.7229 43.0027 30.9125 42.8459 31.1605V30.7849H42.1894V33.7899H42.8459V32.0977C42.8459 31.5981 43.0647 31.3137 43.4731 31.3137C43.5971 31.3137 43.754 31.3465 43.8816 31.3757L44.0712 30.7557C43.9436 30.7229 43.7576 30.7229 43.63 30.7229ZM35.2421 32.291C35.2421 33.1991 35.8693 33.8555 36.8394 33.8555C37.2771 33.8555 37.5907 33.7607 37.9043 33.5127L37.5907 32.9803C37.339 33.1699 37.0911 33.2611 36.8066 33.2611C36.2742 33.2611 35.8985 32.8855 35.8985 32.291C35.8985 31.7258 36.2742 31.3501 36.8066 31.3209C37.0874 31.3209 37.339 31.4158 37.5907 31.6018L37.9043 31.0693C37.5907 30.8177 37.2771 30.7265 36.8394 30.7265C35.8693 30.7229 35.2421 31.3829 35.2421 32.291ZM41.3142 32.291V30.7885H40.6577V31.1641C40.4389 30.8833 40.1253 30.7265 39.7168 30.7265C38.8707 30.7265 38.2143 31.3829 38.2143 32.291C38.2143 33.1991 38.8707 33.8555 39.7168 33.8555C40.1545 33.8555 40.4681 33.6987 40.6577 33.4179V33.7935H41.3142V32.291ZM38.9036 32.291C38.9036 31.7586 39.2464 31.3209 39.8116 31.3209C40.3441 31.3209 40.7197 31.7294 40.7197 32.291C40.7197 32.8235 40.3441 33.2611 39.8116 33.2611C39.25 33.2283 38.9036 32.8198 38.9036 32.291ZM31.0481 30.7229C30.1729 30.7229 29.5456 31.3501 29.5456 32.2874C29.5456 33.2283 30.1729 33.8519 31.081 33.8519C31.5186 33.8519 31.9562 33.7279 32.3027 33.4434L31.989 32.973C31.7374 33.1626 31.4238 33.2866 31.1138 33.2866C30.7053 33.2866 30.3005 33.097 30.2057 32.5682H32.4267C32.4267 32.4734 32.4267 32.4114 32.4267 32.3166C32.4558 31.3501 31.8906 30.7229 31.0481 30.7229ZM31.0481 31.2881C31.4566 31.2881 31.7374 31.5398 31.7994 32.0066H30.2349C30.2969 31.6018 30.5777 31.2881 31.0481 31.2881ZM47.3571 32.291V29.5996H46.7006V31.1641C46.4818 30.8833 46.1682 30.7265 45.7597 30.7265C44.9137 30.7265 44.2572 31.3829 44.2572 32.291C44.2572 33.1991 44.9137 33.8555 45.7597 33.8555C46.1974 33.8555 46.511 33.6987 46.7006 33.4179V33.7935H47.3571V32.291ZM44.9465 32.291C44.9465 31.7586 45.2893 31.3209 45.8546 31.3209C46.387 31.3209 46.7626 31.7294 46.7626 32.291C46.7626 32.8235 46.387 33.2611 45.8546 33.2611C45.2893 33.2283 44.9465 32.8198 44.9465 32.291ZM22.9702 32.291V30.7885H22.3138V31.1641C22.095 30.8833 21.7814 30.7265 21.3729 30.7265C20.5268 30.7265 19.8704 31.3829 19.8704 32.291C19.8704 33.1991 20.5268 33.8555 21.3729 33.8555C21.8105 33.8555 22.1242 33.6987 22.3138 33.4179V33.7935H22.9702V32.291ZM20.5305 32.291C20.5305 31.7586 20.8733 31.3209 21.4385 31.3209C21.971 31.3209 22.3466 31.7294 22.3466 32.291C22.3466 32.8235 21.971 33.2611 21.4385 33.2611C20.8733 33.2283 20.5305 32.8198 20.5305 32.291Z" fill="black"/>
<path d="M35.8073 7.96619H25.946V25.6828H35.8073V7.96619Z" fill="#FF5A00"/>
<path d="M26.6023 16.8245C26.6023 13.225 28.2945 10.0303 30.8911 7.96615C28.9801 6.46362 26.5695 5.55554 23.9401 5.55554C17.7112 5.55554 12.6711 10.5956 12.6711 16.8245C12.6711 23.0534 17.7112 28.0934 23.9401 28.0934C26.5695 28.0934 28.9801 27.1853 30.8911 25.6828C28.2908 23.6478 26.6023 20.424 26.6023 16.8245Z" fill="#EB001B"/>
<path d="M49.111 16.8245C49.111 23.0534 44.071 28.0934 37.8421 28.0934C35.2127 28.0934 32.8021 27.1853 30.8911 25.6828C33.5205 23.615 35.1799 20.424 35.1799 16.8245C35.1799 13.225 33.4877 10.0303 30.8911 7.96615C32.7984 6.46362 35.209 5.55554 37.8385 5.55554C44.071 5.55554 49.111 10.6284 49.111 16.8245Z" fill="#F79E1B"/>
</svg>
