<svg width="63" height="40" viewBox="0 0 63 40" fill="none" xmlns="http://www.w3.org/2000/svg">
<rect width="63" height="40" rx="4.44444" fill="white"/>
<path d="M24.4337 16.2805H21.4472C21.2429 16.2805 21.0691 16.429 21.0372 16.6307L19.8293 24.2889C19.8053 24.44 19.9223 24.5762 20.0756 24.5762H21.5014C21.7057 24.5762 21.8795 24.4278 21.9114 24.2256L22.2372 22.1601C22.2686 21.9579 22.4429 21.8094 22.6468 21.8094H23.5922C25.5595 21.8094 26.6949 20.8574 26.9914 18.9709C27.125 18.1456 26.9971 17.4971 26.6106 17.043C26.1861 16.5443 25.4333 16.2805 24.4337 16.2805ZM24.7783 19.0775C24.6149 20.1491 23.7962 20.1491 23.0044 20.1491H22.5538L22.8699 18.1478C22.8887 18.0268 22.9935 17.9377 23.1158 17.9377H23.3224C23.8617 17.9377 24.3704 17.9377 24.6333 18.2452C24.7901 18.4286 24.8381 18.7011 24.7783 19.0775Z" fill="#253B80"/>
<path d="M33.3607 19.0431H31.9305C31.8087 19.0431 31.7035 19.1322 31.6847 19.2531L31.6214 19.6531L31.5214 19.5081C31.2118 19.0588 30.5214 18.9086 29.8323 18.9086C28.2519 18.9086 26.9021 20.1055 26.6392 21.7846C26.5025 22.6221 26.6969 23.423 27.172 23.9815C27.6078 24.4951 28.2314 24.7091 28.9733 24.7091C30.2467 24.7091 30.9528 23.8903 30.9528 23.8903L30.889 24.2877C30.865 24.4396 30.9821 24.5759 31.1345 24.5759H32.4227C32.6275 24.5759 32.8004 24.4274 32.8327 24.2252L33.6057 19.3304C33.6301 19.1798 33.5135 19.0431 33.3607 19.0431ZM31.3672 21.8265C31.2292 22.6435 30.5807 23.192 29.7537 23.192C29.3384 23.192 29.0065 23.0588 28.7934 22.8064C28.582 22.5558 28.5017 22.199 28.5689 21.8016C28.6978 20.9916 29.3571 20.4252 30.1716 20.4252C30.5777 20.4252 30.9078 20.5601 31.1253 20.8147C31.3432 21.0719 31.4297 21.4309 31.3672 21.8265Z" fill="#253B80"/>
<path d="M40.9774 19.0431H39.5403C39.4032 19.0431 39.2744 19.1112 39.1966 19.2252L37.2145 22.1449L36.3743 19.3392C36.3215 19.1636 36.1595 19.0431 35.9761 19.0431H34.5638C34.3922 19.0431 34.273 19.2108 34.3276 19.3724L35.9106 24.0178L34.4223 26.1187C34.3053 26.2842 34.4232 26.5117 34.6254 26.5117H36.0608C36.197 26.5117 36.3245 26.4453 36.4018 26.3336L41.1818 19.4339C41.2962 19.2689 41.1787 19.0431 40.9774 19.0431Z" fill="#253B80"/>
<path d="M45.7355 16.2805H42.7485C42.5446 16.2805 42.3708 16.429 42.3389 16.6307L41.1311 24.2889C41.107 24.44 41.2241 24.5762 41.3765 24.5762H42.9092C43.0516 24.5762 43.1734 24.4723 43.1957 24.3308L43.5385 22.1601C43.57 21.9579 43.7442 21.8094 43.9481 21.8094H44.8931C46.8608 21.8094 47.9958 20.8574 48.2927 18.9709C48.4268 18.1456 48.2979 17.4971 47.9115 17.043C47.4875 16.5443 46.7351 16.2805 45.7355 16.2805ZM46.08 19.0775C45.9171 20.1491 45.0984 20.1491 44.3062 20.1491H43.856L44.1726 18.1478C44.1914 18.0268 44.2953 17.9377 44.418 17.9377H44.6246C45.1634 17.9377 45.6726 17.9377 45.9355 18.2452C46.0923 18.4286 46.1398 18.7011 46.08 19.0775Z" fill="#179BD7"/>
<path d="M54.6623 19.0431H53.233C53.1103 19.0431 53.0059 19.1322 52.9876 19.2531L52.9243 19.6531L52.8238 19.5081C52.5142 19.0588 51.8243 18.9086 51.1352 18.9086C49.5548 18.9086 48.2054 20.1055 47.9426 21.7846C47.8063 22.6221 47.9998 23.423 48.4749 23.9815C48.9116 24.4951 49.5343 24.7091 50.2762 24.7091C51.5496 24.7091 52.2557 23.8903 52.2557 23.8903L52.192 24.2877C52.1679 24.4396 52.285 24.5759 52.4382 24.5759H53.726C53.93 24.5759 54.1038 24.4274 54.1356 24.2252L54.909 19.3304C54.9326 19.1798 54.8156 19.0431 54.6623 19.0431ZM52.6688 21.8265C52.5317 22.6435 51.8823 23.192 51.0553 23.192C50.6408 23.192 50.3081 23.0588 50.095 22.8064C49.8836 22.5558 49.8042 22.199 49.8705 21.8016C50.0002 20.9916 50.6587 20.4252 51.4732 20.4252C51.8793 20.4252 52.2094 20.5601 52.4269 20.8147C52.6457 21.0719 52.7321 21.4309 52.6688 21.8265Z" fill="#179BD7"/>
<path d="M56.3483 16.4905L55.1225 24.2888C55.0985 24.4399 55.2155 24.5762 55.3679 24.5762H56.6003C56.8051 24.5762 56.9789 24.4277 57.0103 24.2255L58.2191 16.5678C58.2431 16.4167 58.126 16.28 57.9736 16.28H56.5937C56.4719 16.2805 56.3671 16.3695 56.3483 16.4905Z" fill="#179BD7"/>
<path d="M7.42692 26.0645L7.65531 24.6138L7.14657 24.602H4.71729L6.40551 13.8975C6.41075 13.8652 6.42778 13.8351 6.45267 13.8137C6.47756 13.7923 6.50944 13.7805 6.54263 13.7805H10.6387C11.9986 13.7805 12.937 14.0635 13.427 14.622C13.6567 14.884 13.803 15.1578 13.8737 15.4591C13.9479 15.7753 13.9493 16.153 13.8768 16.6137L13.8715 16.6474V16.9426L14.1012 17.0727C14.2947 17.1753 14.4484 17.2928 14.5663 17.4273C14.7628 17.6513 14.8899 17.936 14.9436 18.2736C14.999 18.6207 14.9807 19.0338 14.8899 19.5015C14.7851 20.0395 14.6156 20.5081 14.3868 20.8915C14.1763 21.2448 13.9082 21.5378 13.5899 21.7649C13.2859 21.9806 12.9248 22.1444 12.5165 22.2492C12.1209 22.3522 11.6698 22.4042 11.175 22.4042H10.8562C10.6283 22.4042 10.4069 22.4863 10.2331 22.6334C10.0588 22.7837 9.94354 22.9889 9.90817 23.2134L9.88415 23.3439L9.48065 25.9007L9.46231 25.9946C9.45751 26.0243 9.44921 26.0392 9.43698 26.0492C9.42607 26.0584 9.41035 26.0645 9.39506 26.0645H7.42692Z" fill="#253B80"/>
<path d="M14.3187 16.6814C14.3064 16.7596 14.2925 16.8395 14.2768 16.9216C13.7366 19.695 11.8885 20.6531 9.52823 20.6531H8.32647C8.03782 20.6531 7.79459 20.8627 7.74961 21.1474L7.13432 25.0496L6.96008 26.1557C6.93083 26.3426 7.07493 26.5112 7.26358 26.5112H9.39504C9.64745 26.5112 9.86186 26.3278 9.9016 26.0789L9.92256 25.9706L10.3239 23.4238L10.3496 23.2841C10.3889 23.0343 10.6038 22.8509 10.8562 22.8509H11.175C13.2401 22.8509 14.8567 22.0125 15.3292 19.5862C15.5265 18.5727 15.4244 17.7264 14.9021 17.1312C14.744 16.9517 14.5479 16.8028 14.3187 16.6814Z" fill="#179BD7"/>
<path d="M13.7535 16.4561C13.671 16.4321 13.5858 16.4102 13.4985 16.3906C13.4107 16.3714 13.3207 16.3543 13.2282 16.3395C12.9041 16.2871 12.5491 16.2622 12.1688 16.2622H8.95826C8.87922 16.2622 8.80411 16.2801 8.73686 16.3124C8.58882 16.3836 8.47878 16.5238 8.45214 16.6954L7.76916 21.0212L7.74951 21.1474C7.79449 20.8627 8.03772 20.6531 8.32637 20.6531H9.52813C11.8884 20.6531 13.7365 19.6946 14.2767 16.9216C14.2928 16.8395 14.3063 16.7596 14.3186 16.6814C14.1819 16.6089 14.0339 16.5469 13.8745 16.4941C13.8352 16.481 13.7946 16.4683 13.7535 16.4561Z" fill="#222D65"/>
<path d="M8.4522 16.6954C8.47883 16.5238 8.58888 16.3836 8.73692 16.3129C8.8046 16.2806 8.87928 16.2627 8.95832 16.2627H12.1688C12.5492 16.2627 12.9042 16.2876 13.2282 16.34C13.3208 16.3548 13.4108 16.3718 13.4985 16.391C13.5859 16.4107 13.671 16.4325 13.7536 16.4565C13.7946 16.4688 13.8352 16.4814 13.875 16.4941C14.0343 16.5469 14.1824 16.6094 14.3191 16.6814C14.4798 15.6565 14.3178 14.9587 13.7636 14.3268C13.1527 13.6312 12.05 13.3334 10.6391 13.3334H6.54301C6.2548 13.3334 6.00894 13.543 5.9644 13.8281L4.25827 24.6427C4.22464 24.8566 4.38971 25.0496 4.60543 25.0496H7.13428L7.76922 21.0212L8.4522 16.6954Z" fill="#253B80"/>
</svg>
