<svg width="62" height="40" viewBox="0 0 62 40" fill="none" xmlns="http://www.w3.org/2000/svg">
<rect width="62" height="40" rx="4.44444" fill="white"/>
<path d="M27.5436 27.3645H23.698L26.1033 12.4919H29.9487L27.5436 27.3645Z" fill="#00579F"/>
<path d="M41.4841 12.8555C40.7256 12.5545 39.5226 12.2223 38.035 12.2223C34.2373 12.2223 31.5631 14.2474 31.5467 17.1427C31.5151 19.2788 33.4614 20.4652 34.917 21.1775C36.4048 21.9053 36.9106 22.3803 36.9106 23.0291C36.8954 24.0254 35.7083 24.4847 34.6011 24.4847C33.0658 24.4847 32.2432 24.2479 30.993 23.6936L30.4866 23.456L29.9485 26.7945C30.8504 27.2054 32.5121 27.5701 34.2373 27.5861C38.2724 27.5861 40.8993 25.5923 40.9305 22.5069C40.9458 20.8139 39.9181 19.5166 37.7025 18.4565C36.3575 17.776 35.5338 17.3172 35.5338 16.6209C35.5496 15.988 36.2305 15.3396 37.7488 15.3396C38.9989 15.3079 39.9175 15.6084 40.6133 15.9091L40.9612 16.067L41.4841 12.8555Z" fill="#00579F"/>
<path d="M46.5952 22.0957C46.9119 21.2413 48.1306 17.9345 48.1306 17.9345C48.1146 17.9662 48.4466 17.0643 48.6365 16.5106L48.9053 17.7921C48.9053 17.7921 49.6335 21.3521 49.7916 22.0957C49.1906 22.0957 47.3548 22.0957 46.5952 22.0957ZM51.3421 12.4919H48.3676C47.4503 12.4919 46.7534 12.7607 46.3576 13.7259L40.6455 27.3643H44.6805C44.6805 27.3643 45.3449 25.5287 45.4876 25.1333C45.9303 25.1333 49.8556 25.1333 50.425 25.1333C50.5354 25.6555 50.8839 27.3643 50.8839 27.3643H54.4445L51.3421 12.4919Z" fill="#00579F"/>
<path d="M20.4861 12.4919L16.72 22.6336L16.3085 20.5767C15.6122 18.2034 13.4285 15.6248 10.9917 14.3427L14.4413 27.3487H18.5079L24.5524 12.4919H20.4861Z" fill="#00579F"/>
<path d="M13.2229 12.4919H7.03571L6.97241 12.7924C11.7988 14.0266 14.9952 17.0016 16.3084 20.5774L14.9634 13.7421C14.742 12.7922 14.0615 12.5233 13.2229 12.4919Z" fill="#FAA61A"/>
</svg>
