<svg width="107" height="26" viewBox="0 0 107 26" fill="none" xmlns="http://www.w3.org/2000/svg">
<path d="M39.6991 5.79785H33.8238C33.4218 5.79785 33.0799 6.08994 33.0172 6.48684L30.6409 21.5526C30.5937 21.8498 30.8239 22.1178 31.1255 22.1178H33.9304C34.3324 22.1178 34.6743 21.8258 34.737 21.428L35.3779 17.3645C35.4398 16.9668 35.7825 16.6747 36.1837 16.6747H38.0436C41.9138 16.6747 44.1474 14.8019 44.7307 11.0907C44.9936 9.46699 44.7419 8.19126 43.9816 7.29781C43.1466 6.31674 41.6655 5.79785 39.6991 5.79785ZM40.3769 11.3003C40.0556 13.4085 38.4448 13.4085 36.8873 13.4085H36.0007L36.6227 9.47129C36.6597 9.23332 36.8658 9.05807 37.1064 9.05807H37.5127C38.5737 9.05807 39.5745 9.05807 40.0917 9.66286C40.4001 10.0237 40.4946 10.5597 40.3769 11.3003Z" fill="#425FBB"/>
<path d="M57.2603 11.2326H54.4468C54.2071 11.2326 54.0001 11.4079 53.9631 11.6458L53.8386 12.4328L53.6418 12.1475C53.0327 11.2635 51.6745 10.968 50.3189 10.968C47.2099 10.968 44.5545 13.3228 44.0373 16.6259C43.7684 18.2737 44.1507 19.8492 45.0854 20.948C45.9427 21.9583 47.1695 22.3792 48.6291 22.3792C51.1342 22.3792 52.5233 20.7684 52.5233 20.7684L52.3979 21.5502C52.3506 21.8492 52.5809 22.1172 52.8807 22.1172H55.415C55.8179 22.1172 56.1581 21.8251 56.2217 21.4273L57.7422 11.7979C57.7903 11.5015 57.561 11.2326 57.2603 11.2326ZM53.3386 16.7084C53.0671 18.3158 51.7914 19.3948 50.1643 19.3948C49.3473 19.3948 48.6944 19.1327 48.2751 18.6362C47.8593 18.1431 47.7013 17.4412 47.8336 16.6594C48.087 15.0658 49.3842 13.9516 50.9864 13.9516C51.7854 13.9516 52.4348 14.2171 52.8626 14.7179C53.2913 15.2239 53.4614 15.9301 53.3386 16.7084Z" fill="#425FBB"/>
<path d="M72.2451 11.2327H69.4179C69.1481 11.2327 68.8947 11.3667 68.7418 11.5909L64.8424 17.3347L63.1895 11.8151C63.0856 11.4698 62.7669 11.2327 62.4061 11.2327H59.6278C59.2902 11.2327 59.0556 11.5626 59.163 11.8804L62.2772 21.0193L59.3494 25.1524C59.1192 25.478 59.3512 25.9256 59.7489 25.9256H62.5727C62.8408 25.9256 63.0916 25.795 63.2437 25.575L72.6472 12.0015C72.8723 11.6768 72.6412 11.2327 72.2451 11.2327Z" fill="#425FBB"/>
<path d="M81.6054 5.79785H75.7292C75.328 5.79785 74.9861 6.08994 74.9234 6.48684L72.5472 21.5526C72.4999 21.8498 72.7302 22.1178 73.03 22.1178H76.0454C76.3254 22.1178 76.5651 21.9134 76.6089 21.635L77.2833 17.3645C77.3452 16.9668 77.6879 16.6747 78.0891 16.6747H79.9482C83.8192 16.6747 86.052 14.8019 86.6361 11.0907C86.8999 9.46699 86.6464 8.19126 85.8862 7.29781C85.052 6.31674 83.5718 5.79785 81.6054 5.79785ZM82.2832 11.3003C81.9627 13.4085 80.352 13.4085 78.7936 13.4085H77.9079L78.5307 9.47129C78.5676 9.23332 78.7721 9.05807 79.0135 9.05807H79.4198C80.48 9.05807 81.4816 9.05807 81.9988 9.66286C82.3072 10.0237 82.4009 10.5597 82.2832 11.3003Z" fill="#3CC2FF"/>
<path d="M99.1668 11.2326H96.355C96.1136 11.2326 95.9083 11.4079 95.8722 11.6458L95.7476 12.4328L95.55 12.1475C94.9409 11.2635 93.5836 10.968 92.228 10.968C89.1189 10.968 86.4644 13.3228 85.9472 16.6259C85.6792 18.2737 86.0597 19.8492 86.9944 20.948C87.8535 21.9583 89.0786 22.3792 90.5381 22.3792C93.0432 22.3792 94.4324 20.7684 94.4324 20.7684L94.3069 21.5502C94.2597 21.8492 94.4899 22.1172 94.7915 22.1172H97.3249C97.7261 22.1172 98.068 21.8251 98.1307 21.4273L99.6522 11.7979C99.6985 11.5015 99.4683 11.2326 99.1668 11.2326ZM95.2451 16.7084C94.9753 18.3158 93.6979 19.3948 92.0708 19.3948C91.2555 19.3948 90.6009 19.1327 90.1816 18.6362C89.7658 18.1431 89.6095 17.4412 89.7401 16.6594C89.9952 15.0658 91.2907 13.9516 92.8929 13.9516C93.6918 13.9516 94.3413 14.2171 94.7691 14.7179C95.1995 15.2239 95.3696 15.9301 95.2451 16.7084Z" fill="#3CC2FF"/>
<path d="M102.484 6.21107L100.073 21.5526C100.025 21.8498 100.256 22.1178 100.555 22.1178H102.98C103.383 22.1178 103.725 21.8258 103.786 21.428L106.164 6.36313C106.212 6.06589 105.981 5.797 105.682 5.797H102.967C102.727 5.79786 102.521 5.97311 102.484 6.21107Z" fill="#3CC2FF"/>
<path d="M6.24272 25.0456L6.69202 22.1918L5.69119 22.1686H0.912109L4.23332 1.10987C4.24363 1.0463 4.27714 0.987024 4.3261 0.944929C4.37507 0.902834 4.43778 0.879639 4.50307 0.879639H12.5613C15.2365 0.879639 17.0826 1.43632 18.0465 2.53509C18.4984 3.05054 18.7862 3.58918 18.9254 4.18195C19.0714 4.80393 19.074 5.54703 18.9314 6.45337L18.9211 6.51952V7.10026L19.3729 7.35626C19.7535 7.55815 20.0559 7.78924 20.2879 8.05384C20.6744 8.49455 20.9244 9.05467 21.0301 9.71874C21.1392 10.4017 21.1031 11.2144 20.9244 12.1345C20.7183 13.1929 20.3849 14.1147 19.9348 14.8689C19.5207 15.5639 18.9932 16.1404 18.3669 16.5871C17.769 17.0115 17.0586 17.3336 16.2553 17.5398C15.477 17.7426 14.5896 17.8448 13.6162 17.8448H12.9891C12.5407 17.8448 12.1051 18.0063 11.7632 18.2958C11.4204 18.5913 11.1936 18.9951 11.124 19.4367L11.0768 19.6935L10.283 24.7235L10.2469 24.9082C10.2375 24.9666 10.2211 24.9958 10.1971 25.0156C10.1756 25.0336 10.1447 25.0456 10.1146 25.0456H6.24272Z" fill="#425FBB"/>
<path d="M19.8003 6.58655C19.7762 6.74032 19.7487 6.89754 19.7178 7.05904C18.6551 12.5151 15.0195 14.3999 10.3761 14.3999H8.01192C7.44407 14.3999 6.96556 14.8123 6.87707 15.3724L5.66663 23.0492L5.32385 25.2252C5.26629 25.5929 5.54979 25.9245 5.92091 25.9245H10.1141C10.6106 25.9245 11.0325 25.5637 11.1106 25.074L11.1519 24.861L11.9414 19.8508L11.992 19.5759C12.0694 19.0845 12.492 18.7237 12.9886 18.7237H13.6157C17.6783 18.7237 20.8586 17.0742 21.7882 12.3012C22.1765 10.3072 21.9754 8.64233 20.948 7.4714C20.637 7.11832 20.2513 6.82537 19.8003 6.58655Z" fill="#3CC2FF"/>
<path d="M18.6885 6.14327C18.5261 6.09602 18.3586 6.05307 18.1868 6.01441C18.0141 5.97661 17.8371 5.94311 17.655 5.9139C17.0176 5.81081 16.3191 5.76184 15.5709 5.76184H9.25489C9.0994 5.76184 8.95164 5.79706 8.81934 5.86064C8.52811 6.00067 8.31162 6.27643 8.25922 6.61405L6.91561 15.1241L6.87695 15.3724C6.96544 14.8123 7.44395 14.3999 8.0118 14.3999H10.376C15.0193 14.3999 18.655 12.5142 19.7177 7.05906C19.7494 6.89755 19.7761 6.74034 19.8001 6.58656C19.5312 6.44395 19.24 6.32196 18.9264 6.21801C18.8491 6.19224 18.7692 6.16733 18.6885 6.14327Z" fill="#32449F"/>
<path d="M8.25921 6.61408C8.31161 6.27646 8.5281 6.00069 8.81933 5.86152C8.95249 5.79795 9.09939 5.76273 9.25489 5.76273H15.5709C16.3191 5.76273 17.0176 5.81169 17.655 5.91478C17.8371 5.94399 18.0141 5.9775 18.1868 6.0153C18.3586 6.05395 18.5261 6.09691 18.6885 6.14416C18.7692 6.16821 18.8491 6.19313 18.9273 6.21804C19.2409 6.32199 19.5321 6.44484 19.801 6.58659C20.1171 4.57032 19.7984 3.19751 18.7082 1.95441C17.5064 0.585894 15.3372 0 12.5615 0H4.5033C3.93631 0 3.45264 0.41236 3.36502 0.973341L0.00858122 22.2485C-0.0575681 22.6695 0.267165 23.0492 0.691552 23.0492H5.6665L6.91561 15.1241L8.25921 6.61408Z" fill="#425FBB"/>
</svg>
