<svg width="390" height="2471" viewBox="0 0 390 2471" fill="none" xmlns="http://www.w3.org/2000/svg">
<mask id="mask0_552_6933" style="mask-type:alpha" maskUnits="userSpaceOnUse" x="0" y="0" width="390" height="2471">
<rect width="390" height="2471" transform="matrix(-1 0 0 1 390 0)" fill="url(#paint0_linear_552_6933)"/>
</mask>
<g mask="url(#mask0_552_6933)">
<rect width="390" height="2471" transform="matrix(-1 0 0 1 390 0)" fill="#101011"/>
<ellipse rx="433.68" ry="417" transform="matrix(-1 0 0 1 -154.32 633)" fill="url(#paint1_radial_552_6933)"/>
<ellipse rx="433.68" ry="417" transform="matrix(-1 0 0 1 -143.32 561)" fill="url(#paint2_radial_552_6933)"/>
<ellipse rx="262.6" ry="252.5" transform="matrix(-1 0 0 1 -164.04 678.5)" fill="url(#paint3_radial_552_6933)"/>
<ellipse rx="298.5" ry="287" transform="matrix(-1 0 0 1 -121.5 580)" fill="url(#paint4_radial_552_6933)"/>
<g filter="url(#filter0_f_552_6933)">
<circle cx="524" cy="856" r="273" fill="url(#paint5_radial_552_6933)"/>
</g>
</g>
<defs>
<filter id="filter0_f_552_6933" x="131" y="463" width="786" height="786" filterUnits="userSpaceOnUse" color-interpolation-filters="sRGB">
<feFlood flood-opacity="0" result="BackgroundImageFix"/>
<feBlend mode="normal" in="SourceGraphic" in2="BackgroundImageFix" result="shape"/>
<feGaussianBlur stdDeviation="60" result="effect1_foregroundBlur_552_6933"/>
</filter>
<linearGradient id="paint0_linear_552_6933" x1="195" y1="0" x2="195" y2="2471" gradientUnits="userSpaceOnUse">
<stop offset="0.785316"/>
<stop offset="1" stop-opacity="0"/>
</linearGradient>
<radialGradient id="paint1_radial_552_6933" cx="0" cy="0" r="1" gradientUnits="userSpaceOnUse" gradientTransform="translate(433.68 417) rotate(90) scale(417 433.68)">
<stop stop-color="#00C2FF"/>
<stop offset="1" stop-color="#3300FF" stop-opacity="0"/>
<stop offset="1" stop-color="#0066FF" stop-opacity="0"/>
</radialGradient>
<radialGradient id="paint2_radial_552_6933" cx="0" cy="0" r="1" gradientUnits="userSpaceOnUse" gradientTransform="translate(433.68 417) rotate(90) scale(417 433.68)">
<stop stop-color="#230DFC"/>
<stop offset="1" stop-color="#3300FF" stop-opacity="0"/>
<stop offset="1" stop-color="#1C0CF9"/>
</radialGradient>
<radialGradient id="paint3_radial_552_6933" cx="0" cy="0" r="1" gradientUnits="userSpaceOnUse" gradientTransform="translate(262.6 252.5) rotate(90) scale(252.5 262.6)">
<stop stop-color="#D037FF"/>
<stop offset="1" stop-color="#9E31F8" stop-opacity="0"/>
</radialGradient>
<radialGradient id="paint4_radial_552_6933" cx="0" cy="0" r="1" gradientUnits="userSpaceOnUse" gradientTransform="translate(298.5 287) rotate(90) scale(287 298.5)">
<stop stop-color="#FFB800"/>
<stop offset="1" stop-color="#FF0099" stop-opacity="0"/>
</radialGradient>
<radialGradient id="paint5_radial_552_6933" cx="0" cy="0" r="1" gradientUnits="userSpaceOnUse" gradientTransform="translate(524 856) rotate(90) scale(273)">
<stop stop-color="#FFB800"/>
<stop offset="1" stop-color="#FF0099" stop-opacity="0"/>
</radialGradient>
</defs>
</svg>
